<mxfile host="Electron" agent="Mozilla/5.0 (Windows NT 10.0; Win64; x64) AppleWebKit/537.36 (KHTML, like Gecko) draw.io/26.0.3 Chrome/130.0.6723.137 Electron/33.2.1 Safari/537.36" version="26.0.3" pages="3">
  <diagram name="第 1 页" id="AyS5m6gR_b2N51wjYzCf">
    <mxGraphModel dx="1061" dy="515" grid="0" gridSize="10" guides="1" tooltips="1" connect="1" arrows="1" fold="1" page="0" pageScale="1" pageWidth="1000" pageHeight="1000" math="0" shadow="0">
      <root>
        <mxCell id="0" />
        <mxCell id="1" parent="0" />
        <mxCell id="myS2gV9JtSQ1_vFFmcrn-8" value="" style="rounded=1;whiteSpace=wrap;html=1;" vertex="1" parent="1">
          <mxGeometry x="123" y="65" width="662" height="356" as="geometry" />
        </mxCell>
        <mxCell id="myS2gV9JtSQ1_vFFmcrn-10" value="退出" style="rounded=1;whiteSpace=wrap;html=1;" vertex="1" parent="1">
          <mxGeometry x="591" y="366" width="163" height="37" as="geometry" />
        </mxCell>
        <mxCell id="myS2gV9JtSQ1_vFFmcrn-11" value="开始新游戏" style="rounded=1;whiteSpace=wrap;html=1;" vertex="1" parent="1">
          <mxGeometry x="591" y="320" width="161" height="39" as="geometry" />
        </mxCell>
        <mxCell id="myS2gV9JtSQ1_vFFmcrn-12" value="继续游戏" style="rounded=1;whiteSpace=wrap;html=1;" vertex="1" parent="1">
          <mxGeometry x="591" y="269" width="163" height="40" as="geometry" />
        </mxCell>
        <mxCell id="myS2gV9JtSQ1_vFFmcrn-13" value="" style="verticalLabelPosition=bottom;verticalAlign=top;html=1;shape=mxgraph.basic.polygon;polyCoords=[[0.25,0],[0.75,0],[1,0.25],[1,0.75],[0.75,1],[0.25,1],[0,0.75],[0,0.25]];polyline=0;" vertex="1" parent="1">
          <mxGeometry x="156" y="359" width="36" height="36" as="geometry" />
        </mxCell>
        <mxCell id="myS2gV9JtSQ1_vFFmcrn-15" value="" style="shape=stencil(nZzZstzGEUS/5r4iel+eZfk/FCHKZJgmFRTl5e9d7RvADLIGB5LfqKusAXqrJSsbb/mH3z7+9OuHtxR++/7t698//OvTz98/vuW/vKX06cvHD98+fbd/veUf3/IPv3z99uFv377+/uXn9//+9aeFXP/6x9d/rl/497td2EJeRin85/0Pc2yt/+8vf33Hf/705YQv84yvWxnX+LjFccbHLddrfNri+fdH2yK8T95KPePDluY1vmwznPC9bKlc49tW+gnfxpbTNX5s4Tzelraer/Fza+WEr31rEebTJlQM7AEwQTFttZ0Mio2ADPI2zkMoZcsBDOoWzmtWwtbJoOkYsg0aJskM5vkJ2Z7ZwMB+77wtct4CLHMcWxSDiOtsBvU8S7aUHTZenHrSbK8kGsPcajobNNxK6yyfx5DqlmClzaDJE2zt6XDa5jvvJTuvtHBmIOuw/gLrsM6/zFLYBuyl9QJRDSKNIetKr4mGdVhzcn6Crf0El2c+pjqDTIOuuws6DGz/0ivVbToD2t62c2S32pEqNEt997qHgT2TVrpvPapBoVey3S8G5ptp0EdgejIotDXsxInBzfaeu2N8MsjgjNeRlzGYt6VBz212NYjwhBzc1oh44sygdjUIMEvZneloz6QnxN0LHSF9GzDmbFMSBE9+zzx1Of/+QJeRbRdEwQfKGOq+pkcKsJ/X1/imIb3v8e4K38/jtT+Au7DYJylP25fwCi8r3DCjMvxQfKT5HHsCdWQYmGAYvmXBU0aVp0sX9jB0hZf9UDAy5yMOP/AB1teSFQk5GcOs4YviC8yP4ZskL7vnu8KLj7DUBcZbou7ntA3GdwniW4P9WdKWJSTviclrfN79zQNP/sTw6kQx0qxsdAqe9k+p+/I/8BSYDC8Jc8R8ubTdgz/h4TwW5x9u8N1FJcYP3c+RK6KxT/cTHgJGsfOVBE/+sIa9QNzxAdOnGvX9w57tXOFl/xge9oPVS6kpHs5jPY7TH8TnfXs94WE+a9Fq6BY/3PsTvmrud4NvL+aH8RJfbubH7eeb3+97AfDAU75Rh6auAeOX4av+PlWvhnf7gfKTOreov0/+0/BZ14v8j+GlxrL8jX9/6vmifKmFvYh8wsP6Gt69DyWgLWqafnBSV/iq54X8T0taeAdklAxf3XwSQ5T9+hJdYng3P1QdtqL54ZGAXOGbziftt1b9/FP+afis70OMleGb+hMqbg0/df8TsdKsktV4FGn+uysLebzD5zPEPbWpBENChrS7fDLthMNrfNT8gfPDnvby44GPMJ89K6OS9wTwNb4oxZu3yviq+TPth+7yt7wHnCu85MMF/Ynhm9YLVPT3pvlJQcbc8E3fZ9L8Wz143s8V/YnhZT9Uns+xp4+PepD8Z3c0SkO+zPBD61/idYZrKXRkLYfLDztyLoZvWr8Peh9HQQ4kFIfjN2yC+feHtCywfhlZz9fAfMnwEh/nlsD/GH5GwRNLNormAzHsDMyVgRyAeJS4VwZTPHrEEDbqXrE80WqUc5iBtI3MgPhQM9BXynvYeW3QNIuLBd3iaOqm4+GYXht0rRtiw0BsBpLYPNokVwae+c70SsO90sRa1Qzk7CcmH81gSLCMGP3GVG+6wj2NYWp4sniMg546SyvAUssvuFfiiGYGkuGsFgMbSIm+ODl6JedTF0kITmN1cacaYJ8zala63Dy4bTOYTQ06GaS97DkM2HHPpET28qzguefRQzwM5l5bXxnILC0+H/ySGfSqBkTmzaJkamZ2ywxyUwPcfEVnKd90tKtrpRbscSwFgevuEkNqBhKxFudOg25u0ANzKjMQDjkfrZ7XBl27KIVZLjMQVqwkLFvMQNahZJ7Wvs3zOpSCid4ce55wGFgEolcaTlrArREzkNSnTB70VL9UAxZH05EnNSEbMqeyYzXvYfLKQKa1Vj5AU8ULtbG0IAStOBfHRkduasm8SDYetTSQzaDzqIXkq4fS5cpA0hkzoLTeDKQMqzdndGpa+WD+Lpc666AHbdepZ9QMyo1BVQPKTl4YNGxGLoOuBlTdvhh0xQbymtagBsRPvVi4ykHOb42b7GQq420GVHFMR3GaAcYsf4Da7tD/xBmlsvuFG+j4iBeOpmOhuKbJPYGYhuky13VGeZokr1xnlBdCe8O3T5AapQ6s5NaBcIMmOv7/MRAJhm0mTBOnCgZWy4ZmaajibsUgNhDh1mqCkes7BEhPgbfTGIaS2qutyNmGhvbGfqYrbWLpCaa63aUnGaVhlsRNl2IRU2cGMq3lJplu2moqLD6bjmu0RBTHULUZlzunJ07garkxcSfT07GVM6aidZbl95mrIHFkOWOH0AxkHcyAKDUzSPKExAlT0hNnBkSSmUF1ddZNNaqFWWCvEdUZLykXrXRUfWjmRpgZiOIuTc7vgzLLViAT1TqDupnUOe4GV1E3bN4Pl2ykintpTGW7U8GkbwyV36z+AXGJTpeY8h1LpoKddMfDTUd60fZeTJ+Ik3nzjaNceObhyKA5PnRiNjOaU9UMZMmG863xZmvU/UA+EagU44ZrFMWCRf44ROdPBtRKG0VphJgx1zCD4gxI2GsGqt5MGLKGVzNHlFOYQWlqgP2ZrPRmZA5rJDdL3OE2A32lgC3ZkTSbYTZnONn6xBJotaS0hYKrFrSKG9ji7nPP7h54yg+7u2swUPLZhx5/dtu9+5YaSVR612B49Dhf45uXuJIksDf9/YYSntXyLYKnerK7LKxhMtyLctcV/XV3x74ifbNa7sICcIs7a01fsMXnJQOF94OTJBRMLLpraBSWtEztKxUMNq17CS15oCUJcZJemJ/WVMKWMe1v7r5GwhZuc/uTC5clyZEUBCUnS/KjEhWULBWV8CT0J81JQhJLupwkitu3XnKV0N96SVf6k5KxxJIxJ0lLLBlzkreENIqX1CWsh5ZkT+efbsosSaCuL53HJTnU36/8+0XXi/qX1TdtsbPtJZkJmTIv+UwoafGS0oQ8sJesJhQLeElsYsmnk9zyfvCS3hu8kwzf4J0k+RYf9bwg3kmqb/BOsn2L9/ND8+8k5wkZkOou7d6cRyeZZ3XKIvPcFQ0Yr5f8c3zxVwoSXmnyVxYS5hv+SkTClpq/csHxdF3p0PehcrhUnw9Qs6sUzWdYMrmuvMgFaCSTihMeFIxHJen8F+xNlKj+qvJ4o/bTKzIeJWj9UrHbaPiq74PrFfwVOupAZddQapgvGV7eh/uxhpd40e+u3Ml+6KhRWuoFlUASp5W7doa4qZK7sp0D62vDC7PIypsl10iCxyuM7rwPrO/WFU+t30nNtK6QqmQS1zdr/R5ZY5/dRxgiX8rK7kRGlofk6FSZ/F2IHF4oGvFeblC+OfJFyYfW6Q/SZWvWkxqQZjK59vn6FgXfv9a7cXXnkl4bDHfZrWKoWdfa5ZWYW0hdJV9mMOjzAu6wRWZfkmtrRXYXy9sKITcw313qQtGuTiR4ln7RfYQBP/OQtb24bsHwZx602RF5ayRX09x+qkKfwFKjFNXLr7SCtkZ0aWnmL0+80n1SovC4CnUYNFQ0Rve9mhUa6Hs1030yZCJ3Gd2Jy6zwjU62ljn7td0v2UjmGx9mIOHHAhLxwdHVWxaxqXcRq+4lS7FopWNR+UmpvHDJ3XKZ2HRaAcqpGOgAvRJ8kR8b2kZuvLmdF2sT+6OuWdMrkhqu6Ty4+e9y7NExpEdVJk4uAoPWmLPhdwaC7rmHMOsKXxRPSU/QLfpQWV3gxbU8FFBXeGnfBb44GlxTZ2KVEJR0WwOGDed605M1M2F3U88LgO8f3IQSS+QUZ0uZhAvg8cTC+vcZ2Bn885+Ou8PbPx7fqfvl0+fP75+5e/7/+l07+9P7N/Hyj/8F);lineShape=1;strokeColor=default;" vertex="1" parent="1">
          <mxGeometry x="126.16349084086414" y="233.68336951448111" width="664.0245809870753" height="118.77323391670213" as="geometry" />
        </mxCell>
        <mxCell id="myS2gV9JtSQ1_vFFmcrn-16" value="" style="shape=stencil(lVfLbhsxDPyavRKiqAd1TtP/CBCnNurageO0zd+H28XaK649RW5reUYSX0NqkIe37dPrZojh7Xw6/tz82T2ft4N8G2LcHbab0+5sX4M8DvLwcjxtfpyO74fn6ffr04gcv34df487/J14rRHzyIrhY1oRSvXfwvcJv98dFnitpK3DN9IM8Ewld3jOpHyfUCvlnhCZNAFCouYItoUCQqSmvclCoQFCoJB6glIDVyqJau0IKc8rNwk5e6/mREHuE5Kd0NtQBJ5gJsaeYH5jYIPlAfdXUoFGcyHp49AidCtH4t5LTSkBo5kpxZ7Q5sjcJgTiFSGDE+z84PFaQKApueQOlisBxG0ursUBLYIoUCkeX5DFFMXjGcQgkLAPQQHVebHugq/UgINs/+TxAuy1+zt1KVRRllLNHi/Q/7l4PKqz4sWoZWivJdDq/gz8OWboipCAno41UD2hIUJcnVBnJ9wj+BgoRWQDzyFaEJBim9FlVWYCFNuqnD0eiV31PW2sMrB/viETDYnpjSqryKW+B472wqrxWaewZ4Y5hxd4BvZa0rn9K5TFr+LTakZgCsCfYwb1CaEmfEC2zKO5rwJr6hVYLLZfTygRClGy9tdfKdsWgJADaZ9E1qMLCLL1fOm1yKYKpBVZKfdXMquQVhTzen+C6Rka1mxuib2XLPSK5FH97MWJBFVmmUeCS+CoAq9q8VJhHQLou42npS/9APuH6tx+r3ioRIFScXgG97cRyJUOng+akFaPBzlh7SiLvw9IOitcN8oGOHKZkIj3pyJ7G0WXEHM3uYdXcXi0/2K+uqQoDthFma94NMV+9T30f7x9XB9fL7v9fnq7Lf/3jzVbmh568vgJ);lineShape=1;strokeColor=default;" vertex="1" parent="1">
          <mxGeometry x="430.1460617757848" y="103.22020344677821" width="15.328528538472304" height="46.72109550041757" as="geometry" />
        </mxCell>
        <mxCell id="myS2gV9JtSQ1_vFFmcrn-17" value="" style="shape=stencil(lZfJctswDIafRlcMSXABzmn6HpmJU2vq2hnH6fL2haqqESH3T3yTRHwCsZMD373sH553Qwovl/Pp6+7H+HjZD/xpSGk87nfn8WJPA98PfPd0Ou++nE+vx8f5/flhkpyevp2+T3/4OXPcKIWJSuHX/CWS1D8fPs/yh/G4lq+UYyevJArkC0np/6/EASoQ6QAOJO3/QE6kPZAzFaChJGqpA4ouTrgK1EK5dkBjisBJTSlrB0imBgBRar0NyhSA0WpA71ZtpECDAdIbrUIlAUAo9olhvwhIwz8TV0CJAAiLE1eAZOCl7L0UQ6AAImeBiOpVKPCrBVaLBxoAqlLNHsjA6lqpqg+EMs6+TeRYIOBtaEvwrwNCKXsA1WhLFJyGCrtAq4vXV0AFW5JEWTyA0lWEQtpoADZMBRY3NqD8Nhui91LCNcrsAZRLq2xehxpUhC1L9QAKhBkR3J4UJpPaOIge+Nt6rgfC3L7RgDqTRAp99r1b1WXJnXXjQP04kG6KtAC/1rZMkBUQ8YjwbcDaK+obtwLFEtz1DaaM5mLzgZACpxbzks6rMZcBkKyB923ABmlGM8WHwSZ1RTui1OeeHQUU9NZIfNNZI2ymLiyeTXXio1JYUuxNHA2GRLEPl9kKNmOeEycOG6qv+0AMxGPytlqskecrcXXyqIRtWfIt8sUPcrwfi2T0+0H2clqmy8fcacfa0IaPR8tOtbXfD06Gm4/l78rbw9sd4Gk8HOYrxHrd3xns03zf4Pvf);lineShape=1;strokeColor=default;" vertex="1" parent="1">
          <mxGeometry x="432.878777275341" y="149.0931224395723" width="5.472414720979941" height="54.29496738183538" as="geometry" />
        </mxCell>
        <mxCell id="myS2gV9JtSQ1_vFFmcrn-18" value="" style="shape=stencil(lVbLctswDPwaXTEg+AB4TtP/yEycWlPXzjhum/x94apSRCreTm40zRWwwOIxxLuX/cPzbhB+uZxP33e/x8fLfohfBpHxuN+dx4ufhng/xLun03n37Xz6eXycfj8/XF9eTz9Ov65feJ1wwYjzFSX8Nt0I5fL34uv0/jAeV+9joCrN+5Ao6m1AKhS4NaAU5TagMMXWoyQkdhugkVJoAFnnmw8BlshaDsqU6m1ArX2QrJICDg6o2gCqxy1DgKUWkEhAWKtRsRZQKCUAKFRa0v4JQYBIVlpApYRcYtI204GZmEEiPE8bEwpS7Zn7l6cVCQMkTHr1VYVxNaYcW0AmiUB9nuqOg1BFLvGcpwXAVBBgU3JmlBGHNCd2ARSoPs9DaOVqGXJwj2PtAQW0DRdTtt6lgCqobCx44lCNWp84r1FGHBaprWo0AAsrNS8IpwX07SZCZyKTojagPWu/UWQhbfqG2wRydY6qPaCiGvW4ygaA5JopxR6AKshr1EJP2pBceVbzKqxQ358FFOujpEoZkPaJo22USoLSSGkWwjK0mAJwKXKfh1hIgIVQ+rEoEYpPKHWTXYhBiQbitvEFhjHiTVciA71+U2wKG8Zma8hwLQnzSrFEkxT4LqStpoUi2DASlTb0YW6wH8ut30ecDIjMUk7vz9GUDaGfywwboy90bN17JGUXWpfYQBHMgs+unP9/74f3/fZpPBym9Xj9f78P+9W0S8f7Pw==);lineShape=1;strokeColor=default;" vertex="1" parent="1">
          <mxGeometry x="451.9243076088112" y="114.0681048965788" width="12.529865973937346" height="17.5172984785764" as="geometry" />
        </mxCell>
        <mxCell id="myS2gV9JtSQ1_vFFmcrn-19" value="" style="shape=stencil(lVfbctpADP0av2qkve9zmv5HZkIKUwoZQtvk7yvXs8DK5gBvxuyxrudIO/inj/XL+2pw/HE87H+u/m5ej+vBfxuc2+zWq8PmqE+Dfx7809v+sPpx2P/evU6/31/Gk+PTr/2f8QufE06YiXmEOf6aXjlK6f+L7xNgu9ldAEqhKt15EUr+OiBX4tAbUEABAEeSOoB3lIGFlCi5DhA8lQoAgTh3gBhIMgA4Kr2F5IkdAHhyPSAzCXIpkvM9IJEIAGTypQMUoYAsVBIDSFRQ4ZhKX7gqVEGWxsL1rVEzORCDWjBZqoWEYeFysoAKADGRqz2gUgSFC5EyWwCy4EPz+MSHM6UWEUqwLNZEAWmSJYAPIGpLIM1SitfPzwudoUPcqno6n5ooLOeoeXtxnkHnaTr6Tq2xlXE5QbWx9wTQRgEJ8mzZpoAAMhSkNcGdgOioxkdcUolx4ZGgU6FcZlkFFvI8Blw2BTiTVtwXKsTVxIAbL2ofz+iJOjssAZBLvtjxdpOeicJDCiCxeXCnxuQZHbCIyYwOWCVnE/2GDD96XtvC+IPnglKhl6Mbgye0f++cbNmOnXF0gvxUCmbUMpz+whR7HihZK9IjIe4zFAP0SBU+9S2hG0wGxJFEueeB7kgRAMYm6ketvvEgBs2SiUGjcsCCTxTtIulAVkdm9mXQtRA4pBLszeJJgiQ72aHA8Puq2J7NeQ+6dNQu+324u8zEEetQDpSsPwziLTOZ4DZRri3y3p5HHVS93YyYKljjVURiH6+0Blk+X1t5zv3DkJVLN5eHAd1VRx/OF6W3zXY73bMu/7cXK301Xcr88z8=);lineShape=1;strokeColor=default;" vertex="1" parent="1">
          <mxGeometry x="463.00576060266303" y="140.7368075667522" width="3.4273090501429926" height="44.20064621184981" as="geometry" />
        </mxCell>
        <mxCell id="myS2gV9JtSQ1_vFFmcrn-20" value="" style="shape=stencil(nVbLctswDPwaXTEkwOc5Tf8jM3FqTV074zh9/H2hqlQESt7O9KbQ2BALLBYc5OHt+PR6GNi93a6Xr4cf4/PtOMingXk8Hw/X8aZfgzwO8vByuR6+XC/v5+f579enKXL6+nb5Pv2HnzMuFApxQrH7NZ9E8vLn4PMcfxrPq/gkFJ2J94kCAORM4g1AHDl/H1ASCRtACJTcfUD1lIulkMkFACjEyQByIJ/vA7zTlC3r6kjwFcmSqEIBsK6Boi1TTeQTKFMhZ1nrnX8Ltw9Yyr4AKiXAIXvyVhqrOuyLgylwf4UAEjFQDhaQWzN3ASrX2pGIUH4hUrQkKreTe4Cu1aW2EdkH5F6vquCASDNxtgChAuQXtYhiAZ4qqFLSIlqBa/MrSCknSmUDANoosYlznRLSN5O4nnQGpFUIkvqyIn2r1ErXh9qs5x4gdEPNeEZTT1rFJ8iZHIWNvBNoXGEqttPTAIEbJuPaAGoF0ojEsQeglNRL+xtKq9s+wDW3XjkZo5nWvtp5UK+EIxqodH3QQgPS/wNI1may2gzi4HsT0KFFHERXlC2rWhuDeeDaTGXZoxFOnF+WYAOw2gyY6Y0teW67fjfetWH5WA8UAIPNDi1whXpylq+qCISrZCzbgAenSXIpTuv4fjJMrisOMRCQFj/ZdBwcGk0/xS4ebVpVQ85dvAf5q1a694ijjNamo1I7vgWYr25NtnwFmvXusxN099/PVP34eOO+jKfT/ERe/96/ifVofk/L428=);lineShape=1;strokeColor=default;" vertex="1" parent="1">
          <mxGeometry x="461.65432465696153" y="186.69003387634427" width="5.850420240580959" height="16.815258561050385" as="geometry" />
        </mxCell>
        <mxCell id="myS2gV9JtSQ1_vFFmcrn-21" value="" style="shape=stencil(lVbBchsxCP2avTICJCTOafofmYlTe+raGcdtk78v2x0lFvaSyU2WeQs8HqCJ7162D8+bidLL+XT8ufm7ezxvJ/42Ee0O281pd7bTxPcT3z0dT5sfp+Pvw+Py+/lhtpxPv45/5i+8LjhJQGlGUXpbbhpk/X/xfbHf7w4X9rVCzoM9KSReB7QGJAMgC9S2DtACWAeAEHAAwJQguRwKtBS4aCBtAGgCjGLK3oPdoARZC2QaARU4oKkaKSNNqsB5HSACafRwwcNNRCnA5F1QEFMuUNUngbgOYNMOjwCGVgMAg44emkILsmYCHWmyUucIULxeGwKWIGnshe0AkzwHHZEVyph0zVACMRUFGQVeOSxcTVceCBoF6kugxYeUIrka6y5pCXNQ8VoynxhoyaQmrnA5bAgDFBwBDWpQOJsbOgKU+s1a0uT6QcJKzymOtNogieoglvQoPstKA7UW+x56gASAbJyMWrIW1Ujeqdf1HVAgBQBrIHQhIdAnLeoKJ6ABS18GkICM07hQH7e3N4QCjnXgGs57hDKyijaegw69WkDIUANxpz53P2Y3SKA86oy/t2cv+20ZeUKthhE9CMnt9LBxsPrmx77jb0ef+/7u9pZ/tBUQGjv7aD7yVSMnyEE89gBBH78E/Ji6vHxCuRWTLzv+axDPV99gn9vb4ePB97Tb75f34uX//oFoV8vjku//AQ==);lineShape=1;strokeColor=default;" vertex="1" parent="1">
          <mxGeometry x="431.9376527808804" y="204.41531686804763" width="4.556526750018685" height="11.21419251548873" as="geometry" />
        </mxCell>
        <mxCell id="myS2gV9JtSQ1_vFFmcrn-22" value="" style="shape=stencil(lVbbUttQDPwav2p0OddnSv+DGULjaZowIbTl75Fr7EYCi+HNcbTeI+1KOoPcPO3vHncD49PlfPq5+zPeX/aDfBuYx+N+dx4v+jTI7SA3D6fz7sf59Hy8n38/3k2R09Ov0+/pC39nXIJKE4jx5e1Fgt7/vfk+xx/G41U8C/RkAQiFtwH6PUQDEAHBbUBRgGVghhIAGgF1AyAECXLoGdACELAF8QUyuXiJ4is0sSkDlSC+QWcT34CCkvYOpdqEVca0DSBEL4LWVCSkaJZCECgQQQFsayoVOGJoywFWIzH0GlbVqZYK1IghQ7VJJ60rBYDkc1CGHgkngC4HgRQxsPe2rF75GECQ2OvQIh0IOFul9ZBRDgTZ5kB54dzKwTG0xY5bRRLbPQI5MKuqUGzKGMcXX9PV7Fs+SvY8FPuuQbauKEsBtjohue7keBx1P1KpQ40Z3ly5alzjEnWvsaTPci6uEyhOunqGlOPmLEC2SqlC/zIg8GljP2CyzvGgE3TxdGvsigvn1mpzVVLOEiwG3bapGYA2UzQvMrCNv5rkHx9pWWQrgUofpMB+80xCBvEEzWas3RqtKvK92bQ7gvOjH3dNliG+EY/WFLWCBBq/24MqcWRTBLbnUZNweJ5q47OunKBvyM+KzMsw2NDL1UdXWgv0kndtWcKryFevg5/H68P/u+fDeDjMV9fr//1dVV/N91y5fQU=);lineShape=1;strokeColor=default;" vertex="1" parent="1">
          <mxGeometry x="437.21719662212604" y="212.87580262429685" width="21.87659948071275" height="3.9764864301978693" as="geometry" />
        </mxCell>
        <mxCell id="myS2gV9JtSQ1_vFFmcrn-23" value="" style="shape=stencil(lVbRbtswDPwavxISKYnSc9f9R4Gmi7EsKdJ0W/++zAx7oVwf2jfH4Vnk8Y7iIHcv+4fn3cDh5XI+/dz9GR8v+0G+Dczjcb87jxd7GuR+kLun03n343x6PT5Ov58frpHXp1+n39cv/J1wMVDjK4rD2/SGhYr8e/N9AhzG4w2AE5XYAxgAUiJtHhAph21AYYrqANHOTNuAmoj9CZFiAfGVki8hUKzb8Y37eKOogfhMtSsgkoACmiXUNYFJIgA0ql1GmVLGAJ9SapRAEyyl4lOytsCiS981FWpAF8aqVgeokRpqc6XqU6pGNEjJdFFaDxAkjEBVPCBAllRnYS5Fm7ZBDbq0aQbkRopOSLNXlsYZ0YBWA1RPqzAxSqlQ9ilFkwawgzYSD2jEoITK1LwyzE8K4pWCJzVQQFI1t3fumT/wcbwx5CmtJMj+2sso1pmBLbMlD5Blyn4IiGGpcOmyTU2gVDsi+i5nmyHIbUrRn6ABTuFm7vVFKFZqC31K5raAavgqQO1i6IRnADAAjJPOPMZbAXN1fVfdtOaT16FNTgZFrC9ca01FdiD2LNmkVVR0fzVYJwsQn/SD3uZsBkqK/U1iY7sCu4V5nbi9F0APVlYomRjkv4rPhRjwuconKWVg/1W9YhoCDZb++zZ/G4hf9Yt1nuBbeujWqQR9+eUN7xMAe/i/UD6Nh8O0j97+3y+g9mpaXuX+HQ==);lineShape=1;strokeColor=default;" vertex="1" parent="1">
          <mxGeometry x="455.5518284299135" y="209.94732093644586" width="13.897670533764039" height="4.116928579568563" as="geometry" />
        </mxCell>
        <mxCell id="myS2gV9JtSQ1_vFFmcrn-24" value="" style="shape=stencil(jZbLbhsxDEW/ZrYEReq5TtP/CBCnNurageO0zd+H7kATUx5fdDevMyIvLylN+vC2fXrdTMJv59Px5+bP7vm8nfTbJLI7bDen3dmuJn2c9OHleNr8OB3fD8/z/evT5cvL1a/j78sf/s5crhTyhRL+mJ+ERJH/Pfk+A/vd4Qpo9jo5IEVKAQCNYnFAVmoKgRwcUAwQGFL1K1SlCIBaKUcHtEAx3geKAdUDhQIAciEWDzSYg4nYeAQSqENUSj5pk6GBOmgkUa+SrQBykELVW6MGYgQkCkPhAilIWjKJlzUbUEEOgcQXLglJAYCZrzkgmtAgh8S9rgvAvUPWKy3EfgWtFIG9S7wBGuyHGqnWMQdkjaZd9UWlQBmo1Col39OZu+FXgcBM7O1ajEAxFUqD+5gUxWRO8DJZ17YGZJLRG9YQyN9mztseVeSN2htsmZVfOqw3qU2Jm7mBBo3a3PCVMB2QOaR12ReZYv/FXSDcAMDgsbv5yn0M5kygMNi7wCFw4yTlLtqd75uvmmiv47qkVH08waYOEKhS8TYKTAL0sf1SfAJ4AxUZ29kqDOKxmafeEtzH7Hq97DUP30OP2t4mQzwZ/D/l7uDFEH2fWB+QVp6hB2Bbrp9IQED/cYSxi68D0Mtuv5/PT9fvxwOTPZoPW/r4CQ==);lineShape=1;strokeColor=default;" vertex="1" parent="1">
          <mxGeometry x="466.7867977113201" y="205.06973968290322" width="3.6276538894438497" height="4.408570160546239" as="geometry" />
        </mxCell>
        <mxCell id="myS2gV9JtSQ1_vFFmcrn-25" value="" style="shape=stencil(lVbLctswDPwaXXdIgg/wnKb/kZk4tSaOnXHcPP6+UDVyDUaCqhtNYwVgASzR0d3b/uF11wX3djmfnncf/eNl39GPLoT+uN+d+4ucOrrv6O7pdN79Op9+Hx/H368Pg+Vwejm9D1/4HHG1oLoBFdzXeBMifPl783MEHPrjDcA7B6cRJSKHZYS4IFYADii0DOAK1h7q1ecsoDBc1oCEnJcBmUBFAyq8XwbEglAV4IaHWQR5RI2ojGBk7QsyaQChViNreJ00FxSjDn6q69VeMuBle9emXDzY6IxrF0z2wnKNRjyEosucJCWDoZCRdEQpTBzMR+RRdUixIhkeEsO7LYBCiLQlJM4g/y1pgyXp5GZ6BlqTAago2sNK3aQvWecwNIbReDWA47fOswY6gJr5tFs7M1KjAPbwCOt543xmZE3TigTI/NRmPkVkjEJ4B98ogB1SaCNa0clZITYy2CrcoR2GlaeBWsXzDDIIKu04e2ksY3a8uE+aIDhLL4Q+7SCa+kIEp+VCNNyoV4xTT072dn1TQuEN9jlPQ3ITj1HfIo+U35AvJ/AWPmXuo/7+SsGqCHYDsDtifhsx3qj/WF/k8G/5eeoPh3F3uv2/XZbkaly06P4P);lineShape=1;strokeColor=default;" vertex="1" parent="1">
          <mxGeometry x="434.1389469326041" y="217.72546203127467" width="2.825554410653773" height="5.5578629661222925" as="geometry" />
        </mxCell>
        <mxCell id="myS2gV9JtSQ1_vFFmcrn-26" value="" style="shape=stencil(lVbbUttADP0av2pWq71Iz0D/gxlC42maMCEU+HvkuptGG1vAm+PorG7nHO9AN8/b+6fNEMPz6Xj4tXkdH07bgW6HGMf9dnMcT/o00N1AN4+H4+bn8fCyf5h/P91PkdPT78Of6YS3GYcZuE6oGN7nNwmQ/r74Mcfvxv1FvP6dbTxWEFkHpAhoAREhhnVAIaBoMwhEpyQugGIBCFLXARL6kjBC8gAEEvqmQ3EABYRt0xmil0EgWAAViHEdgCFAsDUlhspuikIGULC9WQYwBDSASpCcmiQDWQBHEA+AwHbVLIDJWXUFtqvWI7ySWDeX+wzZAwRIdqx6RMnrgFqhdFNKkNAB5L6HEqE6ClIAWUCSRq9lwJUgqAI5Y63cFHmmqx7hZGDsASqI4gESsOW3Sq56ombg0ouanR5Ez7N7UGtDx2dUo8FSI0a3adVDthkoumNVxf2r+Lw4dU+vJOl9JleXS1pSsWMtqnKHS9p0L9HQnGfN+ropqQaTt2lpvnUhUfQUd3b3LwJKArL2PW3GceN8ZTMX7rmI0MVi10Rx6YqpUec8JmyMX64Jiu2hKB0dLhHkK/NGZ9Ga3e45pzaExfjQu1iqjSkr8d3Xh8TlkcbbgZJm9Oux8ldxekaPvanqRsThhJq6lSa3haysi7t2QZzpqJ9a0QS3GAy9Ufj0RP0O23h0h//dS97n8frw/0b5OO5284X08v/+Bqqv5tsr3X0A);lineShape=1;strokeColor=default;" vertex="1" parent="1">
          <mxGeometry x="434.06203570352636" y="221.98335641794893" width="13.830653782984443" height="4.273624295912418" as="geometry" />
        </mxCell>
        <mxCell id="myS2gV9JtSQ1_vFFmcrn-27" value="" style="shape=stencil(lVbLctswDPwaXXdIgg/wnCb/kZk4taaunXGctPn7QNXIMRgZLm80jSWB5S6Ege5et48vmyG419Px8GvzZ3w6bQf6MYQw7reb43iS1UD3A909H46bn8fD2/5p/v3yOEVOq9+H9+mEvzOuFnCaUMF9zDshIPG/nYcZsBv3FwDvHJxTiJIR8nWEXEGsAEzLpasArmB9Q3XIBqAwXNaAhBqvAzKBigZU+HIdEAtCVYALHlYR5BE1ojLIKMIXZNKAuBC3XjW8LpoZKRgXLBWe4/3Cwmq8a0suhFwNjpCDis+iC0tJhKKfOVVUo4CQkXRGKZnKi3457wwIYH8dkBje9QCEkkg9KXEG+Z6iRcmNeyZajWcQJRd9QzkTvQ5gsK5hEobxcFU4iT3K4wBq/GlLO8t5TQewzSPPlDv9mZE1TTdagPinNv60m4x38E0HkDZmAEKb0Y0+2duIe+MDfNengZC0LKSleaPebw3PBzjDbD62hJZFJuv5i061/YVPo14iuCahxazr7SUi6HhbctIaSumIF6PX0pFPEbq5o15OLT82n+L75qt548FqRtS+v6GI7mnkPwCy+Bp+nsfdbp6dLv9vhyXZmgctuv8E);lineShape=1;strokeColor=default;" vertex="1" parent="1">
          <mxGeometry x="446.82959271959635" y="212.2105607731363" width="2.8235226696434155" height="5.939165090440086" as="geometry" />
        </mxCell>
        <mxCell id="myS2gV9JtSQ1_vFFmcrn-28" value="" style="shape=stencil(lVbRbtswDPwavxISJVLUc9f9R4GmS7AsKdJsa/9+9AynpbLc0DfH0ck83vGkqdy9bB+eNxOnl/Pp+H3ze/d43k7ly8S8O2w3p93Zn6ZyP5W7p+Np8+10/Hl4XH4/P8wr56cfx1/zDq8LzgpJm1Gc3pY3uVKuf998XQD73eEjQClHQDEq/TagJ2oaAKKkCQA69RIAxlQLBLBEQCNBgELdAqAzsQHSlTSS7koMODTfr0eAkeltgNja9YsOKVECn6iFWoqf6FSBECVRHVg3KoB17mQDa28cKCkz9QgwLykDQCLhCKi4JB7N1DoVILVzqAOgkoGS2N0XS2qZuEEdUlROOyWgg7SxJDUSZKZMquMXBJjJm5jjQLgfMwC4rhpHriklhiOXcxTOx1yQ0hc3XxBCBoJmnrAoxJwkQAizMZm6QBLOUYeBMJh96v6OQngfDM2oUZUrAPhCqaPUXhKDvvKV+5x0Bu7zeLc0trUjQCIbZtS9gWb0swAf+UjBw1BAk3h0d8Epc+W8LOsON9YPsZd9AIGPfNoGvjAwfHZj+QLPnqzrwbGuZ2gh305jORnGUREqcX1a+fybrazH/ft6dE6J09NhfQOJrVd2YNjOOdpiFFV4+Dcb5fJTEMUKU4r7u8EV3ZA+faX6P8Af3m9wT7v9frkAfvx/vPH5q+W2WO7/AA==);lineShape=1;strokeColor=default;" vertex="1" parent="1">
          <mxGeometry x="457.8821776529087" y="212.71417235753006" width="3.335259001540431" height="9.484731583563565" as="geometry" />
        </mxCell>
        <mxCell id="myS2gV9JtSQ1_vFFmcrn-29" value="" style="shape=stencil(fZbdcgIhDIWfZm8zQAg/17Z9j85U606tdqz9e/tmZ0c0uJ47xP0I5JwEBl59bp8/1kNwn6fj4W39M76ctgM/DCGM++36OJ50NPDjwKvN4bh+PR6+9i/z74/n6ctp9H74nlb4nbmSKZeJCu5vngmZ6jzzNAO7cX8FVKEsBuBKrgKg9oAE8gkCbLeUhEoEQKSUDZDLeWYRKIl8MEDRmHwfyBrBG6Amyu4+kDxxMoB3jhwgYu7TVAsVkFcWCs4CTBEoF4RctKeOxHIf8IXYpikHikAIf+MNUW94AGSSaoAoFIE3AlOyeWU+p2E5S9yfQZcQILVuQOwZdJNoS9Ls3wA5u2XZTIHECqeJ9kDpSaauRiNVcAY1QhdBzeLBli5WazpkSsBLV25uRaqWRyFawTQzRRIQYirJzq5atkBqLfouwqUxLBepthWb10vrWZY6UOAeyKCCtDV625mm9gmUC4Wc3VLJMMIE1BsA2FW9JraVlQB7n3c9oMKhCLEvIM1zBPZ25/umNQ1tVEC2G+fFCC8g398O2hNQuQlVu752DBfA+q0ptnqO5JFmeuIuo9DY7KjY71UxdJV4EntifPWorW++R/dC4t7V3DlIB5cHx2bc7eb3yvX//QNFp+bHDT/+Aw==);lineShape=1;strokeColor=default;" vertex="1" parent="1">
          <mxGeometry x="458.35722279276365" y="220.36230129143564" width="3.222441222148424" height="3.21740428714324" as="geometry" />
        </mxCell>
        <mxCell id="myS2gV9JtSQ1_vFFmcrn-30" value="" style="shape=stencil(lVbbbtswDP0avxKiKErUc9f9R4GmS7AsKdLs9vej4doJOZtFgTw4Dk9IHp4jaqCHt/3T627I6e16OX/f/T48X/cDfRlyPpz2u8vhqk8DPQ708HK+7L5dzj9Pz9P316cxcnz6cf41/sOfCZcrSBtROf2d3hCM3/TzdYo/Hk538YWBuolHhirbgFoguQQFWtoGCEJJBsANelBSFxA0AKlAbRuAKUGyKaTPSddT9LnHGdAzMAWABuIADCUCKCmWV/2L9zfrgAStWEAPu1ZSkO3kbjxsTYKTT1FxG9AaZNe1QOYAQNDJAiqkGgAQxJWkeg26VgBacShxGGfolldps4LXAQXQTk4KUKBXZam6DBlyPId3/S+AFDpCR83dA2qkPvTa0JwUDE7VjK4kghRIQ4WAznIfGKJDs+eGSKhvBXTbQ1/0u1VSdeIrwFEP7KWhHk3B2aeHBNoeNGcPaFWpNadW7SqShrJOHiCR42R28F1JEnm6rFhUIj9koOppDQ+BzwJYLW/nUNVSAYCqXylFHRIYKCM0WxIl4GDSWrCNxwYckJQhWfvoFuWggyX7Eq8cBO75b8Hhsi424skOWWaK1zcosB0AgwRnKs1c3O4YUTG6vW3xOT5agC33aT451msnQHHxkYmxegPEW1N/rsnFh1rTHehmGy7Zz97YPo7Xh9v18OVwPE63y/vf/XVSX01XUXr8Bw==);lineShape=1;strokeColor=default;" vertex="1" parent="1">
          <mxGeometry x="463.55909928251185" y="210.66663069097592" width="7.926999628230862" height="11.83174753485093" as="geometry" />
        </mxCell>
        <mxCell id="myS2gV9JtSQ1_vFFmcrn-31" value="" style="shape=stencil(lZfZctswDEW/Rq8YLuD2nKb/kZnYtaaunXHcNvn7gNFIFsHoevKm5YDCckFQg394PTy97AZnXq+X8+/d//H5ehj8j8G58XTYXcarXA3+cfAP+/Nl9+ty/nt6nu5fnipZr/6c/9UV3iY7Q8ZVI2fepwclk/efT35O/HE8rXhLtrS8I2+2eaacGz574gDWt5R8Y5DsvMSXBuKRbz0KmQIw8I4SNwYcyDoQAlNsY5AlAm8bhEixjUGcRC7FQmwaAytfAFmSJNrQBk0BVE2KqnipO3CoLClc8aDKpWgZCQ/8F56t4h0ogfBKFYaChXzRfE5AdWaJb6kAOZSg7gN2FslmAG2CHBkgIeGVqqXNUIIyFc1zwQWOir8nIK/XR/4nSkHxDq2fiJPKZ0EFTuSt4qH/iVxRPOr56o8WaMJ8jIr3OP9dw1iUz0ysBW1QfvKs9xWPG0zlx8w7xhYfWfGMN4isN5SE9V+6et3htX7QBlr90f1ekH7KvN+s9Iz96fsF+/MtPvP8ehmTlOI2L0PUtLxlCkCgdYiqBvZzS3w9JaMeq55hiuR1aVugLgE0Kg6ktgbRwE1UQnStQZK5ibJEoRVRTTP4AJNtRSSHoYSOHmTaItc2RRHrIVNlAlTRnWzqnAX+i8ay5iMQhSObNA/H6hzdii8gP1aLejWXNwxM6T4AAjZ6Kt32gQ2eOx51zXKKWfFobEt0XULRtt6dUkRAERTgu6f7+7xc3H4l9uPxOP2JrN/rXw95NP22+McP);lineShape=1;strokeColor=default;" vertex="1" parent="1">
          <mxGeometry x="274.02648976516" y="317.1972126257965" width="63.805830817341935" height="68.36368423642665" as="geometry" />
        </mxCell>
        <mxCell id="myS2gV9JtSQ1_vFFmcrn-32" value="" style="shape=stencil(lVfLctswDPwaXTEgwec5Tf8jM3FqTV0747ivvy9UD20TslbxTZaxIoHdBcFBnj62L++bwfPH6Xj4vvk9vp62g3wZvB/3281xPOnTIM+DPL0djptvx8PP/ev59/vLFDk9/Tj8mr7w54xz5OoE8vy3vQjl/4uv5/DduL8Jj8R9OBPzcrjTv7OJFxSfKPgu3sN4H4hjFx8p++V48eRCny5TEACoFEsPiCRghRAp9Rk4/UQGgEo19SkLOUSBUJQekKmALcVMoV9BIpW6DEhC0q8QMnFYBmTXNtAAiSnFZUBRQM9bFqqA6OrIuw5QQivDfUAl1yuvevJgSwqIbAEZVEkB2awglADTCqi9+GqgAt1zcdcFkYjTQ0tkKNc7SRQKj5WpNrV8lohKBeVQWlGuHsVd5rrlmyVQG1CAEwtgRF1u6rwpEyNxZMq955Q5KHAFGOa0k6C6qulnagq4SmwA6nPgagWIAXjYyhSQigU4LFfTvtcBYWZSuKVKqT6UdJ0xvVJWBZgVVohTgDGESsNBgGV6RXya9MyjUN6VfLWAjHIoVHsDfcKjMdklVtrAgwCm2B8Rqg1UJj2EuE9C3yCqM9tTKykRoM8kb0+tGFql7x/ViXxPddBhALTj6C3VerZnUCUdN0KftHDjcmmgMf1bx40A5Kojk+urpAONB+oTZ3ulK/Bs1+9ZQIA86FjpzVCmVIItTXOraUztCwtjsRhL4zGXQrbbSWDkc7aiUzwgmW3D0HgB3+eZ1ZrQF8LFm3DkM7Yzd4E9nq0rMzkgt9mIpBMSDjcGg8cyt61e3AJ7kFbGSL8N90t1rybcA90rreYuApv0g1e71XB9uN4i38bd7nwJvf3f3jr11fnGKs//AA==);lineShape=1;strokeColor=default;" vertex="1" parent="1">
          <mxGeometry x="439.4902175191676" y="307.09895109980687" width="77.3286504054798" height="22.195043171286358" as="geometry" />
        </mxCell>
        <mxCell id="myS2gV9JtSQ1_vFFmcrn-33" value="" style="shape=stencil(lVnbchQ7DPyafVXZlm3ZzwH+gyoSskVIqBBuf4/MomUsz3SKt5xFPbYltdTSOfHN1/v3X25PKXx9eX76dPvj/OHl/sRvTimdH+9vn88v+teJ35745u7p+fbj89O3xw+X//7yfliOvz4/fR9f+HnBBaphgFL4dfmhZyrtzy/vLvYP58eNfaLm7CPVfmxfiNtk3zqFcGzfKM7fb5WYj+1jIEkzgKlGAGA7/woI9qZ9QKZWJ4A0SgUAKkUHKCTAp1GI5ytJIskA0KjPJ1T1G3h0ipT7DNDACwAUCjwBijoaxCF1ijIBuMM4MBOXCaCxRydwpR4nQOwkIA56gTK7VWOfQaRzpDh7SXMV5HZmb5/tivv2hcpsrx8AYc7NJ1KimADXglHX7PUHEOSS/P0D5GZZyKz24P6aY0mcfQLfr5XqnHTRqsGuvbC/j1YnkEHSKc3+LHbB/VqklWS2b8QgH7RU5dk+RphwbQmwFpsIXtDV4XO1G6UAlBatzp5l2Sr+PiD5E8ajgZMUUGcAJ8ogKzpbqboCKkwLBfQ5LZSoGV0pk8xuzUpMQJxeKLsTGmROX0p80VxBcRBK8wlKjr+f2Adors5eqkIVufVabjc9oSC3dmoze2qHJ8QQfOuUQB1UYD2iz9mnjS0hN3Xre1cAv/YIVwIkW6vbBzTLhE1zhpRrlKMHMIqcUOvLCRjgsk/fUFCohYIsXkJurdSyjwMkdTXBcgVEWOrHCU5gdBNmR2+Ic2rUVygn5pMtIXCknYRRQERe0gsUD0D9X5MvLABY+voiwxq+knI0ercmlK3d2sGGoq8QyAOiJcvhlRyBGKoSBRRHoGy649CtC6c7IlDzumdQFHM6LAodKYGRfOKvJOgN/w0ovu+ObEWATMnlEkN1Mvquk/QVt9HkGVeiCagjseGqRq64K2r7mE/Qzg5ra1imjGwabV9h9UVCi9XzI0mW5iupqGSQ3m0pxhHPYq14L8UC46Ay1EmBmKBbpXlOK2dBm5blACHBOt2XYkg3lTpuvi1Qjumc4QY3TVRkn3zhFpinOie5GIspzKM5zDXoBv2vc54bzzvMCFWnyS1VbBDat082VWwSAiV1DibsroBqT9ofnZc1zBitQAg4+z0S4zbCwbfCnOAaJi3DlUruDuqdDteOmDVDDTN2YU6HReqAmEp0r/S0GKDdk1iF3uyeMshUrQxu3abFAJ7AxvQroMARdEyobkHX8FDst2Fa9ZGEqb62aOMK4PvsFc/Qomjb5sfPMQihZZsJ3409KkbRM2EzBu0Cgtfa4wAQsmVpMx4AciJYh9zYo4CFZanV4HIxeG2k9mhAWobCMc/A+3v7auP6kb14e6TK1/cWS/Ejf7rvZ8j6/92Yv26vf/xbz9+dHx4u2/3tv/t1vv50+V8B/PY3);lineShape=1;strokeColor=default;" vertex="1" parent="1">
          <mxGeometry x="334.44560489243145" y="273.236944192332" width="112.09903772018889" height="43.63590705713642" as="geometry" />
        </mxCell>
        <mxCell id="myS2gV9JtSQ1_vFFmcrn-34" value="" style="shape=stencil(lVfZbhsxDPyafSUoStTxnKb/ESBObdSNA8fp8fflYrG2RdkT5G295qxEzvCa4sP79ultMwm/n46Hn5s/u+fTdorfJpHd63Zz3J3saYqPU3x4ORw3P46Hj9fn5ffb02w5P/06/J6/8HfBKZU4g4T/LS/C+uL7Yr7fvV6ZF2qhMy/Eet88MEntPx9IGwAIldYDlFoBACXpbyRMWQCgUig9QKkCl0WIe0AU0goAhWIf04SvFBOJ9oBGFUQpGUncAbSRMABU0tQBMiZOE2l/QonwBLuA9kyXAp3OdkIf1hqIgdOFSXuma6KcAMCczj2grl7dBNRCpb9Sk5XKm4BWKUkPMLWCE1qj0PvQ8sr9PUCOHlBAPhig9Uy3QglfqfUZZ14hHgxQqgcU7EN0V7I3QBrz94IHFMC0udiyB6CqYYAwAkBOW9QTD1dCJ1hhHU6IGQIi+7BWRJwSDzwEFCUdxGfSQMTp4HSmGiCgjfLGYVUnPvsEkobV1uIBkIc6MI3L/Rz15n0IyOlGqXoA6g8GqNnzEAAgMBOzR1QkJjti0IYir5svrnOpQmKqQ51psN4bQMQDPqE6udHkEod7asrDnWCYvgqoSnnICEFNKxO7+m3DA2qLxc8Cc9MCAs/s6/fcFgFATf/uBBtPgNPKvuAXXeV1e9pIfhbIDXbqWHwK5QALvpz7wXkAEkoIIL6UpUgBjYkmjT4hosK2aJMr9zxIpQgAlkA9DXbHBupMXrvBOR0qbCjJzyYhrlPj7RCt8TjLAprzWh7O8YE9fahgAvcM9mkjkC1bM/wWg6ode33a5AkiH/wCwDAjw5p+F3NB0qSozhxN5nH998oc0BT9GGK8oUWBUnDmEdw9rUPTxRxpRgdJwr73xd30U3N7uKzBL7v9ftmir//3a7O9Wlbu+Pgf);lineShape=1;strokeColor=default;" vertex="1" parent="1">
          <mxGeometry x="508.91418078219067" y="327.73912563776764" width="38.174792551436155" height="44.47563971038766" as="geometry" />
        </mxCell>
        <mxCell id="myS2gV9JtSQ1_vFFmcrn-35" value="" style="shape=stencil(lVbLctswDPwaXTEkIPBxTtP/yEycWlPXzjhOH39fqBo6JmRtJzeZxpLY5QLgIA9v+6fX3cDh7XI+fd/9mp4v+0G+DMzTcb87Txf7GuRxkIeX03n37Xx6Pz4vv1+f5sj568fp57zD7wVXK0mYURz+LCuJKv9b+LrEH6bjTXwMgUIPYCUp24gaSaUDjCNl3QbkRKH2KQmlcRugiXIPKIEqAEim0qdUU2N1HzCSOIBtAWTilawmdMwAIMTJAypIKSYqugIIurmm+g2AwcUpafGcawUHUKleVI7b8Wak3MePFAGBQBL7+EgV+Ih9/qVCa6dmsmt8IQYuiuwJlEwBCBqLZ1BSy/E+g5FS9YAMABJI1aeUEgAocfYiRSCSGIfsbyGAW5NKyj1AYCXYCep8ZA0GpaSUVkZlRDpSdE4qUNa5w/XWsNLJqNZKq5QGuOmbW2bK0R+hQKZMMXkOI+LQmsNNdRZQPYFGt/9IBVTDaixUpgTyj5Qc3wD5fjbeEnJDweaKoB5fGr/r2AnEwHfKrX1eBxtTAQ1Pq7eRGSuDlDT7oWALoANbfO4PUKiRJTT2tSmwoyam2GtqPRYQTupHQmwK3Pd0aIXe4u2OgT5Z24D5iA9gf3sWuBvDRVlsf3HxAvS03pmz44smmnXCpE5PNHHqakTZBmh/a6W9fxQ6+rOPwf/H28fHy/NlOhyWh+vt//6lakvLK1ce/wI=);lineShape=1;strokeColor=default;" vertex="1" parent="1">
          <mxGeometry x="280.4731239440846" y="384.49767777315697" width="5.695009696590143" height="16.77691578192856" as="geometry" />
        </mxCell>
        <mxCell id="myS2gV9JtSQ1_vFFmcrn-36" value="" style="shape=stencil(7Z3ZriRHckS/hq8XGXvE80jzHwTYMyRmxCaaHC1/r3RRdavKLOtEU4CgFnDfekmvzNg8fDE3/6786dcfv//l03f5+PW3L5//9unffvrhtx+/K//0Xc4//fzjpy8//Xb+6bvyz9+VP/3l85dPf/3y+R8///D733/5Pp6MP/3L53+NX/j33+Xy8dZKSOXjP37/lzTfjvFf//Ln3wX+/tPPzwL5WeD8l5RfC6T1ttKzQH7LFQWaCNS33lHgmM8C463AGM4htvEkUI63eoDAeFsiUN4GfdL5Ac9jKOe/0Bv6W69PAvV4GwUFjud1qIVnqemga+M3tLcknzTeDhpDvf3eu0B/a7TS57o+L1w9f4IWrr4tEUhvlccwnsdQzk9quHBH062B0zpvX/y4WxMeIFnpc/+mBQLncXn+pHNUB4whl7cqAvm29tcC9e1IKpDoDadAV4GDxlDf0mEC/IZkYzhgL50C2d/Ag87VBg2KLASmCmRa6apK4BQoG4GiArS9Q8DG0GC3Xr6h88KVrAJzM0tLBRaPIcteKm8Hv6HKGM7NsnmDbI2Bmu88QKI18uYAldsJfriBFq1DvumIhwslgW7N7+frKy+UnEy3HnymT00q6j7dLuKXAlkFOk1reitLBXAdkm7vU2DyoMthAjxo0a0hQCuddC/t35D6HxxDsmkddB6Smj+xDhsB+6TGn3TYLJGBdSlANt/lJyXefKI1yrqZK68Epgg01nzveu7BEsAzXdRIzO1t0ic1naUY1USBKTfQ5Gu33w7kuwCbP6fAEGW83iYd0a7rcL8xXo1B1EwYWLT5qlozZfK1W9R/OA1dvLKyDrpt7umspkPrb4s3n/hAbd3cqJcChwqUzfYeKoCmQ7qt64PARt2PZQJ0Hk6BZgK0vU8BmyW8dtPNNH8U4FnqNujKn9Rs0IVOXFIvK1Z6I2BjSDzoZtOKprS/YbJF5gvX0Ns9z0N91kvt9Kf5iMobar6dkJdaQ5TxqWbok4Ye0czebl433/bBSFyglyJkIJYxWzMlqd06bpvr+vms10O7XTAvn5etd7suXj2fkj4Pa1CyumS8K+L5pc/DPi2uVXe/L/5YQ8PqfF5cmYamXjxv88/fU57nv9+MmpfPT3k+8XrZ8+QBXH1PhWvQx9tvscGX8y+e3rtR9uoAqDUyUE2cR0xU3bkE6PScutbidKhXzjP+vCdORdTIVuh2IRysTNtNTz1q302o5Fmgn1YcO5+iuUa5XdVfaY2MtXNJJNY4313qVzEu2apz4B0VQeLnaZ0TrcJToD8Pei68EE6BbAIUNThNa7H/J0cNIqoss9Q4Mj71BpkJIx/xhufzMDYhXLvUOlsjp4CEcHvme9aO6GkKYxTNXPSWdgJiCtd5C1e+tM7F/h94sYVAUYGNayhqJgQ4eiNXzylAujWb7g4BfoMGY/YC/gb+JHWr2H4JgWazRMZ2vrkHDwKoyLIqgfquz78y7BZ7aROns82Hms/HMG8h15fOp9nO6KLnW1Dh4cRRWibe8DzoXnbnQa6skTEtE76kKbJNyCqJqly3sMArNSPbe7W3TKpyafhzTbSeI4/z/IZ0HJzuGholXuMWY7oW6JoqWpmziE1V33mjVBaQcObYpB2rmgJ98Y1SdQznZiKn3pOCYf9ssoiyvxuGM0NATlBBG+4UkO3a8i3G9FKgqAAFuUKgqQCpjRCYKkCRvVg4G8MmOSvRyfPeXTTodrNFHgVo0M38z4SmcSSYkwnQGW1qGjdOCobAUgE0+t61yuPC8Sxl3xp0Hpp5uRnjbqdAlTFUzBefAt1MssWfNMVKPG5n8Cv1Uq/oGl8ILExGpaZH9PRpEDTS1Lc8NR+lf08B8XbngcH32N7Pm29mvORcL51eE7m7yfKUpwC5iqnczNR3gY3mKwrpOD2/Qutg9s9pCnRaBwMrnPcDqvt8i3Y+bO9Kg86acagdMz/JTOOyeHub4VoaRrpTVkhHKXymsx7RU4DCyiFggQ3crefePFQAtUbWezoEeAzDPglPnCfUCgcFsqXsClrrgTTwQfPmW7ZwafMGXwcegwQ2YqXpDUWxOKdApWm9EiC/LARk0BzYjHWQvP1x210vD5Ac0YFplpQU13XafDjopNdu30zroWGHcaApvTSIMDrmoqZO6ukCkTvddW+HaQ8b6T02/xAgIxO06a5YB57/egNAvj/PGfui2cB4Hr7HEDJzcchEPfXZGeSjIIjzOqdsg6UOR+VbxILvgzW27p+eGAtptvC4BZlePK/JocqnXiOBp5NEv3/YiWTNeKiea4zi8u951zKvnjc7G6Giaq21jFF0n//MAegLVwRtBN0PLTMQVa2cltnPtrDqxlBTaFXbWLO6/2O9yJNSfXI+j5eMPb+5uu35imnzpFjM0ykiBEYys3ShdXOoYdAzWtaHxVEa3i+H6sM+Uf8cGq097zsC5x2awh8ZMwWHeqWng0bxZv+eijknyyuMhq7+cdOuD88TSui4OUoPzxOkzeenoYl/WLKfo1iWMYvUDs6P7OfR0Kk5LDK4e17u68FwuUMjuvE8zs9hv09u36H33Wib83XY91B2/dBo12iYZfL5LBjsOtReGgnnM6nN3Te5co13n/YGBRC73V8F9cPS9Tq97o0Dmp8n9PS6KesQgTHx9jZlP8PcQwZoBpRRAJpzh2BzWDcZuZGrFIG+yyS2Q9+ACIesyKlzZTZZuGl+PQKhsnoa58KRJeGfFGU/nOdTnF/ZZXRVYJsYlE/q7O052Ldz+dWlAOLAbVr7gVFZTwxuTvTFoBOqvIvEYMJgRjhl3QT4DWq1JEZDZoVPdsYU5az3eE+MDs5quPTEjmW+7ZzHddgIPJsisdKbTyoqMDaJcnG2JqOWiqVmKt6euVrt32Q4QVf/KaoWGKqlBS0V0fLFolCn9qagUhnqcmWOaEbZhEBAF9qctalRmDoa5TGJUhFWUWs0M2tTRbeoJasuZDDYPan3IEAXyj1H97UCWU2ryFvAbg0BqwijWzSSeocNGrbGPQv4IEDRhxCwdaDwRjOwbKoYP7l8A6nKlrVO6BQgfGezErJTgEKUF+vApa0hYNubED+xl+wNg96QrFy93lIpLw+QC5ASmLes+FeO4TR2pgmQJ1At1Bq5yI1esgJgOtNlWhVP5+Bs1/vhFEBvo6g1k7Zg5DT/0BgsAJO4Nrwcai9F7oXuh2RHNKEZGgBpiZGjQXZeaOojYg3PuQpyGrhuqVqMgTOntarpU/B74ihIDQU+34pi3xKGOJuxKhyY7u4GMzvwKHfD+XBVSu+6qQ8MEZ4euVgkB9oXfeo1xQCzeL7p85vf1++h/Or5vCTRmMkjntf1Iq0Sz+v30P6JiKbOPzltV89TyD6e1/knHy++f8rzZKzF87pehLDqUw1Udixifbs+T+dlqk3ONbURYWr6PK1X09BCQv3Ti/G0oH8alXOCkkAQXWTAJO2M+qcuhWJ1NveLgjAYYl2mor4Z+ViMdmChPjxvPIEwpY3fOI39IXG0aWhIIW04AYaGFPYCElI4BbAic9x8h0cBfoPeSokrlIduo7QJKQxz0jaRGhfYlJZfCWBZto/hQMP6Xov4IID5+WHFXAfHIIaenrSJyQ1HZHNJ89RoU+IL/zxA06aVNGQUnQrqAZN2ZRkqBEsyq7GtcH3/qcEkBM4WZmuqADoGafqhlQCdb5CqK9AwqdCHWlwNQSfduMQqmvjDFrhh9CSe15JSGu/5vKKwEdY6DrfwSbMMR1Wgvh5JHfCGvGbDURV4hq+ep9TASIYhx4KH4agQrKgYlnVnJFs8bzc+7M94/tDnN/tNS2g3+03igR0h9qdFJ0VbE2MT53kUFGhKiAK716Y+eN2Eq7sIKg3E2YQTKkm4A9e4WHzlnut8pdXFzdrxsFS1EEKNctGjYGXzZLDWtDTf3PEHSh7kzk/wUiCbAOVnh8auv0KgmABT6RUL2COcfehtszGY01AQU9yvG4GsArSXLgUQ5nUlgAyFV2PA2qKhpaGx+Vig2uZDqOPQBFaYIZutYSuNQO1pzEeTt/dS13dHsHaoZRQCZJMXyxZNZmTrGh3Pk3Ob60KAfKOStC4ndis5hOUC4EARiGLlTpnrMAMp/qw1Clv9pRsMJGOKrHQ1AUrDTEtxQqmJYbti6r4m9rOL1VZ3xAIGE4uYSQdujWJ2QORnyQteZlhtmMCG4o8ii02XYjcAUuE6/a6KrG9yzMbN2uuO/kxc/86Y5HxV2Iap+6739LkOWCo9dbduquidNajwLRpBITkPB5ZGFPPkA+dBYa1kjnnHN9x5gx+sStJLp5sqQR4+oa0YZwpm1KK+UVYBA3PdwJMFgyNR4ixVP3hF926sw7hPu7nxXBg1rAops5vUzSLGwGgUBerzdBVO4/9K6BZOK2nlANucmq4/MFsfpS4auKf1XUapdiCiYRkk6EC3bRnYnrHVwUwjtyzPj1N7Y1L8XhpzdzvJ3wkotRTvYOC+G/lC2mSuqgUTE2I/zxMsla+R7KVco+dCmBkqym/+EA4gBA4TIF97WDqHAa8hkE2Ax/AHER/jAvFB3kszuvTE9J8h4DAXSupcCZAzcjGGgqwCITBVgIjhLtZhAzfylWYM7sVeKhiobfOCE5twk93ooQNewXea4sS45n8UQ9MxwG8eGtyNzQdvCD4uGwOZd8sM+VSwSHCZ67zZGmvpTRInjq6epRiFAAPR3WO2QmoI+1oWM08NM2whYHAjynKEwFABUpXL2N4SUzc+UPE8SBDj7sUr2GcLAcNykmK6mKaOMK6LhegYnV9Wr7AxzC82U0dD+BQY9gYUMMq6NBDLuZphCiZmLsNWEk22cKWnsSplhltPs97uXMjXmsxxUFxLOsyNDIeB8jzGhHMK0IEYxqp0L+B+JSD6/isE7A1UIDc8il550NXYPSsGMkMgqwCm5+rFOmC+0BBysQ7kKV29gVyNizEwf1YIVBUgJXCxDgVjSbHS9klkw4XAUAEK3AzjPIp1gEvuPEAajK0YwxjD1oHvrPNMS1hlw6Z7+sQ6Sx2d0OmNsgZ63dOS7ZHNoL20TC8tNsmMDrSw431OqwaftppPylhL5Yx4s1BMY1/U6OHKJidrwYZTgIzvc9Di7UarFRA4F06gyoXL02bRuGSZaLhO296Fw73rML4gbuu2nAlnom5d1g2pcBpq1YtBU65hGYleCBBlS9WQdeEEy3oH6j8K0LRWxW8Uzsgsa1hWJmK6VzW+IE7hXAhwHvfikxYqgYtBLzwPy7gJC/eiWMZ+eAqgGWqEjIUbPyzjYivcvGLZPV050bXKRWs6IqQIZ7SoAO6lojmfyg3LToFmb0CnyZqu1QNrLlbVvFUUefN5aLZb6WJfVQN9UY3Mn6RqZu2OqGqNhdp7GZNmWWhVLmPSrAycX01jXvVAZPXlGzYL57uVsqzLiGIr8z0tK76oCbGJqyrcsya0W5fZrTXt9JKfB3Txq3qKlStUVrVMMTNprndGyMeVZr2kWoN5vULANN/mQmmm7im6uapm98ri8E/V8rSvONP+SZtLsdqg6Y5rlsc9sCo8BGwdMJhzJYCzdPVJG+29bHtT2vF/IqCM7hmRRMvLyJnpYRmNSRRd0BuMV+4UIIj1Mp7Le1nHKwHxUCpn75bRVp4LR8GcVdSUjr1E29v8h8qVZOc6FLsUd6b0h7H+Yaz/vzHWte0Pt9e78HYXm9LuT3Pt74XHzm+YRqhZmHBuHmqsx26lUIu1RCsTM0cRm5F14EYqHj6NkmaK83lvR2ZJG8YAXzZRaccfFrzYh5VaRdsqGvQ0VcmmQ0QSDfxKYbt5aFVHQIQ5zqcx44Fu2TkGDW4ODgEPtVuD6IrCpw5BamhVDm+OWjGN/5ESuQl8pET26/ANpER0e3Nf9dGtboZ7kETWUo5oQodjGg1V5iLTaTDHSNXSLWoktWljLzUtIQnSPxIwSoDEzfM+8Bc3gQ/8xdVSf2v4i6XFDokrPC8QTBWxwh6WDmAYpS2tsiBxwca0otnEXa0ukGQNFdMFVo3rQruxwQc7ESErpxZhJa5c/oCT3gQ+4KT7dfgG4KQ66MyFyYdRlCU+cZYICr4JrpEQYsOFkcThrfAQsz4PhTowDmE2tVo5UDmXrjJ3hFvWAICpVpdTGnJo1hrVJzS6lxGCM7/nNPKqxHCZpqlEnp/pzMlINRE1LbpeWJpvhKaFa2a8MxDes92Mi4r1eF5TxHySvegBY03aD61RqawiuppfzN/eirHiYkamLg0CLu5f0zQsGT2zYMA1GW8jV/0XIyvZ+Kml2JZIXJlqvAKR56Ia5KkMULt+tlbV2Rr3s+3WaIlz17mrnoudyIWmcnXsWk4PDZJ0rq4NrgVhdRlYmVqM3D/I8WlrJKNAX7j5StFZqtz+qVTrepd2ldoScNuA0op1UCwVOSpKU3KdktF+PAVkljbwwxiDHCBmgCrFqv4ZERkLt1RgR1vt/Pt8HlyA3NQLIoKFN/kF1QHTVgeZgpOLcGd7ZS5Y3Jzng43kvwU+2EguFu5bYyMZigsKARqD0TAFvcKGMMjafJA1nz3EzSW6xfrjZGaWD1ol+aTMPNcGVUoLLdwL3vfOAYl5QUVP93SUDYtfeyDmsk/rbI9fNA6Fgm/5wj745j745p6e/5b45oI/UeeTkn/Bz6h8kciIbRnSjmZw965n3N3CmnaPHfGInK+JYJjg37QgE3l4Rum0EHxWXIceTCBqtl1iDudsmfw9Pe4HxW/+oPh9sQ7fHsVvtjFg34lDLWAGM5eiu5t5F4txxA90Eu5w1ruGpIRfcJTrDUW+XTMwBYctg2P9+XkOu3ZrHs6Q4W4UXBtOf/PrDr7RPnoqfPRUkOe/sZ4KCjrg/dwNQrCzuLwHA31P8uc3OV/FcWDUpFmunqnGoseMUavR817Dwz1srG9v454NQz2OjrfwHX76YGHC+S2WtkqssErSWENKeCKjrZHsoMz0lsZOFhluHoPouMS9nCMsK5/UmA/TuFU3MJfoeGW4GDLootYy6xioYq5WdVUSs1XWbieNe8x5u6Voe0dn03ubFbTPmvHc7QU+mgNuF+6jOeBN4P+8OeAFpxm94TCPqHG/jWmOJiPRqjEzbpLM0TXVoqzYxc4D8Lz5indh4gqh+3+/X9Hc2j13DfFXhipn6wlQGRecjcitMeNlzoZWmJznu2wITWP4aAh9E+A3fDSE/l9pCC3Jzc5xxXsnx/fzsO2orgJsVYaAnOmOuUofdFSF/6FpLXyx52wZXc5gZTNOIsJF5yFd5FspIRXRhKyfRP5JpOKtPI1Cznds9YP2Jo8s2fauBw566azWwS60KvtWuWm2TlH4sHR6NKISPjto7qQRg5HR1zjUiB4ckrMW3oNdk0MVWNRhwh4yD3c0jMdb19jBNZeeo2l4dRq5+mjIgWFgq+3zEpGL74f9c6g5P9h8OdQSHoxstMz7aBjCODTCEEWtcIJNRcR+4+9/tr5GxcqyQzXKKBgiPNR+PM9Lxt8X3+Xe9erVfpDLj7sF2P7sXMF1mEWRUUcfylYSOAX8Hs3pc9O8QwufGncL8Bx9YbSK5bgzurOec88YGUnqCDbmCEwaQY3n6crTCO35PIKeVJ83DkEa0D6epxtVI97x/QRgurCcyJNIup9jvQizpd5WWGY4P/o8I+GT5qwbt+FNF74ZBZmSRWjH5vebuUGkrwyb2wc2a8sX+hAzt2ovTW7QYoUCk++vov7JnGi1VqV5WAeDHtStnEwA0jTvPJkCuut6Tb6PhoLgJ5NuTdW3UbpB5B8aChicoos8vFwYBRV6sthygOxJI2YjMWKAejInN2x0+iRz1Au31ElZ89Snc0W3dgg0FaBrOGWjVOGS+VNAyWgLloQko3oqm4XLWo4bwTJeOAn6FO7ck4wbKgRIeWVFhJWNtnZqGzYnkhcuFQz63NNJjytNbyga+S3M13ApQFmEe3XiY4iS7uR8wbZDTqWfh9rRakxZ1WSrPGh7Qy8YkvF1CMeVxmB8oGNiKeu9nca7Ks4YYUkWyJ1MFnKP6D+8gZzvZAxa8+Bih6bhgPN6QM1nHQvGRs00nda++MRZqWNvXH/R1ATr3DM3Bi2bb+w+SZze3W41es/T6qQCpmRAhcZJgWSMco2hScmIye5JrZd7ycaAXUiN+TVyVDRo42W9Z1RfCvgbeGuoN5X4TBuDVsu7AyTGyT1B+nLz2bTihdLU44+twTHNbC4VGidNYxCtYHw8WfVc4072FwdoYtV/vEG0BufiY9Di9yy2+ZrmWgYHZoNw5XmWJpcXpKGzdCfLfCUg2nsN3ktT7+m1+Npd6t1GyxpK9B164oIRkQXcX8IS2qQXykycCUkXFzuVqURiQ1zcwvVI2WLwXJgQAnKmmWA6ovDCmsrcgdlARZWx/R7nDwFO6UpyZtOr9SKFNTA547P0FQL+Bv6kZtNKlvEdfvc4S5wk0+7I28ygIP5OAbrjPAe8K1r3N0w+cT4GrvvIBsg5BTaJPvF226YIwprbNeaSuuOeH8LUpAROzac54IV5izQVXzM2LGBTLbKIzLD21lAXl5SnpUpgDraMrdPo5Ebyru5n55qGwzyUwkAQi0+OxXwGFpsZzE6YDU7Z+65xtncLR1XZjQDhYL1kFTib3hTZaj0Lmz/F0n654uYryRi3BkZ/SlJujKjxoRLarKb0QB0QbeGVMoVM9Xheqw2xuiybL4BXbjGtx9WSxcKUDZnhAies1bCb3xcLl/VRsQu9ocldzEzi6s1i93/He6pky0RiYvfqeaxluvgewnT6eDv3pk8Kop5o/pfDQNeZsVnGwZSYgdpr3HJHmr3sFCPcdDbQJdY/gELvAduTTb3FZgkUd2drJzMVmM08BA4VoKKIoOIaKoBld1Y1cgqguWO8Ko0p3D1LFwI0rQaUDQEyqIzjsTENfQjYoLFuNSmcuC1MgWTjYIuV3gjYGBBfZoj/xjQpF29gtENOF3AHCr3nfJGvRpOt6DVbuYbHz3RQd9HmawppuTNAvRKQQcc72aBSvtDFLn03GlZuQni/ax50K8Ew7vyG72PgNri5aunhfVQvF874nrAc2IIGhVO5fkQ3vShyUsxo3fhthmaoiVGpSd2wgPRvBOyTyOxxAMqdyu6VgFjCNaGhlJMWHe/foEd0OwblP0s7r0qO6L2C66WAfdJmaxw2S7i9rwTQOLn6JCRzsK2xaU2XzYKLBhxsnMjWKHkX7RFLIG/iScXqUzhGHN6tVMAMvqctS7mpzAsBeUNGQzcEjA4XKy+q1Zxlvnat82LirEyuRumbEargsKC08dCtwWvKXEhRjXt/s9LVWr1nNkONniUxFPDyDRhUruahcFsGvxQjLb+5Ra1+keCbuRh9SuGMhsWIN+z+2QnZFzPdLSsha+j4Ofle4e6RyVhEN52E7vXBjxfKJiUo+QYuFvTUbOWOBp6Er40H3dSlOX1RTHZ1a0138Dp0ayfW0T1ORgFTuBFKMv6LzPWLkeETgc7w1aW2xl21vRLQpjps6CZv8bHYhDOIexpsex/GOsG94QMUf6gAwS1CwD4JrZnD1D23gMqH6daB4SsH6u/fcOED8RiUK2E7S8rGsF0HLbnfrrTSOo2dMnYB6rRy8Unc6v0rBM4//PL9bz/+/pe//PT3v//625fPf/v0+P9/+fzl01+/fP7Hzz+8/9OvP37/y6fzb/8J);lineShape=1;strokeColor=#7EA6E0;" vertex="1" parent="1">
          <mxGeometry x="143.6040504967823" y="247.6930185379357" width="472.55451471275404" height="173.28356985609122" as="geometry" />
        </mxCell>
        <mxCell id="myS2gV9JtSQ1_vFFmcrn-37" value="" style="shape=stencil(7ZzJkh23EUW/htsKzMNalv9DEaJMhmlSQVEe/t4Jtau662b1KcobURFvJ7FxXwGJzJsDEniTv/vl3Q8/v32Twi9fPn/6+9t/vf/xy7s3+S9vUnr/8d3bz++/2H+9yd+/yd/99Onz2799/vTrxx+f/v/nH9bI9V//+PTP9Qv/fsKVtM20UCn85+lf4lb7b//w16fxH95/fDk+biWfxrctwPg8tzLOvx+3kQDQthHPgLmlCIC8pfMX0tgSfMH+PM6A3LeZAZC3Hk6AMrYIi472e/0EqGP/iWtA2nI7S9Um2V4H9K2W0/g+tgAfKFs479qoWwQZxV0gx/i5Dfj9sP91Hz9tRbBpQbXOxkdYr/1+dr8PWxa27saXSuNb1PEV5BNUq9d4nI/s75rPoPGpuPXi+Fh1fML5hK7jA4+X/Yq7mb42Puj4ivMPUcfnguOrjo84nyjzNw1EfZ7n/Rpjq/D7aevzPN44A/Snbu2sn71tHfRzbvUsT+OHMMF+y5bPgDsGmkqKZeIOGO9HIcWAJpnNws8yymwDxsr5rBT2zUwkZzpwtprFY7ALJW/lbAYmhgxiLUV5LpqvAd4qdevDfQHEaoCRdA0DxLqm1FVKDVTJFi22nAvqku1rOu+D/cSENZgLz2frrHUr5PNtm86q0dgczP8JX5v9DALkrZ1VYxRUjeURzlMyxiCPYIqgLqegS7YgQaY0be9BrAYQm56NnXhXizMAaasBQlMAaWtszo8bgCKjpvawAKDeBmhuShTdGaBWBVCEaoDS3D6QlAwQFNB4Dbkr4EZKeSiA3NuakuxDQXtYgKGAdiNWByi06OFcdMCg2Syunm3aTLQQoGzpLNbOymdeNJ7XYDRTgPlyVaqsbKLmgSTuKaat5LIOgzzIeGCgVMP+ewcg4xpq2pn0AMR9VdcA5xQNUED5DFCnAjJ/oScFJFpD3pX55RdA+Qww/RpoSsbVQwEVSMAA0X2BXJYBUlbABG1dAFGNhInwJYAM6GJKpiz8BV10wsz5QqwZXdbFxmV0WfXQ/gNgHoMWHXc3fpho2ZOzaxMd6lCMBChXshAuSjLf0R5K0uzEsnnKtvPUWGNwBcNIJUp+lTH8WbG389PE3vkqOCEyNoBElQagFNoA0X2hcRg63RooB8pNaeYeoDEfx95LN3/foptq651Y217n+NqNu4pmJq8hTwUQa1x+gXjpYg11r4e8pt5dovvJKc1RPToAEb1o8QW3tMfKr7osIYEj/70EtKBrsJ8IsGgjFanhrNwRQoc14/PGrXAF9qFXjchM0ORFu6U0QwEkJeM52ek8eQ0uqly5KJjoqquIlCbSfS+a+FW2uO7qGq3sceb1xs2dIw5dihhV2k5Lzd3EQGto9aIcFcCmbcZSdRicsRtALc5yINgHA2gCXvefeA1Q3ZTo4MAAQjOD8zgDyMHBAgAZr31tbg0s1uAAlGU1F/6sfSApGSAqgAq/Bhhu0VSmuADY3pNY/ZQK+rgFaAqgw4MLbY27I74GOMfeO4bSZqKyBjNRsume92zhBQnQxnUXL9WO6cAIu30dAA7WzeTjmTWM+SiPM0WQeqsBIqxhNJcecw60zMUtOhOgKJEto6UpZWUN2zhi75H20PyFalCwvgIFMVE+2rCNU5suWBMwwHAkgIt2p2+DAywDdMcalDQZQFL8GzI2QHHMN0n5gu7DAvCioyMyigSGOzNaa6DQYe4TeCkl0FYDDPcFJIGp1dC10zwlKeasMvbNFxy30k4vwFQAskZUXlr2QDadXe1+sHofBd8DUPbjzmvA1CpcD3sd4hKwDifPUzKPQbpk2bOUT5dPAqc4q5btWsG0bLqq9ArqCNCVjM2JDUg4pkuPLVYOsNNrSsJLGXd6HqTyogRMqeVz0fpleswAraxPLBctQFIAHULO4k7i557kvAaIDkDR/XS9GQZAKR0Zzw6IIWAMZ4juxDRJN7KmKAsAEZYBql/1jQV5ufIX/FbTAcQCOLlSBr4AohvjbiNyUQDVi56Lbgeg8KLdAYRxG9H3qg4JoLAFdWWyETC3tCVKlLiyflr0UJ9lPEMtZgYYrjniZkriqDufupgiSOlkUR+pxlT6XgAy6qmqsQC0D1PJ1QCRVGNqSLYWTWKdWtjoh495DSCxgwGQ+qbGoQZA1pja67fyMt44iU4McLeGrADsgwmudWnw8df6hI9cWUxKTAEPa5d+SwG1MLkObReaXIebw50fc4XJ/pymAm5YQDuwBtZ/jJimJ1cSa1d1vWNj10Sy5JaYK92iMdpwhbvJ5zQLkBRQiZi60ob9S2K+rwJoWHdYYk0KoPqPAYbrOqG0aemmm9INQGOymymNi9MsNNHh2iM67/TYS1wvADf2oAc7nYMNVypfYmA3qjQzsA63THQogCpMc7guz1sTlcLdPQlo98+4swfdh4EVpmVAjmbQs1+Z6A3N6MZ15tb/A6AWd9TCv5a9A3Y7LHJ3/eM3FqelEO4JWT5Ogo2BpfJHWPkIK/88YeXFTg/O/Ib20JoBUZVsun6KVc8nsR7H/C9IgM78jFTkUGTyWdOjOvPbvzyqM3+a6owPXKnRaxVvJGC6caNVxToyNj7O6s4hb3LL6nxW4PinalNIu1l0VtowQCULSuoVG6dZY7rLMRHzgdEupERh5TpflthhYgY+kiYQg9sSH2d4B+BxhucB39gZ3pKSU29a9NIlWUNg1YjaNNi5edMsThoqjMiwtyDrPrSMKcpwHUn16DB9DSC3lGpiKR1XKg4AX4EY7pZSDdwUEvVotBZs2bAwVdKsOrm7rezlpEOsFW9+2jYpe/NV2ubuQfWjfHkNcMeKpiwkpUd32wF4dLfdAr6B7jahGVNvurBj8ZfQzGphIrEOtQczWkqCVg+VkEDGYL1nzcBvboB2d+31+drFa0QmN8bXZV5yu93djpns2Kt2cJeApZNnnjsACS+BG/OJjysd090WtW5ndE81L/uz9qlkvhw8XK9NxocT1m1ip603d1dk0ZY00a3ux1WUrwQ8rqKkb+AqStdLqZYwU+9ZHlp1GB2vyJXorr1y5/C63yZP9jRcdHFHfpWb1SxKlYiscGeYBc5ymzg3jL0fl1J3wONS6v2i//BLqUlDOJtSI11yl7+er55fm2jbA7YXwQl1eBhrSFpmVk4V3Vy1vmTpcYIpJXdnonVMaVLdz7peEBkV71PUiu7gntg43BFH5EcL/AF1wYjs8SbHsQZa9ONNjv/p0h/8JkdTXpoFu4XWIx7unTOKKv1DXmNiNTQl99Jcxo1L/i4X73SO7tWPuoe+rzGf7EMteIZiKY2UWgoXpEpyTzBxPl1ccTPxXd9SlASen0B77QtSKF9voNEXnENJ/BBJdtyaOtr08vsSCRS8oJCanscVfqUuBU1pnh3xtT1U7XhqAf10DBr+tInc2txVX24Lu3zXivpb3fHGxLzy8VDj46FGGf+NPdSoXjlwSOi6ZAY7Axdy5v1k9xX7lXPfznWbGPVK7KoKcgDpLw7jq1fZVUob+o40VEdXcYlklLQv2pid+t7Mw0ocYoEGlVaz6z+MvM3FHVBWdB3LI5+FFNDs15M9QcZTscDGJx1P53TFXUsO2BhYknaWcM+RjZc2cPZjq5Lt5s+/P5x86M2kpFWwgOWdFWA1GU+h8ipT63wo9vDjmbbWfOSdTwwZf/ez27fj7T+e3/j+6f2HD09PhL/8u74Jbv/09J54/v6/);lineShape=1;strokeColor=#67AB9F;" vertex="1" parent="1">
          <mxGeometry x="311.80140379634713" y="295.88702441001453" width="182.2725138338004" height="94.95502987778403" as="geometry" />
        </mxCell>
      </root>
    </mxGraphModel>
  </diagram>
  <diagram id="ovMnRzid9GJHaiK6Ciom" name="第 2 页">
    <mxGraphModel dx="2221" dy="2321" grid="0" gridSize="10" guides="1" tooltips="1" connect="1" arrows="1" fold="1" page="0" pageScale="1" pageWidth="1000" pageHeight="1000" math="0" shadow="0">
      <root>
        <mxCell id="0" />
        <mxCell id="1" parent="0" />
        <mxCell id="t4_v8mMZ3YZJkWah_N5o-1" value="" style="shape=stencil(lZzbshy3DUW/5ryyeL88O85/uMpypIoiuWQlsf8+YJ2wp3tzek3pTRewGyQBbGADPW/ppz8+/vL7h7fo//j+7es/P/z306/fP76lv73F+OnLxw/fPn23P72ln9/ST799/fbhH9++/vvLr+9///2XKTn/9K+v/5lP+PN9nXdjzEXR//X+D6Wsf/n7u/znT18u8r2rfCgk39pVPr14fhX56LJHedHfu9hQ/6t8bq71e/ngosgX51G+l6t8XE94Kh9diRf5NFyB56e1u0O+uhHv5fPS9pDPLiWSH/kqbzvK9/JlvX3Jx+FyvZc3betVvrkAz++qv2nY4fnDJX+Vj64GuC/viijkXQKFQnAjXBaEzhaRVKVQXIcrC9k1WZBcARsK1fnrpZmSBZwmNJeuexiuglHYDuWQbMt0qMO1q9dUfL55jb9aUXGZnMZ8Kl29zBUIQuY1SbwMnd4eJ16fXCD5sv77MKIVxp7L24UVkY90PuY11+ebU5L85jXBZbDp6TVJ5D04WbKoftXfL5N9Lh/1/M3HKMgljRLeBdKnuKryZJ+pLfc4yZP+FtO6yoP+Oez6RNA/53XcD/kC+ueq/ujRnvNYMfZ0v2A/Jaj/GgyCf5XsssREBIHS1vU85CvoX4aeZ1gG8hxk4lL34V8J7rdmRe2I9lw3+7H4AP7ezFwEtdeGnstHvd/sAsTDlhWT8nLQ5/Jtj7eJ9OmuX/U/Athz0PZ6PhbA4Dx70CyiuQH22S0LUvyiJLTv9nnA/vMFZfnfsSC6QDswj7yekGF2oy00V7esIIMP9L4g9FjQMIj2oam0wXIBFBh+aXzKnShMDEMhSbYyxqERNz+zY4CLG0kXJI6M41DgWJAw/x5F78ESatx0dUlU6kvJ5ws2ZzN4GLygSg1RsKYZ3UV5Q18B/G6B3HSJGODHWPh7KvuoLLMFWeqyji5qC9oVoqpHf7AFQ2JMXD54u+BqGhb2K2XJ/sgKjhV1aXn7iutF1IGJxdy1BL6wzOv2XK8qNYMSUqlrQdeKa1RAdc0FDS3+r+StuYpKg2+uanZh8Z/gxHxUSIceMb+wKDCuezDEIEC3ODOuLmeQQRn2jGTX4GqQQRBnsVKICoMMjAJm/lfTMMgg5sQAQuzbEABRurl83YO909MbtmLfdoWomNWWxgsYjWoadjO4h6B8yOMqn6cyQ4trM5YOiNKaMmQTMsAfWtXia0IGZYdJbWlCBu0hrOedFlC9Wbd4PyGDEtyqmGUL8A3JZXnDwBKpbsTjDG1wD2XLf2xBBWstdeXMpwWdqoykSd8DMp4v8KuqfqSVXEjm5sL+CqoM0+YQA+NM9gsOzrsGY7JaWGrtCUoviu2iCyivTAd7dVoQqDw/qsGT9WVwOUv/1b4bEx5bAWc+SozHZB3lWDPShJOhEQ+KaN+hb4GJE6DJIgqidIxkIWkV/UCAW6pTFlQXSSWvF2eQQfF+K1EMpwl2u97CTASQPZa01SrTQaH4SSpDRGrTUG+VMhUPdSHHIc/EaFWe05I3IjK2RKllJMLK6jUc8hELuKJUtkERMdNFienm8TzzxhtzaMnKkzyQ7kZearfK95WV161cc2fd7ywY4PlpqxcOKv9Gvl/ho5bF5N/IS0ypGXmPpPZQmShPKw0/ySORumLmqWYj4nvjearZG8qLP840g4BDA1z1jBvKe5eB3bGoMFMGEtlR+zKW9TS436jphMlTHR82/dvqP97ISw1iSRV1345y4CRP7ItXkCwFa02/2jwneSJGvdpDYdT2Gy/KxOtGEJi8R/31+QmTs6MeO8lTHes15S0Ju8le+zKPHPhGPpdNHvWReDLl8fwlXpk84aNXvJjnA/bpV3Zxkiei2Wu+Me0B99s3e6DGj1f659FJuZGvQeVf3Ndm/xT/vcbnl/Jx05/tQeOV+SP716ZPZP/d/RHtX/pQ0x5Qf+nTTXtDfZQ2TTiN4JXNmP6C9pk3/alx7pf3nZ+P8apu+lO+55f3nc8H9/tj8ju+ZGxcbURJOTplN/J1wxeswbTvVrh5EDWfMXniMOJ2X5x/xo3XbzhqEpUctvyB6ovkQlJ5ajSkdTun/IfsLel+LR8jf0/KCZk8+WPS/MfySRxE2PqezF8mJbVMnvIlQ5Nr/LT8mfphR/Q75fP5h+odzpeyElomT/6SV3Q61S+Ub2Qlp6yeIh4y6/SgyVO+nbd8viN+FY3PVm8SHhWNt1bPUvwpym9YvZxpkELbEFaPv+AHRJ7zyapMXCvLo2/kpaXQKtZHTVng1pDPadt+BxJMXbuK3XNvavUcT3wRTRsOjYc9cfz32oTsGRP0OUYgGhW8sZC0ROoNS4ywzZb1ju2HsA13zDYQT+spdR+QVZs00HUPg9Os2NRvXvRc7OJ0DxWp+xR0TmC0dfd3JLay3h1VmjS5vIHbcZOIb7qA2v6T6t+IeIpGT5sJVG7MdkXcFoBKe0dk9gaIgEwbET8wg51dne2UCMJn32h7A/a+vAal2UOHmzbMTkMXUJY8QbXqApovrX3zh4Z5ctvG1m0BvcFwo20ORNMUbd8DN8AnEmwLaCJkUu9yD5zs9606GMxO9Li1FCNOhFhwl3xhBBzks+AuUy3D84KmF9cHL+gayDrHJVNAahB7J87NBB0TmMNuNLmwHetjnO75grTNRuRX8x0S+XpC0xhbo6NHHkeqymx3HrE1/4rXBTOV4SkvCffmITie13XE0HyQksOJN9fobV6OFzeU/pmTBjy+pPl/R9idLXsh9F9OVEnGOoe2yLyHNvGtBHuxQGsk/+qUnpDu9IbNRV+wCnMES2iIiLT1aMpT5r6aw7fWerWlXBBFzR90JjEiszbRQAYxB7YibYHUtqkiTlsQkOZE4mR9bLnG/I6BVNraN7Hxx0dBo8ZMfWkPXlOHSRFBMO6bi4axOOc7fJCWUmg/iEChYOSbMwEyZ5x5ZqtoV9uqImIxJuzqnA1mZBbcxfi4jWyZg/DwHacwDQvEQRvKt648Z0UazKpsmV8sSHu0bTqlIG3WNsPOON3VNp48I3rWpn0iprVq1r52QpqqbjxqRCcoQzOSyDRM1Qo34vcdjy7GYaA4hDi/r9HvWQgF8wY5Ae0nV/2qNHAlmTVTCBir5/dNV3vz+L1JGhoXPX/k+uT7LCoK91qbvxJIWftEHu1zfr+mz+9wnmnrawf+fnAolAWMV7HrXEpAmnZ+YytAhnld3EYnI7cpiqJSQloxZrWHxPTONpmZVwB4Lh+Vh8xMUAXlUQumT7MPqPGfYD7sc2vctmqaJg+MJ6FuWUHgUcCiDjB5RvrEOKlG9s4AV2aQHsWkX9CQ2y8LTKek8kZn6SYI0PS6cveT/ScQ3r4kb9gbqFoATg1/ZJbOogzNfm29GYti3EuTGG1Rlab7o1LZaeDsWtR83SoCGtLdhnpzwaAY9Hwy93723jD/EsQuHzGJC1vvNmESGvTbB6v6aMQ4aMwqTKgFtYcpj/vdZ7nI3oJ+aTSpV9RHe+0Vk8SwzR5VTPrC6gyd5COef9yeT7OGQYnl1/L78/F8/H4+eF86+/Ii4m6zLDzS/uO//PJK3v7w+JmZ3z59/vz+KzXn/9efpbF/ev9Jm/Tz/wA=);lineShape=1;strokeColor=#67AB9F;" vertex="1" parent="1">
          <mxGeometry x="-114.21035290051896" y="38.20360790857626" width="643.5733289447699" height="506.16953320814173" as="geometry" />
        </mxCell>
        <mxCell id="t4_v8mMZ3YZJkWah_N5o-2" value="星球" style="text;html=1;align=center;verticalAlign=middle;whiteSpace=wrap;rounded=0;fontSize=16;" vertex="1" parent="1">
          <mxGeometry x="169" y="295" width="60" height="30" as="geometry" />
        </mxCell>
        <mxCell id="t4_v8mMZ3YZJkWah_N5o-3" value="火箭" style="shape=cylinder3;whiteSpace=wrap;html=1;boundedLbl=1;backgroundOutline=1;size=4.8571312313987605;" vertex="1" parent="1">
          <mxGeometry x="234" y="-24" width="25" height="56" as="geometry" />
        </mxCell>
        <mxCell id="t4_v8mMZ3YZJkWah_N5o-4" value="" style="shape=stencil(lVjbUlsxDPyavGpkS749U/ofzBCaTClhAr39feVmnBzbJxt4C0Gbo8tKWp2N3L3tHl63G89v78fD9+3v/eP7biNfNt7vX3bb4/7dPm3kfiN3T4fj9tvx8PPl8fT360O1rJ9+HH7VX/hzwqVAwVWU57+nb5hU/n/x9WT/vH9Z2GdPKXf2nrID9oVi6Owjeb1uXwJx7OwdU0GATCH1gEgJeOSYibkPQcgl8IhCvn+EL5QQwIKQDiAWNcMsie8A6jHAUezLoKkVchWQhHzvUvDkynVADJT6woVIAgAhkfSVi0wuXgdopthTLwostTriAZBhDBLavxsgGVsBu8WR9nVIqSV6FWBEyL1L1iACYjCA6+uQI4zBZ8raA4yOHgJSH0MxsgAuGSD2hStCCuhdAb1LRnjEVgua+wYq1qOocI6kT2u5UWltOTkDCikonAiFPAIiKJy55CcAisFbQ+oIKChL02itABCDSy3Ey6w8z7Z1xHmqLB8BSm1PKJ+JQSiHKUkohIl6VgXQoI7clFNIVZLJHwFjMrRFsLB3wH/7tSmfDPxxugYA3ezKSoYYROB1nEgVEGBz+gngAEA86RSDR72mzYFl1dAYtj0w0S6g9vcr7Z/QGM5UJkBGRFLSKYYCtpubRMPN5pQVnwqIOjcHlvYgrboWM9okK8RAy9Cac/r9gLj9SXtum3WxFDxohUnn3dg6PJUYrzVuo+eDe5NbdB9czDyu2Rubn1v1l9ICD99Zu6C2HPlQxRFogTh2cVVfeDvlPkFV36EuPt8qCwWZsVxzwzViGhVQSKYFWFUw0qg6FqHqbAAIMkodTVC5mMe5b3u7FdD5EiNpDxDMi8Sjcrlx7yQ3Hm31okIxlHEv16MNUM+uER2nKRQuoYxnYWybd93eEw8xQ6GjMp5HljQ0e2WU8cZdQDzj0WSP/Nfz0XuxR7NLS2v1iz1qBMtPGP1BqsLaZFBSDGVLnIY1Xpa10Sd7MBujXaeTP2B2WQ8M2prb4bZu7xsdF/kH/iQdD3hurwDW7T/5nua2vX24vBR62j8/n94pLf8/vkSyr04voOT+Hw==);lineShape=1;strokeColor=#000000;" vertex="1" parent="1">
          <mxGeometry x="172.33891341009462" y="-86.7689044182622" width="4.222978310711672" height="140.78095629493504" as="geometry" />
        </mxCell>
        <mxCell id="t4_v8mMZ3YZJkWah_N5o-5" value="" style="shape=stencil(rVbZbhsxDPyafSUkUgf1nKb/ESBObdS1A8fp8felu13XlLpjFOjbes2RdobDY5KHt+3T62bi8HY+HT9vvu2ez9tJPkzMu8N2c9qd7WmSx0keXo6nzafT8f3wPP9+fbpEXp6+HL9eTvg+44RyvIA4/JhfRGr668XHOXy/O9yEx0CluvhAIazH23EcXHymEtfjpRBn/z1Msa0D8khAKQNAadSaA3CiyusAFYrsAZUq4NAKVfWATAHc0CrpcEPIAKBUkwMIk4I0tEapOECKVAoEqFcpM1VwQwxXIyyIYrpWeEX1VqqFCibBXiYt1BAJpeQBzT4JASolr6vdGRGHQtJ6QEWZyyTeG3ZEEgBIlDvSjTLiIH3mquUSA7L3RlGShAE+cdmqFhWEUPM1miwPd0j7LiB5KcI1WbtMsy5CryXut+o3NQo5mDWGom5IJTNfxyEsrWrV3h3g6t/VAvKflBRm+m81GmDvu7QBf0Xle0Xd6WrtExaELr30WhBMGXWB2rO2I6A3St8sb3T4TwgjGbrGkUiBw20KaQeQ5dK1OSe+6FogBsm2SRp9rtUsDAajjeqOg5rDAYdxFzAAIj2MapNNgTd4OJ/h0Iqk3UCx7g3jYxcvsLWGZTxdq6fA6RCG3afCXj9UZ6pQnyFeKlzehu+xJpmAqwe+sd3Rv9PTdjcG+gz5KvD4wQ4C1f/HzfZuuD38WaJfdvv9vIPf/t8v3fZqXtjl8Sc=);lineShape=1;strokeColor=#000000;" vertex="1" parent="1">
          <mxGeometry x="174.45880596308166" y="-87.68003229206306" width="22.1818368422947" height="1.9175329683208646" as="geometry" />
        </mxCell>
        <mxCell id="t4_v8mMZ3YZJkWah_N5o-6" value="" style="shape=stencil(lVfLctswDPwaXTEgwec5Tf8jM3FqTV074zh9/H3hKlINWNpOb7KMJQlgd0EN8vC2f3rdDZHfLufT192P8fmyH+TTEON43O/O40WfBnkc5OHldN59OZ/ej8/T79ena+T16dvp+3WFnxMukYQrKPKv6YUIhfbnzecp/jAeb+KDkIgBhE4ctgExUCkG0Kn07XhJ1LOJjxTTdnxq1Gw8E/N2fO4UxcV/bLgaXwNlW6FMDM7ThFJ0+UaQb09U2RZUNygAUPyBQp1LvA5oxM1WVOYl1gF6YltSCdRRDp26zSFp0/AOrslZaYcBySZdNAfQBk3a8bTGeYmtsjbbt9qooqQXHsyAFokjACzKWgCBKqBeD5TEHwnt0LSs1QIC7ENr1K04S8Tsbndq0ENWCHDyT0wF6FNzkG7Jx5TBDl3Xs1VSx0iIGtHTWwXEqA/JCyikudBb1OiWS6Fg8lXKNmm1zQ+b2qJ3t32Ibd5zS0DVslW0M8joefHRpXMqQoDQLYqta2EKSEHNn6ng2aBlEkumWrAxZX8klZxgjVbbCBU1bMQqACkoeuurlRrghkrY2YYmnUEO1wl3V6UKGpeap6seqYMcJM+avwEkIGodOMUBFpmvs69QdF65tHK9ShTd1MV6yNQs9W74vl4kSrZtSnc0sdTsrSvpgBGwfvDWre5fAfECsdwVCHgSk7gONGjcPE+aJZ7hwL1zC50kAm4lPOtwGSQJMoK9bJKaNmIQNZuvzp0O6i/zLXbxx0IB1Od/L87/jteHv7f0l/FwmC75t//7W72+mr4I5PE3);lineShape=1;strokeColor=#000000;" vertex="1" parent="1">
          <mxGeometry x="172.7709228172978" y="42.72567700821378" width="16.35723819273954" height="2.794642558318563" as="geometry" />
        </mxCell>
        <mxCell id="t4_v8mMZ3YZJkWah_N5o-12" value="" style="shape=stencil(rVrZbhw3EPyafSV4H8+O8x8GLEeLKJIhy0n89y5mwdWyuFNMgLzJ664Z9l3dnFP48O3x09eHk7ff3l5ffn/46/z57fEUfjl5f35+fHg9v+GvU/h4Ch++vLw+/Pb68v358+XfXz91yf7XHy9/9if8fcHlYGzrKG9/XH5pzZT4zy+/XgBP5+cbQLImEaCaXI8B0ZniZkAxrh0DQjI+zoBkggJY48IMCCb5Y4DPJvsZgENaAYgmphlgjVVv8KbNVqrVRGEl70zKM6CYKN7gmmmzWWs2Xujgiil0pGhqEYBkyqx0DcMM9wHBlNms1ZkmlHaeY6laE4WnnTN19nRpxiql3QiEK6CYFCQg2hmQjVVWcibMVirRZJFAANg5vEswXnnamkY6wAwaUOdYKlbHEnJ61iHDrMpKyLg5+HIxWQCaCbPOGcHqjuWRLPT8OGLrrjxyZY4L1DVVY/LyfDdC8X7VGwVoyCekn3By5KBI1XiROsGE2cUpmyTsg8Sps3yUVRt5WGZ5P4LqQD7SeRC1+VgeETefJ7ZRkw/kwxyhET1B2AfxNsdPTBt5yrEYxhOO5OesR9fSz/ezvgH6ikpnR3u5ypfR5A7s72Z/oSkG6S/ybwgjIw7ip9F53CgBB/FJ8sho1TAjNydkaBPyaWTTVT5Lf2XWt3doIV/Zv7BAEf5qHD/vHjkqiGE+EPpzUq1v6WSujnceNdc8H8mhRChAMnnWGb84UVNAEBodKciigqimXomGrrwAo7MOTrYBeJU4i9vwrsz9vpqqToSyPL+gSDILqkmFPeu88YNiXQuptFDIo21dC9F44RG5dvN5wCVEnEaQGUpM2ZdQxstcqJ2Ux3RQ5sJoZd1KS+GyMiBS4vOjM6jnN2aYiB9x/pzG62/kxXnAxIJleVHnwD69Z3lRp6tn4mTHvHZfPnOjtLJuYSpZ9FXxA/kQSD6IfMF5EttHjUF1aUygpuI8sGdjeyoeWvygMTfygtcgHtoir+LH8uxqx6h5FM+J7a/qSbqm6409xfmRj5XtE5S8Y2Jmdb4HU5d8VPJ3/KWmK9B4z+dR9R9zyyqv8hG0asl38XzMp2V5vrBnTaPc3NhH8RQM6ZxfiiciH5f4Cf+nfGJify149+Xd2l+Cqp+R8yvIfgH/0mASZf1B/qbZnknmS/Zs/yzrT7a8SSqSF2MMrLRTGbP6Ub7QoO2spImYA6mhdoolKmJaNO4kTpcUSrFOEwUAox2R+05EhZMx2zUKOs2yYuRxqZNpBfC8k3RNzv/gWWE+0mYgiAtR7BOHWmI2rkTvS8f7gMozaJ+ZFKBw79gMZSCj1Mz61CeyuW9uiY1uxsrISm/m1hCY3/fBWANokttM3mDslNGb0T4sFG2zO+gAWpbo5QQAkQB6+wEArRs26xVYyc9FYLO/CYH74GZB1D09m3WzgQKAptG+4lJHwrxLo5beoSG8yUp9Saf8sDTnzRYQKUpW2qwZEWpl1qHvMdXlysJHNotSxGaeB6Ksrw3iEnybVS8AtPvZLJMR/VRmNutqAKhqbBbiMfD1zWblDgDtHTZLfQBozt9cG6Bl8S2AvpgAgFbWm6sP1Ajq01XPXnHdnVyn8/uAyl20XxDpu0O+FYuDDx2NF+S4PuAKHfo89Z+u0QAgvtQv6oTS6bogGoCmVwTZMjlpTu6YkMHrdaa6FUN+EansF6bCrAg1SzoUychgddoltiobe2sm06Xv9ZeDBeqygu8IoXVbCFNrkodCx1QYoJaDDcG53I0rwgTH0jVUBwgzITiJCnTAZj9CTNduJtzK9XuLiLxT3BwK5dqvaqvt/bK+757QKZHiAhAB2z9rWAyrdtn/4jsI/PH+FcWX89PT5SOM2//nry7w0+WLjfDxJw==);lineShape=1;strokeColor=#000000;" vertex="1" parent="1">
          <mxGeometry x="173.17843570464493" y="-338.523616862877" width="4.416894203901912" height="252.23059490613312" as="geometry" />
        </mxCell>
        <mxCell id="t4_v8mMZ3YZJkWah_N5o-13" value="" style="shape=stencil(nVnZchw3DPyafWXxPp59/IerLEdbUSSXLOf4+wDZ4mjQM9Oz8ZsO9pAEGmgAvKQPPx6/fH+4RP/j7fXl94e/rl/fHi/p4yXG6/Pjw+v1TX66pE+X9OHby+vDb68vP5+/3n7//kVX6k9/vPypX/j7hkvN+ayo6P+5/WUMV8d/f/l8Azxdn1eAHFzrFtBdigTQXUkWUF0tx4BSXKsWkF0jgBpdhB0iBzSXmwV419oxoIV5xQno3Q1PAHFecQGIoYlZBZCHBRTXAwfYS/fsYucAuIMc8mQHAHjXMwUES402nCfUELMWe+nWXGBW8i54CygukUurp+FIae65D0jTrwsguJ4IWwd6Wg9JzFqy65Z8tU9X7gfQmG5aAJWyNWcX7JFqcYE4LvXNDmIlEkApTb8ugOAGOVJsyNbqqeOiWN3uUPpMC7uAUF22ly6N+iGEmecWQJmE3wV0F6zfSnKNMQOvXKLz5AZicrixmIhQdbH4XC+ZthEv+5lPlvVtRtPBeg/fLzNtHq23kZOT64REHpNwXvL4wX2rlYXsqY4kl+190+CB6apVQtHGSuzTnbepJVUaZcFjlKVMpTYkZJzEHbVQmbK3AEStCaWDSLflaJLkRTgqThuWpGIGlimU1fbSsVJWyL8hxYtjmHLKAbL1m+wZGS886ppQKxFHp4gFSRhUOcWvw6YWMbRngDo1ZgFUGvtCzQFHypO+RykerBQiZbdqAgC4rgmg2Ts0F/kGDdhNSypdb+PNu8jS6cCKys9wOipsoU71ND2KyjYP6z3xgGRnyF+eckLUxW++T84jchcbriexL4q9/T6xp5QEfWMf9v2CjPOUD7K+bvzLSruMmUXkkp1/Ud/39azsknqjIH8yOY/UdVCA+HnA/fV+prX71ov6Dvw+O4+oaUZ70jJTzoP+ZfaUeOxoT+YvVV/kG+ODnKfFy/18k2qjIN8Yn6X6iWgfFi8lTKG7Mx6lf9t8n/FhzObqvnwi8eiR/yxfSXx5PD/Lh3XThvN8+yvrod6i+V/X2/tyfdF8YvlzImCasOwGJxIpGWiAamdakYrLGtQF0rWwHcJG5jsn6UAR1lKFAdqsM9bFEKNpmSdel1vEz6pj9g5S0NE6fNMYaMnIlLthpGlRykK/uGgvrWUvz6XAPS2smdjL96CwPilKmytQDeW55z5gE87afrAd4qb9aJQaaenQ1w0UAYjVq720dmism2hYImgLSMwqRBj2SCc9ZtyMN0+aWAFAlZn54E4uPWCHTscC2n7A3IGPQsRxEKI6SGC1fpluWk8qeOkOjnuP8iOtBWpIHvEsgDom+8KtJNVUsgAdGJFLS+YDP2jyZPpZsN6vywTmaFoJDX/liaxVrEh0cEeO1AOOaHQ0yEYQFWO6ecrW4XH42AIdM4+8N0Alnh7L1G09oiURNzrqtA6B2Q4Dx/0nY2YBFCtZJ4NsBVjHnYzK9c0EduDD+LHR6ZNxf/Cb8Vrn4zuxKxQb+mbBzFRQs5QtbAc/510LIM7suU/XjGNjfdlh8/42BzMLoNKRmbAZlF1fp/hTEL5ODZqYasUIEgCzkiSJVDcA3mhDoyQA5ri6NFJrACvJlhHcGkDMWhKG3IqP+wl/YLd0iqg7L5GDF2V9bAC8KIOOTz3Bpmx9Zq41gGn7ZgajbGJN9P99fr0DID+8v/Z+uz493R6L1//H12H50+1lOX36Fw==);lineShape=1;strokeColor=#000000;" vertex="1" parent="1">
          <mxGeometry x="172.17404251698144" y="-618.6035509708458" width="5.295831954226482" height="279.03919175625145" as="geometry" />
        </mxCell>
        <mxCell id="t4_v8mMZ3YZJkWah_N5o-14" value="" style="shape=stencil(lVfLctswDPwaXTEkCL7OafofmYlTe+raGcdtk78vVFWuAEWbyU2msaSwxC6gId297B+edwOHl+vl/H33+/B43Q/py8B8OO13l8NVn4Z0P6S7p/Nl9+1y/nl6nH4/P4yR49OP869xh9cJl6j2EcThbVpoVPjvwtcp/Hg4LcJjohZMfKIs2/Ecqdv9A4UA4jvV5uITiE+dQjbxmXrbjpdKQXy+YP+cqdn3iQwTKMknHAtFAKhMXA1AKRVwBU1IbAqinMZtQC/+jrOeWQCgUrcnZD0TsNob9WgBuoJO6FQsoGTiBAHdsqS8FVB4I8AWRgskiKVO2QEqVXAPmnSzOXQVBwLUFaBRQCwVKsXWUsDy6ZnE0qRpCeJVKDlAgdWnOYoVRI/EqDbYK0gL+B/TW4BiL6IW6igH9p5UOjHOIbEFMK4+oehcRq+mw3tge0JOFBFLyrrNQTUaKiymXP0JggDNSy5XYqwgiZ4l5K0KaNZnqlYrYGlRzTeEagTbQLW8tkwJXUSf32BRrh3TFFeCaOiE6jvQaG4oB20pxQM6FvXnAC3NpbPUKHilGikkb5YJmKV2ObYdQu24Alrz7ZpuxVShqKXMc8UNIHMbe38SaLMN3QARuoCOGl5BhRjNJjw746ItBiCIKD4HPSGAVxLfglRxMOcVRwynGfYZl0ANWECk6kypzibybnzwTXp0PZBv8ITKR/s7MUuEPX1lL0nmZrQR72xep0MBfAbPvzKcIJ/RyixWOADEWeaL4bOBeF4NGPMwulE+n5r9PwzXh/+fGU+H43H6Sln+7z9LdGn6pEn3fwA=);lineShape=1;strokeColor=#000000;" vertex="1" parent="1">
          <mxGeometry x="176.1595228493768" y="-340.6458451151675" width="36.143243178180455" height="5.543168000302027" as="geometry" />
        </mxCell>
        <mxCell id="t4_v8mMZ3YZJkWah_N5o-15" value="背景A :能看见远处&lt;font style=&quot;font-size: 19px;&quot;&gt;丘陵 和山体&lt;/font&gt; 火箭依旧处于星球上" style="text;html=1;align=center;verticalAlign=middle;whiteSpace=wrap;rounded=0;fontSize=16;strokeColor=default;" vertex="1" parent="1">
          <mxGeometry x="-242" y="-31.380000000000003" width="396" height="30" as="geometry" />
        </mxCell>
        <mxCell id="t4_v8mMZ3YZJkWah_N5o-20" value="背景B:飞船离开地面距离很远了,能看见&lt;span style=&quot;font-size: 16px;&quot;&gt;远处山脉&lt;/span&gt;" style="rounded=1;whiteSpace=wrap;html=1;" vertex="1" parent="1">
          <mxGeometry x="-268" y="-221" width="398" height="60" as="geometry" />
        </mxCell>
        <mxCell id="t4_v8mMZ3YZJkWah_N5o-21" value="" style="shape=stencil(lVfLctswDPwaXTEEQYLkOU3/IzNxak1dO+M4ffx9oWpki2S0dW6yjCWIxeKhQR7e9k+vu8G7t8v59H33a3y+7Af5Mng/Hve783ixp0EeB3l4OZ13386n9+Pz/Pv1abKcnn6cfk4n/J5x7Bw5N8G8+zO/8iTy78XXGXAYjytAKSS1PQsFDwBKrLWDQCkBgKNQKoBESm4bkIVcqgAhkuo2IEUqtYcYyIEYkiOOFUAFsmR/R6kAyVPJ24AYiWtaM8MYQiKXa0AhDtsAyZR9BSiJMriSmIeapZJJQdBiQXMNKORBpn2moC0gAQ+mzR6AaGVdOFkDwJXYMp26KwFpxFbdU8wROCCNHalA3F15TlkD5zuS3No7wJCn1NxfSYDudNHM1T7CamZrJ9wCBKUst+VvAA8yMLUT7Tww0Kk1mC4GRaUTyYWWJAZBW+mUjtUMWLXiLI2HRAqCltTlIZMUAAiUG1rL0ja3WPJdJSClWh6ibwEFxGCZ9nXQq2m0Jaam6ZmLjPowaRc0GlZ+aXArVtH5bpkCK3sG0rPwGvsE58iH9kCpRpDW1ZYzRQCwfpTqfmRzB0nbW05rDzbZYPFo2wBsODrAUWAq9ZWiQOGFawddzX8PasGGbaiVahUeQAzq2qXHxI6CVhtUddD/2ZKUlxXnvjXMHPi6wzBsw8Z5ada2pfg+tte2mB0+/zqHb/YB5CzZwqWNPdpe0lXGN3vUKWwn5PZ8aJ+WfN53n8LLonJfvDZhuHyCz2nKNwKC+Zr6WtNL8Vj+7N5/B8Aebp8ZL+PhMH+lrP9vP0vs1fxJI49/AQ==);lineShape=1;strokeColor=#000000;" vertex="1" parent="1">
          <mxGeometry x="184.7311355735551" y="-45.090819507646984" width="5.194567249755923" height="42.34106188564166" as="geometry" />
        </mxCell>
        <mxCell id="t4_v8mMZ3YZJkWah_N5o-22" value="" style="shape=stencil(lZfZctswDEW/Rq8YkOCG5zT9j8zEqT117Yzjbn9fqg5lEZJuJm+KgiNiuQDhQR7e9k+vu8Hz2/Vy/r77fXi+7gf5Mnh/OO13l8O1Pg3yOMjDy/my+3Y5/zw93/5+fRotx6cf51/jF/7cOMcUw0h5/vv+hpL//+Lrzf54OM3tM5XU2zOFtA34Qpk7wHtycRsITN51gASKZRuITOw7IER4QnKkvUsxE+s2kBNx7oDsKIMTipLEDiiJhLcBVYraAZqoAMBxjboPQjNFfIT2edVCXiAgYoH3T6wDhaQvRP1EyABIpMUCJQAgNq3d1TflYZ0Q0oVPCgSuvmVxBiQUtSNZBOGQS0wp2ryiFqpAMJXLlFGa6gnJAoxjCCboqldUuZolo41IBQG1DsECEQVdS60WCKBJ7yHOgASadJRrsEEzksaiqyuAJtNdarM6eBD0elcrilqbBzMxZaS+xTwew0JAtj1XAai+uNLVirQRKCx7FKtP46dcquPaWcCjtHKbQ7O0JlTqVQCcUGpT91kqBV5CKbdpPV1CAvUdhbgHohLjm9ekNeT2iVVAnFWrpBbVur4nqU3LQCAHBlNpDk/z3pMAeybptSptTm2Ym82hCgubG+8/cMb3E2xS4YZ5seZoi3FN8c2coUA9FW/MBcy6YBPPUJzR5h3fyolStuZgLGa7udTMovFgq8pwpV3sRa5texsz+pMb84f29eG+nr8cjsfbdj//v13n66vbTwF5/Ac=);lineShape=1;strokeColor=#000000;" vertex="1" parent="1">
          <mxGeometry x="190.1490929037543" y="-47.855947346363564" width="18.130657798322414" height="38.58174660132104" as="geometry" />
        </mxCell>
        <mxCell id="t4_v8mMZ3YZJkWah_N5o-23" value="" style="shape=stencil(lVbLctswDPwaXXdIgiTIc5r+R2bi1J66dsZx+vj7QtU4Meho295kGisI2MWCk9y9bB+eN1MKL+fT8evmx+7xvJ3k05TS7rDdnHZne5rkfpK7p+Np8+V0fD08Lr+fH+bI+enb8fv8hp8LLgbkOKNS+LWcSEeTPyefF8B+d7gCiCAVB0gBgQBUEbMDWMqwHt8ERYZ46SS+owZfAVpbj+8Ztbt460EhH9QbUvOAjlLWATFYR4ZPshNSQ7caqgPkiBAJQJF8ESUisqoF0dNWrIhE2qqo6gC1IFYCiMjJA5Rm0ILgi64VktcBtSMNgAglRFSj2ou7ZCSiVXvfAMgZRQnApOO1YfOhDHCTISV0Qtxcg9dSFAiRxtylgWkoSTDT4ONNSWze4ugYb2pfFZJnLUEIabNSvV8oOpsdvRlPkxHR3Txsg4NVZNKhj+ZZL01YtQw/ntmKYEVnqM9QlHe1jzqqgkqkPduqr9rGMzID+F9A7qOxaoMSx3hv+wXQK7VuU84gbeOSOUZUNN+lKy4/RshlOb2laGhMTaP6ekEjBlBGonukak1ovuRWkAnPAT2NJLBldSNttc1DOAjjHjHdZbYMIX6NlIpIRkdGQzVZseGsN5tT0Jkkwrim/nLh+Ycbkj2836+edvv9cj27/n+8j9nRcpeT+98=);lineShape=1;strokeColor=#000000;" vertex="1" parent="1">
          <mxGeometry x="190.868956786426" y="-21.146342969887655" width="7.44013809113814" height="4.350663113873923" as="geometry" />
        </mxCell>
        <mxCell id="t4_v8mMZ3YZJkWah_N5o-24" value="" style="shape=stencil(lZZJbuNADEVPoy1B1lzrDPcIEKcttGMHjtPD7ZsFQWkVZf3EO1nmU3H4JGvwd+/7p7fd4Pj9cj793P0eny/7wd8Pzo3H/e48XvRp8A+Dv3s5nXc/zqeP4/P0++2pWban19Ov9oU/E1crJd8ox3+nN45kevE42R/G48JemIm5AwpF3gZqpir9AUwxAyBQyR3gI0kBgKNUOyAUChUATCl0QNIzZRsombKJ2VEN20DOxKkDaiEHTsiBUrRABjEkDdEAlbzbBmKd67oAMnApZJslBWrcBrRMjlcAiMF5ErFAASeIu+JSBEGvpKT2DA5g2wwVK4nJmzJnKsA+EBdr70ENRCi4HkhUQHs6oVgtEEDzeE/RWwC5FJLt/wYAl6LqqFggguZJeZXVNM+QreZhb9MagCyyfs/oosxRXQfiXNYFkBDAVFe9IEB5yc1CXgDohCgrrVaoPa/zoQ96Mcuvi0mn2MqnCvIq8Uq/JRB1JlllyaEDKLlVGYC6V7uq1Rn28232OkF7pba9gPzX9uyndts8oAQ68bgfkW23ge3ZgD6Etj0TBvqcfrWfqfa6w/tfeB4n37xgyCz7T5nORd/SnBmRAr/fJmS/QxiuQVetP59Df6vNzJ5lErSidIMVY4+aMunx8QZ7nURFbvCn6PdtflC8RfVo84Pyqde72PuD66Ud6P3wfT3ceqH92l4f/t+eX8bDYbp8L/+3t219Nd3U/cM/);lineShape=1;strokeColor=#000000;" vertex="1" parent="1">
          <mxGeometry x="199.80371033100482" y="-224.43430336555775" width="2.301890180562372" height="47.837188804793534" as="geometry" />
        </mxCell>
        <mxCell id="t4_v8mMZ3YZJkWah_N5o-26" value="" style="shape=stencil(7VpJbhxHEHzNXBO1L2dZ/ocAUSZhmhQoysvvHe1BNbuipoPQzQZ8I6czuyrXiMyZS/zw7f7T17tLcN9eX55/vfvj4fPr/SX+dAnh4en+7uXhFX9d4sdL/PDl+eXul5fn70+fr/9//bRJbn/99vz79oY/r3rJYtqUgvvr+oGzUP754Oer+OPD00Ecj1tk+XwuH6OlyvLpXD55c4HknXh/aut9nDuXz3V9v6/n8iWv8qmdy9dgnv3ZvZBv5uf3e0vC3lYst0k+muvn8j2M8Az5bFnJFwt+km+WxP17t9Dn+wdrwkFQ6HNC+GpdZFxvVmeL4aIqQgYT/HwCbI7qSn7ceFdAVqkg7D7cgxBGGG9HGSaSQrIuTih9PN4VqtUoFJa6Sc6yuFKG0bOXEjJJnIDHmRSyBaEQs7U5lVIdyXW7t8BENysg9koBtT4HLnVrorv4OB7v1YDyFKmBZHZze4HfvDrBjXI5KogTlv613UiUQ7VYWT6JgkYxxMVFwqeZiwcxUPdJludERZCVR4E3FONiXeRpGu3wkHVNVH/i9pKSNXH/PCr9UAZdvH/BD8grQEP7JP8HmdOdOwXkk/APaiAvClFcCBbkshS+iBjqmCAKLlWYs72PYpwliCCFKzmpWBMn5GaRFJr0UlnCjDNVt6tx0KBDHReFCY4TO0eLGsnJhpxlHHpaFEAeFJY3y/OVCtqZiIN3jiMHxxWFtZ17fHWjQZ2BM9VzRYcSbuq40lzQDfCvwZmSqaGHiA6AyBEotCo5Z10KonXLwq+ljcdDAZSjqnRFrs1x6NGKQvOlTfYseTy6dCQFMEtFzAFLs5d6HYTgdttA3yUbmm5MzcrcyZBdTrW+MGjdQUFhIeC/zkYfMv62hh/gdDhCwY933DegoAqiLQc0GYdmrnAY5EBileTB8CUfcUsiqWbfxnizyyfZWP0+/x1SO7wTAsqjMBLlNMqBFbKoZ58HUz4oKI6EicV1tiEpo9vw+cFLChz8TroOYUgq7zq3ScRZdW6cQIMkEkly58pMD5kqFcripS47hodPltpR3BPsnAP3joLjWfKdK6F2l+qUkyFPw5tTFZRYJfkic7sOWnRMC1nNxPX67uMTe6lBbomtYuwXB6F0RM9GcXrPCrI4f1QBEw9RvW2+F1eKa3Hq0Rn0l4ze8F+hs2M4b4BCRYgLTwFN50WJPKeC9CicAr9lDuOkl/C4zA0GxE2lxrYkma9Ug8w9+ISgs1Q5ioGm1Tk14IYu2nAD/Z2xB0QrqnIrXA+5j4q9reC454GjqyUJGDmBFWJfRUVjSKAmiU+SwM9Ul51HkisMML1EClHysLjkUg5j63C7RNdpzEvSA3QjLvneGubfuLdpLP+f39uodeH/exu5kQDZ4QB7GYDtmxey2EmLYYKfO0Xs0qXbxEbfLTRJOmEiFUEscsRDTcW5ynCmV1/XdCZs0UuoBWSsu/yq6jLzlbbSUzAVmDiHKGfIbZswxwHtTO1tAIRUy0iWrk5YbNiIrkLOZVkFlBJerZ5TCXRE5GpJA5Le5NUQCcwrBGrjg9uJ13iqzXLIRml5wg9pLxBtuY8ENM9Tcx7E+6z5dnKP2oFFXh8VuSgMA1jeLqNmEM/5nOW6bG1DYzF0Ik5ceSfPJ+KE24iEfDvtK4MEJTe42Ju4ImeO+eW+ljtxJCW9l2tEnM3fjBf1ddoqrtj0D36v/644/nj7CcGXh8fH6y8Qjs/5Jwf46Ppzhfjxbw==);lineShape=1;strokeColor=#000000;" vertex="1" parent="1">
          <mxGeometry x="199.73090255932334" y="-221.01183120422593" width="29.984289817259885" height="45.597740204727636" as="geometry" />
        </mxCell>
        <mxCell id="t4_v8mMZ3YZJkWah_N5o-27" value="" style="shape=stencil(nVnbUlsxDPyavGp8vzzT9j+YAUqmFBigt7/vuqlzbJmzmfYtyfHGlrSSVj4Hf/V6f/18e3Dm9e3l6cvtj+PN2/3Bfzg4d3y8v305vuHTwX88+Ku7p5fbzy9P3x5vTt+fr9vK9unr0/f2Dz9PuBrEl4Zy5tfpF+fExT+/fDoBHo6PI8BKzBPAJsluH1Cq2DQDvHhLAFFCnABVUiLrjQQ7rceBwv767CXMJkeJZn99KpKX9cRDyXcHbucx5PwxizfT+iy2kPVGyhyBIsXvrw9Bn8daMXkf4HP33xCxQjzqwYk5AhYmEE7Ag7nOrINRxKd4nOcd8BeGBA2k9LOTwCIWNeukzEfyQSJxqzViFaBKYYnQnd7Xhyie8UinAQJfGS/Ez1GLSSKJWpDkZ5o6MeT/QaPZ3pRp3gR9nuwkkjwIkmf/ZJCI0BRlYj5PseJIwJImaQn9l/crXQ//eX2RRPxjgyZERcCIwSC1dzMAtZelTegBGgCJuAicc7PN1YthmeykLgDPAKXHaAAkwuqAx0ED/mbe+4AqZo4DehYrXzHoRAOAFlTUT6sBjuzQKvxyJOYltBAbNSAQo9GjVqMToUYuvUeOAMLuXN8BZN5mowpcpG7d0nEA0AJpF2okajQAWe2Qe2/fA8S51dYintQMGF0VlyotkgA4owGJ7IA4qO4MQGXyBTkdFgA5EsqoW2ygAmnpPAA4Boi9eQ9uZa0HAM2l3Bv8LkDtkKjoaUcqGmDYDkt7AFs9y7jcu/eQQEwlIXC63F/I6dq5OQIukC9rG5jRyAddZuBoUpdaAnntVlb5WooukbZ8h6S8VKh8BsAWDWBass0LClAlkHKPOMQFUBigaIA1hsrV/0C4TrbxUIRNUGt1ASQSCXQ53Ue5hI5rD4JjyZGil+o0wDEtUJasrpRNUBthMZpNJph9dCmrlxSTZtP5kO9rsrykUKEdwvl+4gHAZKKtPemHnGOazKJKqB0STSEMkGuhoaVMqrIZoaezQ1VMQlkg65dkgFZnYgZlbDa4RKrHMH7OXX2razvrle5Gtwjk/OdcH2cl+v+KEshuR0hn9KVNsnRwsOLnUSbGHsEd/6tZErOqZVOA7p3hguLWTQFzR2C3VFouIE0zm928HlZB2UA6p81dcw33Zixi7nzpda7whSpJ2ODUvVnglShqklp0OnYx5HSUM6++VSvPQMVC48xsgaN9Np0f9/WGKuG09BtDa3sOPUe29bTF1p6z23o6jviuzjZ7DRMiWd+MoigyaVS1PxO98NgG64EQbNRG1Vc3qaAckwhtkFDXcqa3kj2AEiHNp+wezyylEcWJdb8mg6oGsFGhyaC5uDSekjNtmmMAUL8WPdgi0izTmuQ1GsCkFxq8qi7O01EBoY51AZCOiQZflx3Y9R8AKtuakGFGLxeAcGsm9eLf311cBuDD9qrk7vjwcHrTMj7Xr1bw0+m1jP/4Gw==);lineShape=1;strokeColor=#000000;" vertex="1" parent="1">
          <mxGeometry x="189.67529186499928" y="-486.0810072917102" width="47.558952496986514" height="55.03773568585922" as="geometry" />
        </mxCell>
        <mxCell id="t4_v8mMZ3YZJkWah_N5o-28" value="进入太空:已经是宇宙场景&amp;nbsp; 些微看见底下行星" style="rounded=1;whiteSpace=wrap;html=1;" vertex="1" parent="1">
          <mxGeometry x="-323" y="-472" width="418" height="59" as="geometry" />
        </mxCell>
        <mxCell id="t4_v8mMZ3YZJkWah_N5o-30" value="" style="shape=stencil(lVbZctpQDP0av2ruorvoOU3/IzMhxVMKGUK6/H3lurRIhkP8ZsyRfLQcSUN+eNs+vW6GFN5Ox8PXzY/x+bQd8qchpXG/3RzHkz4N+XHIDy+H4+bL8fC+f55/vz5NyOnp2+H75OHnbBcDtTZZpfBrfiNMvf9583k22I37C4NOYvG93MGnYPCtUIu38YWyxddGtdzGZ0ps8KWdI7qKjz5eVv+M8CUbfC4kFfIpBq8ekP9AwcbLJBnR4WrpEKfb8HquzT82FFCwharFBxKAV/9SHD4BfBYqweH/hn+9GZRu9v5B8qtmP3r+oDlbpC4+PwLwjSL79CP/ndjyLzBe1Ua1/Cv0X1WNlr82P8AX8Wrp1EA+VRts6yWUgXgzn7V9gQd8NN0sjo8g8Wp5ksNHkE/29CucVWFZLYbSLZZMJgHJYapWuho8jpWt+0gJ4NWd64UAR4POsVQdPgC89oKww0eA115ryeEr0FbVVmEXL8KrVrpPP9RW96OTz833cTxadJ2K7f1pWINRLoWiLZiWpIMIpFFf7C7UQtL9+NflWMAyjWGxjuqdTyyqdme/K6ey6oCQuvJC0bw6XaoL1KmiW8DGoJlOqNTFrz2NKuPec6XWvEXQGyoGN+jUoKFN2T2li1pe17MWQlZZ5L5ILCaVFs1xJ+zp2uprEqsHS3MLCpduuUHuNMfqA/kDBvrw/x5/GXe7+Zy//N/f7/pqvv3z428=);lineShape=1;strokeColor=#000000;" vertex="1" parent="1">
          <mxGeometry x="175.82000230557423" y="-680.0682109042883" width="2.8358662228740665" height="23.65794440641131" as="geometry" />
        </mxCell>
        <mxCell id="t4_v8mMZ3YZJkWah_N5o-31" value="" style="shape=stencil(lZfdbtswDIWfxrcEJeqP1133HgWaLsaypEjTbX370jO8Rcx8jNw5zkeJpHhIeZCHt/3T626I/HY5n77vfo3Pl/0gX4YYx+N+dx4v9jTI4yAPL6fz7tv59H58nn+/Pk3k9PTj9HNa4fdsx8Q8GUX+mF9oI85/3nyd+cN47PjYej5QCogvpeNbogj4QFE7vjZKcZ1PVKTnsT9KtXZ8ERKwfijU+g1yosTrBjFT6jOUMjHwSIRyv4OYQQUhp8XjxSAKVVk3KOyTFCLcwXKeU2+wHMv/eSXtY2aqbZ1vkaQ6XoA/zXLq+QDOoDXS5HgGvEZK4nngv2bKPl5JgDdNeX8q4pVy9fkHfOAbGQeq4MBsAyeziAOolIPjG1CNJmq97IUC8idQYccjkdkBc/U88N+aTvH+CFrf0ufjVSwAp+FIGXRRE5gUxzNQ8MT3/oRFEWv+SH++vChiLd7kCzqBeC2f4vmABFypFsejnqg3Y4AXBa3VW/Z8BPm0enb55GWBNb2E5vLPBfLq+YLiVSrZ1UPA69/Ft7/ldTUBGnCoFApOAAm2oJx9y7IplsEOyUqil3zCBqKLxK8mcQOHLBZiXxQ26wvIUmx+DNhlogAZ26zXm9sK0v2UxH6HjevQdL/pz2HjvmUGeteFzgzcrDeDDHr71GqrN1CU1uDvXFa+AlwKujhwZVBAe5kuacUbNKDnIKS9fq5G6MqIvdeieclt+JR9S90I2ibqzfowq764N46N/YjaqIv7vyS2eHv499nyMh4O81fP9f/+M8dezZ9I8vgJ);lineShape=1;strokeColor=#000000;" vertex="1" parent="1">
          <mxGeometry x="171.38490370748536" y="-774.4895133845718" width="7.988553892936862" height="50.54568239009698" as="geometry" />
        </mxCell>
        <mxCell id="t4_v8mMZ3YZJkWah_N5o-32" value="" style="shape=stencil(lZfLctswDEW/RlsMCfC5TtP/yEyc2lPXzjhum/x9oWrYhHB1Fe5k+hACL17UJHcv+4fn3cTu5Xo5f9/9Pjxe95N8mZgPp/3ucrjq0yT3k9w9nS+7b5fzz9Pj8vv5YSbnpx/nX7OF12WfI+fmTezeloWaKMnfla8LfzycPvBMNXZ8EUp5nY/ke/vZkwO8vr23Hyu5uM4LhdLzat8j/4394KkAPpDkjhffVlb899LxqnAKSJ/U2/eOCuCZOPT+tIUV93OP6363jntPtZfTExfgjTRzjXcUUbQyzf91vAfqR6ZYDe+A/ylTKoZnkM3FUbX+ZBDdesN7iohPLfjv+kcQrpptOksT4P+8kPT2AyWgTwk23SIF4H9mm/4JxytTZsMHlJ6ajtY+4lnja+0jf3wk4YHz3nQfLKcGs7eOo6XBSiPJQM7WIso1r7ytFZTLorEVw6NaCZqbloe1yJStPyhWObVG/LleUgo5MfqgXlUjsZUf9UKtxdzzuNUO88Hqv9H6tdhLXywbs0VPnPo3bAwvPYIMTUftb6YCNsbv3LCG5ruqVIcuEHoGN3RD8W70DlRLS8x/GzJsW3oI0+bUBAOZitpju6GA5M6FgjlDbSbWJmUWu6GAcoiJnBl9DjeAIFTt3QbvkJtxsOHU3BLryLE9tx76SWHjjUw4cp7CUGqM5t42rw/vl/2nw/G4fCt8/N9+HOjS8mEh938A);lineShape=1;strokeColor=#000000;" vertex="1" parent="1">
          <mxGeometry x="161.35028995330777" y="-886.3698428125568" width="2.1960560039450026" height="32.32192108511816" as="geometry" />
        </mxCell>
        <mxCell id="t4_v8mMZ3YZJkWah_N5o-33" value="" style="shape=stencil(lVbLctswDPwaXTEkAb7OafofmYlTa+raGcdpm78PVA1lE5a2kxstL4jnLjjww9v+6XU3BPd2OZ9+7v6Mz5f9wN+GEMbjfnceL3oa+HHgh5fTeffjfHo/Ps+/X58m5HT6dfo93fB3tnOU3GQU3Mf8oVRi/+/L9xl/GI83eJ9JfGeQCoW8bRAiBe4MoqcEPLCQ70NiplKAQaYkfQ7YQaXcO4iU0zZehEqfMlOI2/gYSPqMPbFs45OnnDu8ayVbxWdPJRq8A/eXpd5XfK7b+KrX9fFrQg7gk+2wtAKv4yvF1OF1pkA9FZ/6+nhHDBqmAcW+QJ7Jg4pqxtF0LJIADyXYlJUXPoCehTsPmSoIKWnNxRoUMNWRyYXeIOGxjm2KFwOhCvqmvKnGQIMESU/E7BunnUdEVt72g5EoAbwEKj2RpU3uOr7a+5VJgAix2KbpnIACqRJKscQE+FzakF3xgoic72aCMqhPFXu/CimQ6lpsPRPM17slv2uDGRT0ywY1UKp9BglqaWFKZttI48V6D6RpzyJGKpfAQNWaezXVINF60ikytNG+VOBBI65921TQMhBInetoeKY7GVRJ2K7Yirc+xyZWNwYVGOgKFqvZmAw6yz5aFxFMq6qVOJt1AmUqdg3WTAHJS9sZCz62xbUeEAUTD0O5u+eCh0vnq0+1/+P1cH0XvoyHw/ysvP3fviP10/wG5cdP);lineShape=1;strokeColor=#000000;" vertex="1" parent="1">
          <mxGeometry x="163.34335387008832" y="-921.4922528215565" width="4.237668802473089" height="14.697471804393617" as="geometry" />
        </mxCell>
      </root>
    </mxGraphModel>
  </diagram>
  <diagram id="go15PqsXHWeJN2_Bfylv" name="第 3 页">
    <mxGraphModel dx="1690" dy="1194" grid="0" gridSize="10" guides="1" tooltips="1" connect="1" arrows="1" fold="1" page="0" pageScale="1" pageWidth="1000" pageHeight="1000" math="0" shadow="0">
      <root>
        <mxCell id="0" />
        <mxCell id="1" parent="0" />
        <mxCell id="kLfVIcrVbCrJi5yO7FDx-10" value="" style="shape=stencil(lVrLchw3DPyavbJI8H12nP9wleVIFUVyyXIS/72BbHF22JzpjW+OAixJEGw0GnOJH749fvr6cBH/7f3t9c+Hf54+vz9e4m8XkaeXx4e3p3f91yV+vMQPX17fHv54e/3+8vn6318/maX966/Xv+0X/r369e5aMC/xP65/8S73//7w+9X++ellb19clck+uCLEPrqcJ3txuRH74FKf7KOTdG7fuvMe7DvZfysuzOdNrpH9N3E9TfbZVX9uX7vLZbIvrgRiX1ycf7+OABzbRxfqZN9cLMTeOz+ftzuJ5/aluNbm+9VfIBdWomsZHRo5QfGuwwqaQvXcITcnsIK4RO4gZ1fmHAoaNeawBFUdKtuSdxVWSC6RNEoNn0HIzmfiUFxK6FCYg24AzlCcsC2FZYXqhBw6Ntfh6WvukVyKmkvz2wzdJXKGmDH5FI08ye6YXM/oUAlcqAPAheJXIukdo/PzTSuACUnvKJhLikiBrRDGNW0OyQUWJY/vQTGJraBPPsGhCwUBxZQ6g4aiUiQPSB0AVQ2WSC7p7xW46U7ftG1gPrSGIZJ7UIcwp7cGmiGlxqRD5RF+6AUqNVmEYL05zKmh6chwyRwEHToL61Kd7UlxhwxnKAPazhwirFBdJdmqDh4c2tjksYPi3FxBY3eVZWt2Mp8heX6GhPegWNjYA0oIlUlhgW0pIlQqPNPUiMsKmRYUWXiJVgxWH9QBV6hjk8cOAbE1dVpQDEnnsGqZLCy9lQnMqJGFwr06QPJp5c4kvbXewHtQbsBenDoEcOD8TUtgmbFV6YonyacOuMJGGY8dtve1McpAqYM6pDmsRXiUFCpn5Cu8AqkDVNGirJidoeB7KJWCsTnMb7oo++BRgrKrzPdOWNO8pSq0ito9zIdWLt74ClBQaqa9laaGgEOlBEsdMmyp0wdkDvMKjfMlc5hRQxuiyKLUsE63yC+uYYPSMmVkdnFxdigDC89yqc4FpbXRdB075LHjzaGPmnTmAPSne54aCaOkfW9nNx0HuG8OQgu7Ovj5PWgnXlhYBYGsJ37TC9Ht2tKwsAYE4857aXUQWKHwi/NY43odfzlWG5YdNXrmNijnZt8pslYkGmrPntuCeibPsD4U21C1Z48tjfbr1qv7AeXHvcbo/fcLsKRwLS325Pc9igcWIPL7frConT2TnzwWqs47UD/6op0964k9tgBqHxhdGNLILuGYXBWxiemNkrbkcljsmfKxxL9RLK1I5vW8jAjXsfo+PiSeDTtVtWcVsCHltAdJ4t+wm7f8Ifmm9XfJt8bks4P8ZPFMyIDNnuZDXvKT2ctBPtM6s+QbP68fcPk/4+kP8ofdl18KK8+HX7UPyCU0/6kygr1p58JIGkx9V8HY7ydU4zunjBn5nBZtlm9lOW8azfNZ/oN9pPL9JkbvaAprxftSsAMnTmuF9yNkZxwizohiXI45yGgQ92yRsRQZUvGej7IV4kKRlfGyQ0cUy4xTs/4sYlky1s7ZIvRn1hfcWWFODOs8+AplXsF6G8blIqaedk9MTTDGC5OUSFUdu7g5Wa0DZP2ZLO2W5421YPmwLpY7gLR7r08WjJJ14uziBBmC9foMIWWIb3s1gaeGhwlYoBxBHQCUTBHhqdFXzYW3W0ArcqEwpg5AxHPm6Z1x7GfKFG9KAWZM+2JR2nSonbpGz1CxsTb9jj2gilFKlU7yTBGZD20aJGGnoWFqpExF/LCM/lLiIs2iiJhSyw7dsKKbFszSuyFlNrWZJV9HDmB6Ntcgoe2NbQw0zxzgTZsmz+5h6XtN9ec6agNNPtMoGdGb37RNLri0C8zZRnWM2XocnNv0havNMIKNQrmPjRLhHgIlk8omcdTh+cgpIBNQQnTHAcdmbUjiZ6o/JJ9SOvY9xTomUM4Y2JYEWxglpfTillGHsWS2pYRhlcjHBAnFMt0k07N1xxFmtuHe6E9gS57C/TqNtCfFHNqBAyMnsqCGYSGbOwtqIzdl9dhhmbOFQpNPUSiAQ6Ywo8AIfEkdhKygWJ2X7zBYBUpLLhmZIFHSioYrRMpbrcjCxQltiXNAtTkILVk54VTYhFK2Ql2+w/CjTB53iausRStWWaLaaBenpDaAwE5PXJe5Xx1DtGP7iCyAd921IMfNFOi114GAJqoqavcFHyRFmqXaD0JtE9rJtPVrisGbjrtuPz642hKCnleb/jTfl6ffwKg9yMCeYpdNGirakw76Nmi42bOJqNrDfW1fxR3bL1ybq+R9mSXe+f2GwHhn/w3p1534dJwA34l/xzmCp4ByEx1v9nRU5Bcd3tOvHH/5q9S79vqP2yewX56en69f0O7/P34yq3+6fm4bP/4E);lineShape=1;strokeColor=#000000;" vertex="1" parent="1">
          <mxGeometry x="57.84410410349642" y="-74.51120592027814" width="44.65770145366491" height="344.0791659879481" as="geometry" />
        </mxCell>
        <mxCell id="kLfVIcrVbCrJi5yO7FDx-12" value="" style="shape=stencil(lVvZchw3DPwavbJIggf47CT/4SrLsSqO5ZKd6+8DRMXRsrnTE7+tVuwdgsTROOZB3n379P7r40OO376/PP/2+NfTh++fHuSnh5yfvnx6fHn6bp8e5OcHeffx+eXx15fnP758eP3763tf6Z9+f/7Tf+HvV1wPQxyU4z+vX8SQ+n9f/PK6/PPTl5vlKQdtsF6FrG/B/3ezPgVJZP0IorBe4/n6nENd95+DkP3kGtqA9YP9voa+rpdQyPmIbTct60uIjawvuB/7opD1PUhZ1teQyf5LCmNd3+j9lhpKhPWD7Kf0oOt99VD1fH2NIa76oCGR3685pAbrla0vIfdl/QiVrW+hgH7GkBlAQ1sVLqUQiUa3GEZCQCcq0SRkMAFTcvaEGvp6Z0mCZALQzSgLFbrH0NZbSDUkcs09b0I3es+9hLHeW+pTU+4D2vQ7NwBmyV1DqStA6T2oeUKQYYReCcDuFXxRpMqqdtPrsZq3G+wJJdT14swdJSK01hAFAZ0Dyiq0OSSmSwZAoe0q2bFWjDjuk9kTGroA80l5UADK0KZ2nQFQhs5PyXQToojSsGAAUD7zS5kYkAF0vWk51PE+wGw6IYDew+bIhIdaHTNyHIAcGtuSmcvqyESmt70LGHHG7gNQpqc6A/T1WMUUnljcSBh+DKDklAwArlJaaOTiDCBAGCwikmM1QIVTUqreBsBjHSESrzEyaqscN3MGAJJR4nQ8Z4AGgDRd2xkAaEnJXAaLaA0ByrYk0/UeAAmVmOgoyDxLoSY6Nt9qAMaVDNBhS5WSpdGmUzkAjbK90UPKCFBiokMxAr0RuvuAMePNAeBR1AANZDBGxtR7IHUwzlguAKt61xQK2VKKRkJXIYxmMpboj1jPtQqlAgYAdmLEtJC8xADA4SpnWAaAiGIAFuT85uCYLOwxgGKgrubJ2FXrJoPSZMwAFQDmyZjQumU/F55MUWij40w3DBBXL9AS39LBOg9AphmWA1aDMMLPIrtvCWQo0/OcCg05X6Us0QGCAMZ/HABCN5rWu9CKAOorN/7TOnffPbTVHizLoQbU0bkagPEfA0Bq2QbXpT5T/yM3jtM/n/l73QBUvRs61564m7GIAun6QQ7OAHkggPr7hiyxy/RUZ1ER3LflgtSAKvIfTx6Z8tXptg5AncpyBpBVlyzbLEw1Klpct0jMnlCQ/xhA2T2UeeoHQCn5NkBbDagPTivLjLI3gMF0aSNMljFXDiirm7GM+UKGuuqSZs4d7JRWofVC+QpanKXYlLgWdGSeYv8QS7Rsk9WLHNAQQAN7QVdpyePgp4QXN2iR0rg05MeWeNGAktGmPfFi7t68UEeAMqET1inHhWpsZTiTKrN7iGgP4yLsRmQzro5MBgOsbsYdD7uHOFPPG8DgySjQn3GZvSrIcJG9WuYHgAvOJxinjZhmnvnhsQ5aa7EtgRPwHOQiZVcE0LrdwHTXEwRWa+lb/fQtBzmrkkFk90ewCpOgJ3MhGCBj5dtzEMJOzFnXhABWlzZAFgTQwl2aJnwDiFwGCBCmfSx91YLO1ZMWJnTd3MZRNzu76jsAXiXTTYbGXd8udGeuLwetCGDq6ia32SilZIJkw22UuQ2Z4eDWRpk3Tthncm3l/j5vMjA6o4rFx7fCwlnVWDahKaDcsThGXHW/uEEjincgNgCLim6iG0D4E34QELGb5Vk/EdpYJx5rp/2BvhWyPY/inSAkG433mnQytv8ZqO88odCsqe/KJ1Rb7ZTiBmCJnAGg+GhuobAgF6dB3lCyxnUJo2KkHTmPQButZNTYYlxclc+MlvEfZ//rltw9swabIMO6IN8G6AkBFzJ0yGl4AuGBHbbEUxSPcasBXSRBBkjwBM6lDQDF+ItEzgCgSxoprTQAVO89Gb1odFYE0FOq6MjMBlkxfu+MesrOnwBRtHda/tk5X2/ct1Zk617YYDGuYrGyF86XGlbKvTjDdKmh5+vC3UzDUqIXmJgMbY4q3Jaw2D007Mj1RMmJASo8IfLGf0OvYQDmjLXhlJCXErnQOMajnAlsHWovhzIZOh6rF1zZxXUsknlJl6l3R3d/UTR2AJwSL0v7lgYC6HjE1pa/KK17IgdbuhjA2OajvD1wQUP3BgS7OMUM3Fsc/Am6dV3oIIxix6LyhrNPCkALT/lNDxxeqBfKN7Bv6c2sC8B6rN4uY0IPTF4vGnK6dUYvWn5edAOheVPR72EN7BdtyzuAxMdU9pu+iNOK5dAyaGldFelP4QN9urX8Cq9uasdqf7n0S3ED0JGnNts+B+DCL1V0AoWPqRgA0oFSaMKhZXuC0DlSz0VhTjVzJiCoGoV3jlTuzIRQJyDbAMZRID0D5NXiZNCZEKO1IINc1pegjS8XjixjddOnf/iWIAJJmxnFGQDnvCpnxgkLUnIRFBOqt5jyMUBE5RPhhcGIZWnJ1ICMy8Pco8+q8Xx6bAAW2D0BB106NnkfsJV085iE6AyAo5hK1dt7jvtUIhu6rbOFeAOgQldsceTGZagY2H12k22pINfI3PMZQFYTzYXODFp6IbAl4bPMacb9A5ApMzYuD6qRE004jGnDOwmJFwbbPss86MUZrYUtJaWDYW2r6KZOA4qRThgUSI1Sh7qV7VKl00JO2KAnUmidrxbkfElopmhkBwaYUqbVH59M6whgnM+oCLDKxFNLi/ugrSnSYn/ZYhyvYvvcJZRb6QStbK2sI524v75vHXZa7vLx2vUOOjVnyds4FT0f3y6+D8MiSd6Gyev84v56wT5zoaWxHDFSFVpaTn2LbLRWlwq2yPj7S/6uCbjHmSPft3scIOUJQ8JqT6QELOLIVaTNt+0FjEirjNtUJ58bjdPrvy1nxbaIaUWk9cWt8x65nmHNNtKi8DZfEWm8KNht483niuOAfHnD8jHfTL/z64xo/dgLipfL7cPbu5Afnz5/fn2V8vb/+O6kffX63qX8/C8=);lineShape=1;strokeColor=#000000;" vertex="1" parent="1">
          <mxGeometry x="98.56611505678006" y="-72.75848481506819" width="39.27531171260796" height="352.2137057758615" as="geometry" />
        </mxCell>
        <mxCell id="kLfVIcrVbCrJi5yO7FDx-13" value="" style="shape=stencil(lVnbUhsxDP2avGos+f5M6X8wQyiZUsIAvf195Wa8WcvZE3hbgs7qLh17d/7m7fHuZb8T9/b+evy+/324f3/c+S87kcPz4/718K5PO3+78zcPx9f9t9fjz+f7098vd02yPf04/mpv+HPCZSqhgcT97T/E9P+Hryfxp8PzIJ7iIM6Rkkfyfny9JGLZlk9U0yDvA3FA8rEM8oGpRiTPbpCPjlzdllfvxvfHSqUg+Tj6mwoJjE814ffEIP7MFMcE5EgVOMBThHKhCCzial3IlVLeBohQHmNaHGXggwapygjgXlaXAZXcWBVFyIMseCEXLaAADVpllUeAJ3EAkHtMVoAATAqOfLWADCo7aCGMiSuBHDAppF7JK4BHgEoyaUCZjkJp0oC6LaZJQ4Rhbd1VLcCD8k4adW8BEWhIyQ68BgA+ZEccJwAakZ78bBKaAYm8WEBAJtVeCOsogamq1V/nxIHi0/dltoAIyrvUXmorABrclakYDdyL5TJA22UMa1YfECD0Ultmceo6LwOkp2kZ9qXPkS0fTPHpNkGJ0yiZBtLB44FJDWD2IRODFlVAHatVClwo1Vmn284DDaROm/IWD8e9htUMAd0YBfSDZlqyBVRk0pRpNamCKCmgZut0RSZpB7MNa0QatIHGPGjiEiq+iWloaWRUfDpJTS3pTkIdFzpTWwAVN5DmdYySkquINGhexzwE+eQQUA0Z5cFZ6tD2KtLgSEaA134AGrSBssnDldlae9QXgBY87ukymqT8BpmkPnhTfAkuRQ2rM6w74NnK09Tw5JBJYnlrY4FoCPjewSsNEfVD6Oxo1aKMnNY0jaOyHVZwT5sd5x3ccZcBaAhkktGkEODpoZbOXZaFovwGlbdW6zgEEsM8sHOWO2SB5FttMnu3XEl1nohrxcUUbOY00nAwcR/WC2A5IXyQnazi8EECpCoQ65splgIQ1Z1JnEYarcWZJrbUIA0TEVVAAqNsprqtIBH7nsj0NYCW8+QDatLzcXvtNAIk23MtrOjELnZ+V1yuemziZAEMRlmI9lJDTUL0RI9+bsoDajldgjInDmRaqUKcSkOAhjMZWQAZ3jso3SnJAjIwSQmVIQ8KQLOv8VSxADQFdEWZKVATPO/ydO+gAMRneLrZOBPHywA/aQiwH/RAYsaSQJ+9Xewl98F22SByowPFdZp5UX7eJtwt3JC3ZzLXee+GvKGgesJCJJctVVIGmlGKLS1pN0GoSnsNr2hMAfZ4Sz9Zlx2wZ7lEWuIDyafv03ZxF0bTW+a53DFdHit20HG/ndkQNzeNDp7aIrlsxAXdJVlX8QJfrpnP4gzvhZMVT8DVbNuW4Zk5260nPRFbl+w2qwJqJnfasPQIXHifvvG/Iq4P548LD4enp9O3ifX/7ccI/en0IcPf/gM=);lineShape=1;strokeColor=#000000;" vertex="1" parent="1">
          <mxGeometry x="54.22361338165774" y="267.1527507141666" width="84.35649983729017" height="26.624631917541517" as="geometry" />
        </mxCell>
        <mxCell id="kLfVIcrVbCrJi5yO7FDx-14" value="" style="shape=stencil(nVjbcloxDPwaXjW+ytZzmv5HZkIapmnIEHr7++qU8QnSgT20bwS0sbVarWVv8t3788PbdpPC+/Gw/7r9uXs8Pm/yp01Ku9fn7WF31E+bfL/Jd0/7w/bLYf/99fH099vDFDl9+rb/Mf2HXydcitR5QqXw+/QNU5K/X3w+xb/sXm28NBMfM6UIAIliNoAUxpJXV6gGkANVtEIktilkodogIAcDKI1SgYBot1SZagCAMP7fzCoPGi4ColCwLLVKApKOjUo0gF4pIEClYlmSRC1dB3QKNucYAgWQ9PzrvEChCHYUqFiOOlOr1+MLBZtAD9QAp0LNMtQaBSBtpdRl3BhSqjvqfVE0oKOcByHnALClEj1H05ZA8xQZFJ4BkLRVyJw8gIEsuJAET2sHLLVIzQGEItBR694AtNABKTUOy5pXSNSBMnryJsYrvZCpW5ZqhRbTC7GVRqmUOwSIBeRKDUhjCUiqX1DpCWD7J/KwtcsA3bFzALV6RCtTsXWIgRhIo3dKrqWpApJELcPWrVEGKavDdScMKCSpfj+NGDAkzTOkykb7V2VbGUVtcGRh4nUXC15BFkVuFBFF4s9CPYqQJWnOYi1JT3iYA/tzQX0zoSpkbxipUgTNJtGXbQWgunMsrWypz7q5MWntHa4LWlH/V8/SVDi8QrR1WJGGdmdwACw+TZrtaYXV3WVh9Lh7EgXfzbA7i7eXle5nv58Vd+neXSb7QhsST9CKQZ5NUDd68L8jJgdw47O6IAY0m3bRMQU5gFqGnVWrDuhohU5slVcbbAb1mGZXYIZnm5a6OuPOxGDGkNkgzmYMyFJaiKmPkf2ax3Q3DudxT7k2xbjxU3D/tIVPTucRWIG1v+zIoDQIWIH1vHWAQhUkXZWl7pOuoIV0KvIeg6+TWW9qixUS0JKalrNuBWR8O3QXVgUUsII2vZP3lDRQq/quMz71ZgEs5TE6zvEFDpN1cZFR1kDKOrdZirjDcbiNy+/cz0IFTZKUbZHL7AhX4sUafQl4JhkXkDPLQ6qbfN0WYKIYdI5WLLs5DMv042i97VlF46u7L4xOuhyf/HtBHqPotfjmpjZ8F87+/hKHd1yOL97tAmwyPcRcV+K3hTgL+Mb47meFlf0sj3KYb5pPvNv4TIsRFddL493jBdbDfzzjrcTrh483w6fdy8vpyfH8d//GqF+d3ifz/R8=);lineShape=1;strokeColor=#000000;" vertex="1" parent="1">
          <mxGeometry x="57.813454563068944" y="289.8464023085198" width="35.16427832893233" height="28.92634234531632" as="geometry" />
        </mxCell>
        <mxCell id="kLfVIcrVbCrJi5yO7FDx-15" value="" style="shape=stencil(lVjZctswDPwavWJ4H89p+h+ZiVN76sYZx+nx9wXrkhGgaOW8yRLWxLFYkJz83ev+4WU3OfN6OZ++734dHi/7yX+ZnDs873fnw4WfJn8/+bun03n37Xx6e368/n55aJbt6cfpZ/uH31ecdVRLQznz5/rGBaru35uvV8Dx8DwHeDJVALwlkyDAK0AhYyAgZwEImUIBgEBGAmKi4iHAWwFIgUKEgOgEIDsyKEucROlSLpRQlioZ6VIJ5MI6wBWycQEAafWx/98AcKLBCsFRtBqAgo5msYIjB+oQc3dgACwF4BKXKUu2FkMFpDWHzs0ZIACXmgNVAxwImnOSpEvZUwQxMKDIoFPqtV8DVAngvCEuMRGMZGuokEttBVnp99qvAVQDeSYfaCAmQpIxuAQ7juugdMnmLgtrgP8tPwoHVaZRU2UVO+T75xEyWeRPJC/9seSBiBWuqSQe866u21f+XJQ9irc6nR8DaVqjFlULO60mrdrMc9A3lcsp85nIAcqxfTWqvhnlJ/e2Hf7bnrG1gLOUCh5EAUXgdcWa6iOXbFfDAYgwR4VnhlsAkHolskEDkGSXhT62oBGtWRiqTqtH2sK0UZINecQLqEGYYNnYvsoIfF9wLWKlRLaL31pKi+Q19w1KUKVglf1GXxpt78D/19BlZKYrqI+T1gnWLdxnaupHqFutL2Uf8wtA0Q/tUZeVhQ6x0qAAuGnkAhwBVJbaP48McYpQySpl2cfB9qDWAEW6tDGQGVDlCm3koy2wGSyb7Sosymtd7FDxhrOlSQLaCEVMTTqv3BsZjdjc5bMD2hACgpqr3pbXIYAfA6wW1AYAbE1OTykGJJDWyFNE1oEJ7wGZQtH9zwRGLgWjBYYBiH2eJVsqAJcygcK1flFjx2ARs6XHOFuioBbqc2+WpQj47bVo8PC16MBGVg0drgII2fSUj2YYPb5ir7pt4zxodCtsHDiN3mxunGiN3rtsHZl1vFtn8n5ouvXQ3/eWt94qdEkf9h5OWdePusPewd3y8pbDwt170E25MZXjYmfHLYZ0pUc3s/dgRi2G5oZ97dm40R9r9NTfCNguK4wzah152fIbJWNA+RQnPn+VtQ3gh/ebs6fD8Xi9eJt/1zdt/Op6S+fv/wI=);lineShape=1;strokeColor=#000000;" vertex="1" parent="1">
          <mxGeometry x="100.65615401265927" y="286.1994664770541" width="32.27922004774598" height="32.637422570204535" as="geometry" />
        </mxCell>
        <mxCell id="kLfVIcrVbCrJi5yO7FDx-17" value="" style="shape=stencil(nVrbctw2DP2afeWQBG94TtP/yEyc2lPXzjhO2/x9wG4pi4faI7dvuxIgkbgcHIC6yIdv95++3l2i//b68vz73V8Pn1/vL/LLJcaHp/u7l4dX+3WRjxf58OX55e63l+fvT5+v/79+6pL91x/Pf/Yn/H3V8877rhT9j+sFjc7Hf678epV/fHia5INO8q26Epi8zM9vyUll8jnP8t4pfb6WSb5WF4l8cFlmeaHy0cksX5pr6ba8OJnXX5IL+bZ8cmWWzzosdihfXGizvNmz3Zavrs3ySccbD+Xtbprls4skHkJwCRQCd4C4MHtM6njnsUJyLcwKySViolCczDEqtki2h8VIsbnK9mA+mpdkfomFRJEfSbIpWFiQJVmc1nkPFonMD3YbEqGnErFSX8DsuNCcMoXs8rwHs5uwTVfnZ7OG7BrbQxupvikkFwlYiGV/nRWiq+QNYsE3w5HF77+AdqyQMVrVVZb+Fa3aaHqKOj/voI4XHsNFcB7wZVw4lrcNz8/PwynH8tlJnNN5AM6xfB2ZteUajQlDH8DH6ApxWA4YQ7w8ZfM/RIQrJKhzQfsH/vzq6rweP154DNd2W0A+kngr5i+U96wcZLSnFWiCXMX8pSCfiH+LuqxgHyHPr2ZugKFR0I/lxdU5IcUpK2cZgTTz8lex3heK7FXH7bd8VOKvZuE457sOBx7LG6DN/gp+IMaxQkEHd8QiO2gGOIDrkZYa9SNDNgVxmeTwG0Pc4XokQaoyKN+uclSmkJZyGQYPO1bI6DaLCxbXavV6tlJnSsxKZRSWLVA9RWqtiLwSXSJQYQp5hhbjOZXtwUJz3oNVH8+s1EY13RR0mOGWQp4VrP4kEnyqmA5WUCpbkg6yuCk0CnimAOGd/ShZtxQSMGwrOcysii1IzjSnTQExqXKOrQiS5SSWdKx4U7A9sFhaFfJgPjcVZpzvleJkD6DAmZEpQAIZ9jO+2RVmP9TK80GxNrdAe01TaPOSDJ4TQfuuMDvOul/PHafQ/upZtAKNN7QV4ofg1w6+UuK/rsnSnLWc3dWgoJQk2e2QUSEzRzSEvr5IhjMGfVhGOVEyDcCN7kyW1cW1ZdcU+5a207ZVWTSVpbdoAz5vKszxaruKfA8RllR4Vhds/3tl5TUIXZ0pwTWFurzhpGgBeThX0EWBLklHXX7vphfcODOrDhL5XscpxvdZaCzoehZ8ywjjLLwbdlZnCdQwvN+Ro3nJUQoDZUHLE6ApOMM4g7KC/OQMLMtg5++F4/+jALHBS8S6h7MiVLBJOStzC86cFdKCY9WzUl3GWOG9ZGBB4zO6UXCScUZoVoXKCX4ZCbYnZdwPsAejfZRNL82iEUvWrnfHwXionlVFnD/nschbCn6h38qslJ3OZjWCT7luRmCyFiKxaM1o1pQ4Gqcx8t8UPO8IEk5ZrDNjYw1NWNkl02MGa6mBfotwKwmCQB+KM4Wtw9g6ZB2wcEsBZqtvA+BbgwfoX6PQdtRgCyp7n14RT7eGhxN91M+nLVDZQ6ED5ZYPZiFsINgibjrwLr95bOWC0CXVhp4OcVS9WzO1uoyYmOPWoZ3SIW4NS9tEzzLKQpcKBaXS8JCRDx0MdhUOxagL+hGeB3kWdobSUA7TaD6Oh8qK9kx0fpCXypMpOcyC68l0/dkjcyvUX4a3EeVZqU1ljAvfhqxsHGjwDEPxRlleiliklNLztBxSB44rshWYXcZkdsyz8E7LSWYiWSqIwQQjeX24uABRY0vaBv87bKTHeUsDEHiL0Y+mZrf1KS5ZksE/Hh4k2rnFOA6CNwV+HNZPd2BJ1lfxk15oScRT/h8qYot5ppFg7afV8AaOXhYIYCULx8ZGREvJSZFO00NYhrKFz4lHw7KnbMRIFeuBkUhGwAq62WitJzbNiC+G4CxSE+KjVSBGamWUu11vUag8tHjWvDD7RKwHjX9TEUda7dovdoITsYO0/o5Riji6v13HyfjvckBk8gyAA1J+k2etV1hGEUIHC2EZLwo9sArYbPYTLJYwSwsv9AsVj/Hfn0/ix7JJFnn6/LSshx0y+pF9O/sriQePfKg3C8S//iAeGCH67x+lncnbj7cv4L48PD5eP6Db38cv5uzS9Ws7+fgT);lineShape=1;strokeColor=#000000;" vertex="1" parent="1">
          <mxGeometry x="317.06773102457737" y="80.34003851718217" width="122.99019964405015" height="95.56456588027706" as="geometry" />
        </mxCell>
        <mxCell id="kLfVIcrVbCrJi5yO7FDx-18" value="" style="shape=stencil(lVtbchw3EDuNfll8s/ntJPdwleVYFcdyyc7r9gGj4uwSnIHiP1kmdvnoRqNB6iG9+/bp/dfHh+i/fX95/u3xr6cP3z89pJ8eYnz68unx5ek7fnpIPz+kdx+fXx5/fXn+48uH139/fT9Gjp9+f/5zfMLfr7iYnNlARf/P62+qS/G/X/zyOv7z05f78dGVsIwvrlcx3rueabyl6/Ghu1xpfCtifHPd+PPF/EN1ufB6gxifXU/L+Oa8+vzkaqXxXY2PvN7uQhbjg4vr+OCdeQHwLsQVEF0V34DvXxeMLShivG3jqytiQs3Fvo63uQWn4/Fp64IRUlVExBFfx/jkijiB4vwaEJihOoHs4vr5KbgsxieX14RJyJguMobnn7qMICTkOj4n51VGutjW8U1mAMav8VO8a3L+lGAluSb2J7pO46vrTe1nJULproj5ZCasGlwT8VlcIYJA/Ij51Lm6Y3xxScSn8X7WNlP6Ih+JgCoy1CRD0AE0PznpioLaGhEtao7LM8AOAIJcAco8oQNQJKeA1bNfAaBRxXLm0loGWnde7VJngPmZGFeFjPLYjo0+B4RJOwcgysBDJlDpsOS6ysw0mf8AZJk6yAVbz8GKzuXCyWl1nsw5ANWxMaCr7Ec60Dng7MXBIR/qmg9mzos1gJ5DYIA6h7SfA4JFAVASMgNMUVh1fj247ifrnAOMt7WHGY7npOe5avYoWQZFI6/n0NMsjOcA8F5kgOJ5lI2wxlLPMwfPAWD6yAAVSwXBt4ZGLy4r6vZMAgCoBEIpaHRwVZ5DrbN23wGaUjsb3XddDsHVlba1zeg6B+RJKvffINbQKtcHAJSCbDZbiDtAECkKrm6Bz0GlKKiX86FMmXsO2GV2lqrTtr5ohLeIVjApERkyrotOB8TI4R1kKwViNAL4Sc/nAOM1WNdT6qw98RsVS4OFiCqbFCfYEyNAkQWlb+dgSdYHnCtFKwp7FYseHLEGH7SGajBGMJPASpK9ATCSoF1K7t64yYOmVAILACpZELmKWwEwUt02i9jlN6zSoSCBRE4DEAgQ9DegEV+rKBoTVUX7oSEPAJS3AhwzPgBRtqoIPuqV0IupXhLhTc1kOrL8HOCnu3EAUPUU83XepeSlYTPUEfXDEFial7iBLvMjrpiPhO7o6URoQKWSJQGtrCQc2JuELuS7qqKoDyR/0CAo2wkckSMDogCgxtU1NNCzFDGlvSgCkHQV9QSoUqyDttpKlUGrmRvP3Vk9qgINAE0pyRQdU1qZD82msudGm0eAoMWJMc0Mh0wfHEXrMNDUGrYqOgCC7qFm4raGN+RP8QxQ0Tr0kudtbRrACZRmmbz8BtrWPCv3FYAqEILPRAUCIK9EFo6O4goQCNBkW4aD4zU0WacB4Ck12eKP4AsM8Cpat7KLRSvXYWTcltNKOpykaJZldwCIyJILmgSoPiD4ZHgf/fldeKsKNM6BtlUL3XHSuymuYulHAcMcyrwGFXyoQKnzLskqGrmfDm/0D6iidHD6pIfXsxWUIGLppuXvi6Iqu8bBF71umjrT/TDrlTLGtpI4qdLchCKjChS1dIBI9OTXa9sOMpRFYpkpdSV0CwFs+nKX2nvd1hw0wKbtcQDA3kp7d46lbNIC7hvdl6Bd7M3XGP2Dugj0nk2ycqiJq6+g/hhNUFB92VaChnWv95Xs0Np1bNgkiaNVzFKd4KhJCjQtXIcVQw5tlIIJ4WpkVupCjYRgU8Ak9fXENy7ocmRfFma78D+dEHxeJM8rzVuwK55hcybP31wxWdgNJrEGOzP6lH+6d01vGH3ge/a8mrwaRyCQUz7CUe1SYOEKgKKNISsJ0Oft1mUT1BkgFVbdPK8u+b5t9/WDeZRKjHyfeMc8lxbttmrpGtfNS+yyLNbtEcEb2zSM7G3VXlnllZ9N4KjVLWdJXLS6SfFQPKu+Wxm7ulA4MbLFLuW0BVOVLJA934z2InVlavx4BYAkog+V3zabWVXqlLddylIApcgFAoAgFp38lhBJ0gb0EalvANSio81Qu3O+1aJj5cYMAGVvxnJilctvyCyAAIhq0YlfpXSvpxRnbN5Z5eomCEqY715tfue5AOpsDQ49ru7xjXtFFCX1EiRsrrFp/yfsYiNJKwTNKpHrrc05BySOVnReKh/GYyZ6WmCSjENg0dc0L4WNyFCUVCwZO7SoSeqBSmPrsSV5vVY4LlqQ/caWC7VLHzHx9UbVLkjYRHGWJnngrhIyXZV0zwZFMdkYe+7Hin5yuPcZUXoyng313GRH6dmhRDOmLP6tSqHbU6LKc81JTb/GYeGZoqyCcWu5tTWe+HxHTy8faBGTjrc5Ynzh8wpFWpOFi/gwuOSDrr75vUpBbj69yVcKnT3DKi9LwvbuKM/5XfEbWb16tdgMdqtlOxjyppelrzUMzjU8vTzd0LiR0mocwUK3gF6+BLhN9zZePuOKrD30dUHc/KOg55P3/VcuHsazsSjvMMf7R7Kc35JOpCKiPC+MJys1vvUGjcSfZocxfp1Plmw4xnO+mNJlWC8/aFfPN2M+eaCu50/WgzZd49YRVCkTf/gB/5vj8cPtrwU+Pn3+/PrHBvf/z39dgF+9/mVC+vlf);lineShape=1;strokeColor=#000000;" vertex="1" parent="1">
          <mxGeometry x="266.64459615278633" y="143.7220026822588" width="215.86061558610558" height="70.2474082194173" as="geometry" />
        </mxCell>
        <mxCell id="kLfVIcrVbCrJi5yO7FDx-19" value="" style="shape=stencil(lVrJch03DPwaXVngBhJnx/kPV1mOVFEkl6xsfx8wrzgeAnz9pJsW9AyxN8C5y59+PHz5fn+X6Mfb68vv938/fn17uMu/3KX0+Pxw//r4pj/d5c93+dO3l9f7315f/nz+evn9+5chOX764+Wv8YR/LrgYeh2gRP9e/lBCiv//4deL+NPj8yreFvEemJC4pEU85vmAa/K8yksgIJ8CrafX40dB8mk9fpKQ4fM5LvJZzZOuy+eQyiovoYHnZ6tv0ecDexZrzyKhlOvyNfS+yNcSMng+B6FVXkIE8s2en/M84Va+h77ak9v04FZegqznbxQi0DdSkPUFLWFAdG/QCGIAyNNBB4BDBiEXSyirz1oPDR2phrIatVNoHQA4lDULegoN6dBCXcO047CIPdS8Aio2qzrO1AkOEdQVzXzuFiDgDZqabfV0byEDK41c6xYgGQBqaKvjujoOFZdmg69r9gOzZrKeFgoZpEPW4OsW0IGVMs9yeABiiOgNMt10AqAjFS3BZAEF+EErXC8WUBFAo5UtgFHRo0AeABxX07TJCdBAGat5owODOl81XbpTGpi1svN0xJW+h9gsIIOM08ouTocEdGDt/c6sGRyJ0wZQwJG4hOp0QO2Wq2Uvmg+o3452QxYAG6Izq+Z0B45jme3jBEBKa0fLDkAgH7SjkSszBPzQcqBkAbCrl40OiBW2utEBhYb2THZHKsBxrYUuFlBBTredHxiYte/80EB/6NE1RQWA0NCu7JVGTKDnWefOAOAH7crFARA50SZrCpn2uIIAffb9UxeNyKxiKfHPQ+4pH82ydWIzKDRGjVjfoASrAiuJmzI04AvgS5JtxvGh1TWAMatWqgoyTool6kxwsJI6Y/Ng6hWWGdGGsiaQtkk0iimgroBy9KQ9oFkrFYKMTAFmGss1MMg4cUxgjG/ISi2wATQcfK7MpArLvXQ7DuiMhriGAmq3AFTuFSAfA4gtZApAVUMB3JzS+A3WSg1yvkhk+27CDULc5Jc1zVGO6pnWhFCyDEdLsWRDZ/sKyIYCknlDxXWm2yqgADQdK6A4ABogFEDd6gA9p/FN1kqIh44MitYPMCHafN7J02iQ829IHdIZr0NiHEv6PJfUdMMPbq2E+M/wtAMQTjnTsxRQUOkTVzbqLYDJh7HcwUeydabD4NsktQ60qH5/HDHUXrXQnlIxwPAT7Vpo4FXXtbUMVDwsKsCMcjp6Jdy1TIDrYAQbKdstHx90+RrADCljqEA61NmYD0CeJf0aPzE6KCGHSmfH1294Os+kP+2kBNU+ZXFm66UjBAbQGkuSYCzp88w2VPCRlBybvZp6Bu0RBnc225YGSdngzmaf02cbe+cIoQA4BrkhZQDQVOPGoAFAU40btAYAtHY/yo2kReOoY3GjQKOB142jg3UBx/mBVwsPYht+pB6VCk352UWrTAZ/dS2QLCAjs9JMlxMAJRCLHSFGeUb7nO6WWHgG5zb3EidABymqY5U4KwlazxQ71Zya0tUtVnRnQoC4AVTgiOro9AgmoPXY9blwRZPW2CaaKtBgUo99JVsAot9jI2ocwbCjbHauDKvAZqvLkJ9s9sYM1y2bzTRDT2923wzp92a7rr0eWGmzv2/T91dvCLzj0JFo0sgTAC0SdNSzW90GO7sSVXYAVFxTtssQObawe0Bye+MOF5wpzrp1PhK69j4uck6AjKhu34Q32jFFtkspJWmoGsfqwjvDu+NYNvcoKJZitoAbm+mY5mX6AcAJFKO1kpI+dBckM1tOu8GMCJa9hmwC863ZO5GGs6fZntvw3FftDaH2VBRGriJp/4LZPC8oj9lEezao82leLB/ymnsoJOywVDr8PiPO/x7yCT6fbHfODQ4yNLU7bSfQIoosqRpfVAD7u3n1xvcoZIeYG9+7kN3f4M9pyNIjvJZQcbOwggWC3CoTLrlpZt6hK6xXNB0zxQmORmR3knTjMN2KI1IXrd1viRviiw8T533F+1SNs32+z5BxXjK9z03R7UVxl/jw92BYXH/4+enZt8enp8uXa+f/20/V9E+Xz9zy5/8A);lineShape=1;strokeColor=#000000;" vertex="1" parent="1">
          <mxGeometry x="269.59488707766764" y="181.82554231521567" width="211.93037557753826" height="43.71272686572828" as="geometry" />
        </mxCell>
        <mxCell id="kLfVIcrVbCrJi5yO7FDx-20" value="" style="shape=stencil(lVjZUttAEPwav07t7uz5TMh/UIUJrhBMGXL9fVrlrPGM7A55M2JbmqOnp6WN3rw+3r1sNym8vh32X7c/d/dvjxv9tElp9/y4Peze8Gujtxu9edgftl8O++/P98e/X+6Wk8uvb/sfyx1+HXExyNAFlcLvv1ei9OOVz0fA0+75DNBkDHs+S+rsfEjmfEpSBr1/N+c1ykjXzw/RYM8PyeT+SLg3A8hNIgMgXptBybMGlwFZmgXUJCkTQJNSLKBJrtcBCTlEA2hBKgkpZYm2y00lkaqirMmG1IqMch2gKtn2rTVphBfapDvAoETK0TO1B4mNAKok2+keJZCyliA5e8BggCJqh6EnaYEAhp8eACp5QsVwqQ+pkqTrmGQ+K2sngJZFq28c49LSJselLJ3k0FWiHdEWpUUCqBJs4zAPgWhS76J2HmqcrbwsGqi6HdE8pBLyDZ0Rn6nGYE8oXvcACCTpUSXbKoG/g4XULoTE+jC69FXShcz0QE3sE0qkXBorekMqmdgvAMulAuVjVYK4W0ANElgOfaWtiSofyqqOfEpnGo1zncbQKqNGllo8gOkSyOdkBjkMFlIS7b5KlEvRr6zS6RYFwMk9tJDNNADVUQM5MABycCGFOSFXq+To3bkIgJsrJ5CIzGCmh90PGNHOqoT7Df+EzAao+7IiB9rp4amBEQ0s6TGrfgIo3UAxYMCsMJU6o7wqG7ZMWHuJtbp7KwD5LrxMFwBsgtBqZ5h0Tu3VgVit0UjqihUUnHfIdEH0lSXDLSoJqfXpRSZgGRHCDaTo7AwIzPpQu0RbJRC4kJAgQ8324Z2Pl/0PnmCl74xelxE6Qz57RCGAZafZui5sIRsil+m1z7Jmrg9G1BkgACLRDa3ebWBnRGamT69gJ8BpZ1y261hatq7gRiedS+r9/QjSmAwM/wTQNZI+ROwDB4AlIrKxvGdZnYHVTUz7pp8686GF0dtrwOIqWZ+9cwB7G2uzBCfFKClRsTit0UnrIyUq1p+NR/mb+kq3l6aTBgQ/B1GpvqSVs5JMKFeku3DmoF7WRy/AYb6nXCGDIw+XlRimCfzw+eHPK+lVPO2jUzHpWgb5o68O20/rjxJKrQvON+d16LLB+W7jr/8aXrcJGn21WMff6bZc6mOHFx2JTK+iN3e4whb4f38I+wAAP96/uz3snp6On+3O/++/0+HS8Ruf3v4B);lineShape=1;strokeColor=#000000;" vertex="1" parent="1">
          <mxGeometry x="284.38934892756583" y="210.538474661784" width="60.268148422191345" height="29.456499819089384" as="geometry" />
        </mxCell>
        <mxCell id="kLfVIcrVbCrJi5yO7FDx-21" value="" style="shape=stencil(lVjZUhtBDPwav6p0zPlMkv+gChNcIZgCcv195Djj7Gi9neJtWdQena2e3dnN68Pt836n/Pr2cvyy/3G4e3vY2Yed6uHpYf9yePOnnX3c2c398WX/+eX47enu/Pfz7cny9PT1+P30Cz/PuEK5nEDKv84vpFLNf958Ots/Hp4W9pVynuw1U07b9p26TfZWSGXbXpRSnwDJSDsAZKrzCZmpAY+kE/MMqMQAoEpWJ0BxJwsAFOI2AyolcIIxFZ0A1c8EJ1gmnstWM7UGAJ10rlttxLYN8KwbR0AFJyTvmxBDJwMnZKXCEYBaz8skFgGlbgOKjNZcABjEUApJSGslUwDwEGUGCDU0Pko5tEaCzed1DYXzNCg6oVGes5QadTBATUgDQKiD5mtGbQ7aEhlwqRUqK9JIyKVGbXZJClVQ6c6jES51oATq1oUssMwo5HV7L9scssBx60Z9HgYeB16393zkYP+XpK7bF+o12FfEwi1Os2LWXvV1hqzt9m1u60YJ1atH/8V7DiW0Uw6APFh5K+I6RywN7pFeh8eXFDElwF9eA55z5E2Rwdz0NLbGEoCC1jG4S5dQ0DIIdBE0mkyfm1A3uXTiFiDE4AubUdAcObgNBbEVgoTtTIpzJLGzC5ocG0VdTA5KaaKegv1/JjO1YA/7tFKbayxQvfgghK5LpNi+hh1IhtQRc5RHwoPvN08ILZFwyd4NyDGnvnAg3Wlki5Sg2mkuJALfGTFeaYEtTmIDASxOmmvCilziUadL4QrsJJcqYcs2hfRSU1RsngYBs+zaRucs+XRkJMBWtwunZZRWF9Y6B+3NosAlF0OWI6CD+XTVmcImZzzRLmy1xiMK6L6kUc2fhhap+TrE/gVQIYmZRrnghShA7/jQh8p5qdG+VVs1Ux5EuHWrCpLNG7gCl3zRlNDfiQT0hi8amdPqE4Q2ehvXj8tMN8gaaajeC2n4OKAcrVipQ384ah6/HGfAAEyy0hcFtNGauDu8i3C8pQq+EnIcNRflSDT72gj+OOGgm3zU5GKQUl14BHuF10GlVqO9oimj0qK9gN9fyTtRyI55dNciXnRJyCN7i3wifi+DORf1QjR09VPQe+2nevnDv+9O94fHx/Nnq+X/43cqf3X+xmUffwM=);lineShape=1;strokeColor=#000000;" vertex="1" parent="1">
          <mxGeometry x="381.81205806111166" y="221.50859013615855" width="55.570929921785066" height="24.48235031512695" as="geometry" />
        </mxCell>
        <mxCell id="kLfVIcrVbCrJi5yO7FDx-27" value="" style="shape=stencil(lVjLbhsxDPwaXwlKoijpnKb/ESBOYzSNAyd9/X25NaRYtHcM3zaOZvkakqPdpLv354e37Sby+8dh/337e/f48bxJXzYx7l6ft4fdhz1t0v0m3T3tD9tvh/3P18fj328Py8nl6cf+1/KGP0ecUogLKPLf/kPS/z98PR5/2b3Ox9N0PAiVhs7L/PoolNL6+UIxTOeTENf185V09keEIq+fD0x5NpANkAEgEbsEJQrIgoU8u1S4B3UREJlSngGZFNRgSaEDNMoFABrxHHSNlEEVLOlttlCFBLgkgVrxgBYBwEKsHqACAI00eAAD5uVE1cWQIDVyJTnLEgOXNFJzACYBddBC7ApXKQFqGHPKnCWjRkEA6dwcAHMSBG3McS6pkoK0Wk50rnRu1FCH2oBwgAS5VLU35Ohp7YS/DCidOWNoNBLkUqMwu5QiFWChJd9AYdBxDVBnl0KBaW2jXQZgzJHLgPNJnKmBtLbip4ZZSIDezfoh+xgy6OnWOplPspRAHQzgWjQGKsBCYCae+b0MQ8BvM1F0Bmg3ugYIc+VsegZU6nq2spgqqlzpG20AAgZknyajK6NCSN8fJxbQVje6ujVqQTfEjUjVpbVQRfyOnkwxk2ALbo3G2Htq1SVHDb4WdHYdZKVEAKHsmlo7u9YKV86amnFTt7MeDajS1c9761G0s4zerD7ocqWBgk8r2igGaG0GJDzJbArM/RCvZGlMlQEYq/sGAIoh+70rjF1KXlaaXkGysoWzraiU0ZJrXe2MRZ27/Fjbu64OJg4EWDAp4DZ7HU5eBqhPa80UwLw3LeL6odY+bS8LJpP3M70tbwyCVvFyZqkMaFETL2keAlZ7pKWzeLFh8xzKSvZiw5o2gxhM7bgbx8LfK+K7ekAFdUi1z4gxBD4X69qFIIo3gbhhO1DUA9DOsv3hJpnlVREgePYtouvKxWxuCGMfunKE0B04aQg0yWz0zpUugSJYiuJVpbERydDo3y947jGp0w0KAz4XV7lbXDt/08cAPrtrQF6zV2ICZRL3kT6iheLTRJrba1DmDQE1YoW3z+hLa1oE3dD9YLzSjl5M4eN2KdQbnBGfGRxq9vcKnMjsFx8uk3qOYRLc/jkLH7eHzy9nT7uXl+OHt9P/+y9t9tPxK126/wc=);lineShape=1;strokeColor=#000000;" vertex="1" parent="1">
          <mxGeometry x="279.1223500858757" y="241.83238412984633" width="60.92114308344378" height="28.825765892233335" as="geometry" />
        </mxCell>
        <mxCell id="kLfVIcrVbCrJi5yO7FDx-28" value="" style="shape=stencil(lVjZctswDPwav2J4gSSe0/Y/MhOn8TSNM056/X2hesiIoLRJ32SZKxLXYsFDvHl5uH0+HoJ7eb2cvx1/ne5eHw7x0yGE09PD8XJ61adD/HyIN/fny/Hr5fzj6e76+/l2Wbk8fT//XL7w+4qLxG4BBffn+iJQln8vvlyXP56eVsuZchiW+0Sl7q8vVMv4+USJ99cLsQzroyOO++u9J/YjoFAABvjY7GuAlCiiHTL5NABY98wAUKnEEVApln1A8BRHp+bU3mwDItU6AoSSA4DcnN4AJUIbNA5+9FIp5IENMZAfj1QdBQ8ATCmPgNByZRtQScZIVyYHjE6BojlSppwAgG2y1kICkjUJxTE1aoU2cKBijNZPgDiwJh9bQAI2cP97BXDgSDnYilMbAgIwcbVecqCAcp3iwHCH4smbSMfmhm2A1rQJnKOMAJnceCRNb0hjtdVXByTKIPn0AMVUnCcHIq0mujEOuUCj1YmmprN6CR2pWO5mnBqicTAAD7NVsmWNKFQR22dbcVrlFe2gNkQLQP1BNPlk2gEZ3X3yURukJUJvKL4l/B5ARremSBEEzjvXiK4juJm1t0Ud3ZQKpA2ZaEO5LSCra3NKzw0tOcD3CpjbKLShtKa57rvATZpMJjf0SIJyg0nEGl2Q0dxyrQMqriAlupFnUmeeXYA5UiTBO9gjeRK0Q55yycHsm92qBeGBOpkDt9QoKuopNRSQkQ1T8umREtphTm9HFdmgBWQAobnhwzWaoJLeoIEMe5BM2liz750d3Kg2tCACtnoDgIqaLc8wlokSrJ5ROeFR5NzUFpWYAJPV3shXUhfRsfbRaDp1gSPKolONPFFiAkYvStjIE4Y2LGJkTA3VZAziUFQJjwDBXFkmuS6pfWJbxHWvd0BuKm0bMI1NygsVGK1CVMZc0jIXNIqKFaKavwUYzdnqylXV7ul1ZrtFBcmkFSnFAtB0mabsEzwsKr2b6VKw/FYuNVpX+p7bgNREXgdg+a0jehlrVHBLCcVKV53MKgKkaaoJUH7rSJ3HUC81hfi7WjbWEnHoHiE3olsxGewQ0RrNOlSAkvOuSeEVGxfEM9Zm1Q6I7rMdRiMuabblEwTfa0x3RXje6L2mhwBeamjpmlZCAXSSqT8rZwI6mr4eoWCYzh6ggnGUxuTxbYLdWV7Hszs4JXkKdjm8Emu3Im/LESkGyyfvLedglkNusLc8Dt8KtSll5Ujg9/+87Xx3uT68Xazenx4fr/ey6//tRay+ul7ixs9/AQ==);lineShape=1;strokeColor=#000000;" vertex="1" parent="1">
          <mxGeometry x="261.428987781532" y="274.10668189016064" width="84.67071367180874" height="30.902838258297344" as="geometry" />
        </mxCell>
        <mxCell id="kLfVIcrVbCrJi5yO7FDx-29" value="" style="shape=stencil(lVjZchQxDPyafVXJls/nAP9BFQnZIiRUCNff08PiyViz0xRvm417ZV2tlk928/X+/ZfbU9SvL89Pn25/nD+83J/szSnG8+P97fP5BZ9O9vZkN3dPz7cfn5++PX64/P3l/XJy+fT56fvyCz8vuCihLaCov9Yv+p8v3l2OP5wfN8dN+nw8mIR8fL6I6fzzJjEcn29icTpvKmrH54NKzTOgSo0EYJJnQMrSGKBITRMgJ1ECiOp9LkE68Xkf1NKGV9cBcDFMgJokkStZkDQ7XbuESgBZwmyhReqDNSlzlFoegb4KSIiJA1SJiQDyKIQV0CSS0kh1ZwFhJbWdVYqz0EWVAFD7OwudXClnKdEDCnE6t10eGu83ldx9WFkDFfhQdokjtVSy1Lm8G1qK1BKKOToLQWI7BlTdlTeiRBJXzUepoqeJ0/j33xuvgCiNhBUXUNfTXRrjMZDAfKVSRnVdB0RJDgCmJFdqyVMlcq8krCgEm2kGRMYSh+pvcz+kTqPU0dNz8aFpEwOk0fIre3dKxr1IdgATJXnoVcKcOHAhK28A/EBRWku9+cTBApsPvXsisyhK8gBANu9044A2l7cViWzGqfr6BqF3Qn0w0efqA6EXDnDkmjBGCwU4YkqFp7pJdgA+UZDqrh7A2BiAmD0gMB/Q8+5KICZmoQx1tAKMV1/2Qw55MGYBF5hZYBndzELZlStssuqD5ptZAOVaeJT6rkfZGEUefEOodGahDVG7bWoOcNSHK9EodU+ucDryfqjNh9XIkFs6zgHqoNtDwMwCaR2sh1dy5W10UC9Ou54G3/8jSv8HyL6n8/rNdYB5msmd6lDMLHclzF02IBYR6eZupWp90VNOnUQqZ1711EbOFCY2ghcblQtXyJm+k/eMyGrxCwS8Ckxh2WjIjXBVprCwosyArnTIleZZA7lnSxAEmBMbqK5CynspBHclEA8DqJ+74BFGlZD30fnQqdPLAjFX62Z0H+0o2ncmSJiwBeXoAWyiYAY6JnudxNcBaUjnTVwT8XqRFrvMsbjabuVAbTC+t+QXM1QftaBDCW/2LPZwEovXxoviJ1eK5pUrmpCtr6F7p7GjsAERss90iXSjDnH0/GaDoPrHPy6B7tkrwk4uGafW5IkSFhtp0OBJKfD1W71sqHSW6BC0azwlk9bcaW4IABJMHep3DeaI7tFxJxco/+pYEF7fAdkSo37pCbQQVMrcLTpm4sHxbu54IJcJXjRzSgwjK5tfJ60epBZ3nC060WcVt2O88H/vr/88jg+vT71354eHy0vx9v/+aRhfXZ6V7e1v);lineShape=1;strokeColor=#000000;" vertex="1" parent="1">
          <mxGeometry x="248.3913299920789" y="308.38509900575286" width="107.41710197600564" height="26.320309834856822" as="geometry" />
        </mxCell>
        <mxCell id="kLfVIcrVbCrJi5yO7FDx-30" value="" style="shape=stencil(lVhJbhtBDHyNrgR77z47zj8MWI6FOJZhO9vvU4rQE5EzKiM3qcVqcSkWObNLN2+Pdy/7XdS399fj1/3Pw/374y592sV4eH7cvx7e8WmXbnfp5uH4uv/yevz+fH/+/nJ3sjx9+nb8cbrh1xmXJLcTKOrv80EI0vPfk89n+6fD84V9kxSNfSyi4bo9rqvFAFKRPggA96kB5CilEkCf9y2AIZUAEHMKBlCqNOJS7B5QE40h4WebpaY0qwkeO0CdJ5uAXKTYLHWV3K8DSpBgs9SjpEIAcCB4QCNprWFmfQEEGQxQJVUfQ0iEeyrNutSalEYA2ceAk0jY2rpotpUe0olLPc37Fi71WZltQJVug0YpI6n0QE4sNRJOSNAjey5lGYQZo0weLC0tSsg9qkRrr5LY/U1icvZKemF0Cd1KkgRSszG8YEDTCO1g70ixlOSa/bDxBp0nVwFOU5FiwomTRy7iIZn/Q7AhoGaDcWKlYLFQmqJoycaALLHuByvS8IBKOge0c5MHLtE6Z9/9CJoSL6+I1KWxoNOq0pmKKv5BLbVBjcAKh/tsb1YJLKsYhjYE1JkndVj9wtxhEVcZ6uyV06I3Z1+ZPRLutaVwYmfrf5HKtGJ4f4YUYh9UvVgEzGruUbesA4kC0+shyXIC+jV4968BbLsAiaIT+M7lAgLtplqmg7aX1TrS6Q6G1aC6dWRh7vagHX5uwkllo7z4ZeHUrWxZWC08IHshacU64vYXsDcTMmHhaQ4AIScxYKUqXi54vxWdMV78RSYimZdZvwDalM3tzbNPgVgAi0ZtA6KX4T4oABLnXMLSFAg3QH+/5mHlIIDQRK3KVOgO4QZ6Xt0KoFOotjvIb9slziViuwxz9C0dqhIJ99Q/L3ywk+js94vZGQlV1fcCdqRImKp+rqEmrJ3XqooCcHvrT0BrEA6pX18CJ6n6/Ader7Ca44t6XLEvzh+dS/E2pUVtfflTRfQ6Meh2lza2EPYA/L/P/B/b48O/FwwPh6en8/uJy9/9CwkcnV9mpNs/);lineShape=1;strokeColor=#000000;" vertex="1" parent="1">
          <mxGeometry x="378.9221587894813" y="248.13076745576518" width="65.76388110896423" height="14.826350536193711" as="geometry" />
        </mxCell>
        <mxCell id="kLfVIcrVbCrJi5yO7FDx-31" value="" style="shape=stencil(lVjLbttADPwaXwku931O0/8IEKc26saB477+vlSNlU1amiA3xeGsdsnhcFab+PC+e3rbboTfz6fj9+3v/fN5t4lfNiL71932tD/r0yY+buLDy/G0/XY6/nx9vvz99jRFTk8/jr+mFf5ccJFCnUDCf8cPRf7/8PUSfti/3oRnCtGEB6EI4hs1MfHT+nU9PgSSbgGdWgCARKHZAxRKCFAp2ROnSJXXARJ8irJusgBAplgsoFPqANCpW0CpFNM6ICaqNq01kWQA0A1kC9C0AkBKxGwALVJrANBIkgVoHUCWshLHbqlV6uDQuZDYSjd9J+BSYeLk35AiAETKttItU0WAMpplBghMa+kU2ddBADVqoGKpUfOg4zJAd2zPUPKo/TKgUnMAzRs4dNMt2TqkjjUgDebMLap0RIBK2aY18mjaZYA2kOWSCOyHLpSdjkViUIeePTVkNPlyfBkpGfE8srYcX73I8GjA5fjmuc0U0foqxO7AVNF5+2jeucjEoAIa71lEHawfmL3ABB4KsvoGW2MtGVLV6Qg2RaF8mCO3pUYFdMJUBAfo8NRTlW0VprKBTuh3mqdvyB/w1NV57u9lQKJuCxcynD0KcIqkFgDJ8ARwIkkdlUHlwo3PYSLWjuwGiXoaYAA0p+yIRAEduHj5Yrx+pVp8PFq/UXY1JkHr95Hu63kF5af7/eRhN9biu7VgHe9f4+88IRqzCiiubXREIUb0MZBuSN2xGn0SULy4aJIYJSl5uxPVPCCAeK1IDEeUzrRoz6AWqwBeqN9y4pIrVCP1KjFYzW6jNZYB7L12jbDS6i2csa0NXi/UvRRnCtWcI/eivW7foKYQcanyuB3M7BYImKy4PbQKTgX9oC7S9YN2OPJ45S6tyt8M2KpO2JmFm3G6ZrZdQ0wqAiqX6kj7DKiDj8uA6FVYWwRN29j8WOg8+LgMiN53qjtnUAidM9WZbcw+FVJ3W1X7jXxnmH3s3EFqk8AbrkI392iBZFIpZXdbxdxoXryTwPjiLyQxD/O9XGdPJH0jcjAyaDbHBzg9lQN2/1MGQILY97/aSPSBge8aYajmWrijEGW4e1ctHbUgOeyHSIJyypRdrSgAbWRqdnWBRw2+UgHeG4NXauyitIqfMTkyrP01HF2fxFtGgVeDT370+jBcH67f1172h8Pl89zt//33OP3p8i0vPv4D);lineShape=1;strokeColor=#000000;" vertex="1" parent="1">
          <mxGeometry x="367.51986856675876" y="275.93814282288326" width="83.11052095604018" height="22.0671811318158" as="geometry" />
        </mxCell>
        <mxCell id="kLfVIcrVbCrJi5yO7FDx-32" value="" style="shape=stencil(lVhJchsxDHyNrijuy9lx/uEqy7EqjuWSne336YnMGQEKO+XbaAYtEmigAXIXb14f7172u+Be307Hr/ufh/u3x138tAvh8Py4Px3e8LSLt7t483A87b+cjt+f78+/X+4Wy+Xp2/HH8g+/zrggqS2g4H6fX6Qsqfx98/ls/3R4vrAvEqKyz3hT5/be2QVKlO4JAJ+TBjTxjgCauKAANUgjW4LPJWtAlUZWCPisnW4IW5wDYpSoV2iZrhC7+KoBTVKfA1KSrlfoThxZIYOHagGR+JCzZLOlLo0QV5z4Zn1whIeSJDYbpUCcRiJErwFeCtlS9ZY4MB0YIEnTW0IusSjh/7LeUsEKpH5ql6LDWoI4AmhRsk7vDK8SAVRxOjWSl5AJoNuKi156mAM6PhcFCEkySb6exOmwosrfAz0DVFNA4gkNPYvTNOSRjDN7E1RoArOHyGl7J505DA6SsXds/1CYbuw9oaw3Kdre06zr3QpSHDo+s3+Xqy2eTFK9W9VnI4wS3EeGrQ4gqcgKABg58onKEULUTYhAClEXAILmDJ0lMx+qJO2z7zxLi+RiVyjM6Wxp8FxdAAgGkEcmzgrNKKQPIwzTytQA+Mx2lEahrHonnmlLHnq7ZWpi+8kjbbZKSKwyi1TNgaMdASQXb+xZn0UWJVv5lWVdH4W+KRFr/LAvZmCTzivZxAdSw5WiG6l2Q+0/AGDaVSXqCC0pxFzGRKopiJWre7D9KSUq18tkY6baKJX12Gz1GsMME+xlUDGTSKTyhTnBtMzaRpv+N6DYRMLkUEhYMdlU7QPmtUBKs3TbZBFoNlggJk0zvfRd4gNGSFM8SBZGHIZUM8ovnY6kRr5a4aJ1zSZtIxhYglV0bFdeQxNIXGOwErmIGgkTStgXSwTbEjSx6W4LqjNRjaVVGkCkBxi/Hrku0rUyXbWNCvXAgnR1VkBysWOkG617rehEdR6HIe0wFIB1Wjc6/WofxNP/NwFFJjbCwNU8lTrtC24ctVb7No6UE3sz0KZCVRt1Yw4VqwRO7Guy9uww6K3coe4yyQdv6xj2gRS+H2p7YR8Jv8GW2KYDE/uP3aP83x4P26XNw+Hp6Xznc/ndXvLg1fmCKN7+AQ==);lineShape=1;strokeColor=#000000;" vertex="1" parent="1">
          <mxGeometry x="379.75591821311946" y="308.50286286139476" width="81.29089073666914" height="22.402057447474515" as="geometry" />
        </mxCell>
        <mxCell id="kLfVIcrVbCrJi5yO7FDx-33" value="" style="shape=stencil(nVjLbhsxDPwaXwlJ1POcpv8RIE5j1LUDJ339fWdraLvieidBb7ZXY1HkzJDand69Pj+87HfBvb5dzl/3Pw+Pb887/bQL4XB63l8Ob/i00/ud3j2dL/svl/P30+P1+8vDtHL69O38Y/qHX1dcdhLjhAru9/WXIDn//eHzdf3xcBrXFzesTzJ9I+tjGdZXSW57fSqSwrDeB1ESUFLJOgKSqG4DInaoI6CKFgIIqxR5egYt4toIiNLIDqoSx0OHIs1vA0KTNu6gXlwlABw6jYAonmQpZKlmhyKVhVT74w6ICIkden48A6JEltYoaaxDrBxQV1wFuROtdBkPnZAGBsDjMaRJHwSQcOix0hl1IGlFAGXMUsahCSD7zv4OKF5iI4AsftyhJBpSgaTzCICmCZdKtFyqnqa1tB7ADICmCaDOdZ0B0DShRnNWoi10hdwGRHFjWpuKI77UigRnAZXUoTUJY1obdw3vcAizBWpJXABb6EhXRKksptLTPgPAPrZDlGB2aNSNUQhDVwAqyWvN4sYdFnm4jfDWmbAFEynobMnRqFlCMLZ0tVf/NgBNK9hCMDYBYCuXuvVsaS6u2MQae8k97Qu+ZnLo6iSMvgEJVcKNGnsjXwAYmaDhXFcAooi28u8pJKbqLCHZQyfGb7QUb9OauKqbAaTu6FsAu0Oh9EZIfqVRT6iBANSktdHhoXnbR6cgydBXS6/rhzWq3biWNkDSNAFWGmXsQ180TWgqNakcJtFiJIfeTgSR5olqbkKFKihBQeOhIRHW2yOoMyoI3uYYwNuRqfCQMOT50ZhgJErIpMGOrhg3PKk05kRz6Fz6MHsbMAtsMTKxDuEhudVQ1ghdcWEwV4hp6iIheW9tA4NlImzNnTiLyZU1arUjGUZjR6rgbdeNODEpwmpwQN0zicfZ3oBZ3BFfVcsi5dLJ1mBwX2EG453VZuB3B597fWaAoyRCSpuxsELtIqyGBh+7k29dZ6K5uHp66dNmWVd7FrbEb1jBr+qTWYydh78KwHrTbUO/3GzdroyQffeO2+vVOrajDg93zM6sjyz+Yocw1zvp7fVoMGrWs54GTzC3mHfWRzsK83hgUmY45+dNtY+YH8tnavb/eb3gsn78f86H/3j19M56fPj3nuvpcDxeX5Mtn9v3Yvjp+k5N7/8A);lineShape=1;strokeColor=#000000;" vertex="1" parent="1">
          <mxGeometry x="54.5673804163082" y="311.86682607378793" width="19.15880070720088" height="67.55659282406384" as="geometry" />
        </mxCell>
        <mxCell id="kLfVIcrVbCrJi5yO7FDx-35" value="" style="shape=stencil(lVjbUlsxDPyavGpsy9dn2v4HM0DJlAID9Pb33dOMw5FOznZ4C0GKdVmt1j7o1ev99fPtIYXXt5enb7e/jjdv9wf9dEjp+Hh/+3J8w6eDfj7o1d3Ty+3Xl6cfjzenv5+vF8vl0/enn8sv/D755Sp5LF4p/Dl9EyXHf198Odk/HB9X9iVIScZeJXdi30SzsceBbd++ZknR2A/RROyHpGLjjzLKvkPLEoN1KBIGcehSu3Xo88yLDj1JU+OAmgaSc69SbEgJQTKHIaNZh0a7NvB7tkoaZDCHJqlaB5XOHNAHWyVtEnXfIYYgwWado2ilRzQL1Zxnay47oHMWS7lLzDxrC+6CaWAORZJtdcnSCTZGkm6TxoAMUia0OttW18AdikSbA0aKTVAb0m2ra5tB7k1Qt61uYX6zO6POIUsgOVT1pNQqDal0KTYHZFWZQxK1IWFqCxm53PwJKHQmtJGTVEt8/RzkRQftc4TPzBelEfBhItU5YB4I+EC9wbLA4PMAbne0gRkMpNMRnR7eoTEW2GBpxQs7vOE7hyMo+vyCgL2STqc5XqsiFVKkIM0OKFgkkz5vaG9Uuk6CVFdS7CvWtE08ShdinaO4so+8AY5gQGqFgQKo3DhkBoqxwWmaRbiccpoZrnJQsq1SmdtvNTqJFbVtcigcRW1zArY8y6HOYV/hqJGypnPEK6AyklyQZCkMk1AIMmK9MGoMSpBefTNrg8xCm+evIyI5A8lpkzILSLT4mnY6y3Ezm5XOsjr7QvUCpKlrWZ6/sGevH7HvU3KtVoiySVN/AJYUI5dF+lo26nnmtLdCnLbtkdI19L67YCwCnK3BOnfY2aFQws7qGa+lSTiXHfq8IJwVElQZkVRQF06f10rFAkRgs0Ct/FpVgQw7mpCFrNMVdGVzWG5m7ITu1XZRqi4gAotlPNwVKxOe0W8qiKzMhGfyFIkLQGYhJS9tccVgu7ltZKFyeb4kbUPSTBkDQHATp5FfcNVz6jLl7AYdPbzT+ZayBz6HJexTJWVdgGCTBi10kkMePmncuZkszMVr4Zgmfi+TwNgoVYlEAEA7u2cGBETahp9zjwCoAUkAPXKKRCnFwN5BO1Fkp7MOf3+2YYsN9m7zxHknu1yf6K9sYdLBXj1DdPZslLV4kAb6WoAxdGKH3xKAB3eDhD1DaPTaCPGQ+mCHOD0YKF8D0Kk5+0Hi/+iz3P/t8eH9DfDu+PBwekJc/9+/GeKr03ujfv4L);lineShape=1;strokeColor=#000000;" vertex="1" parent="1">
          <mxGeometry x="72.98799605673094" y="311.87114920247836" width="19.28672399047135" height="71.22251407196018" as="geometry" />
        </mxCell>
        <mxCell id="kLfVIcrVbCrJi5yO7FDx-36" value="" style="shape=stencil(lVjbUlsxDPyavGpky/LlmdL/YIZQMqWECdDL31dpxodjOWeZvh2C1vbquvZObl4f7172u8ivb6fj9/2vw/3b406+7GI8PD/uT4c3+9rJ7U5uHo6n/bfT8f35/vL3y93Z8vz14/jzvMLvC64x1XBGRf5z+SWSpn8/fL3YPx2e1/aBigz2SiFs29dKabQPTBEASiXVEaAUwYmyUnEMmATsoJXyeCTjXNo2IClxGQGFRLYBItTqAJAAOcRMLY6ARIUhQN0OlWLEO+QBkCIFwCE2kjYCMiUFpCPVMXDK1AAHyRRHt2rqyXI9Dst6C6B2VluBc6RzIgYADRTSCDA3ANJaiMfAlUQZkM7iSZdGDaV3Ix6ztZqXAIciVMcdrAZjhRUXR7dakaNcqkIykm4JciiZypitzdwAIl2ZkjtS7G3hOsC8njwAcmg9EdYA4FY7cWgekAsAZMrRk07gSM2SuXi3JtDIAjOxc5OSIhKtJ+cCyL2fXwcUqo5E6QPjOiBRdYGo2E08sW6wV9bZrw0WRI19vfUOoN9bQQh7DgWVnE4VVHpD36pR1wUsDhXtEP2Qs0hnxEH8gLDIoMFuHIrLb1sCcWgUphotKHBWQdUDUBxqIZ1KLoLman2rTjsoAujkJekTYKtG59aHJoqlWp0CF1A9GMCRziT4SOo6WaGEdrCpOA5qWwI2pqsA0ARsyroRtGpVW3PUdwGTWICEypQbQgWQSHO6MvRrSr3mlzmaYSczBeYEUA3UQH7LMnEWLWA7gEkdp3QtASaTKWFHOmeYriF5uZ4ZjnaTR+OJ1LIVKSzPQCNs3tPUtTiiuR58rzfVijw0TdBPZDH30650N7IPvRRXwj4D++yTTpgyED52OeLRoREXju3gajNiWWKq282qsEjSrdIM7sqHdYxp4jqStjsiozsi+2mosOOVpdI/LrkNr++iZpUKgnCuwjFLQ9coW9PcZVEgRusnry+4d78tvS3B2SNJZYInZ2fPaJIHH2Hc3W3ya3H28NFAqfr1BfRFEwpOu3C/cGyJfzfFQ1d8WxpV3JsEvNn+96PKp/b28fGC83B4ero8AK3/71987KfLa5Hc/gU=);lineShape=1;strokeColor=#000000;" vertex="1" parent="1">
          <mxGeometry x="92.58926125326252" y="316.5011205223543" width="17.884685555886414" height="67.2626020966366" as="geometry" />
        </mxCell>
        <mxCell id="kLfVIcrVbCrJi5yO7FDx-37" value="" style="shape=stencil(lVjbUlsxDPyavGpsy7bsZ9r+BzOEkiklDNDb33fTjMOxTs4yfQsHrW1ZK2nlnd68Ptw+73cpvL69HL/tfx3u3h52+mmX0uHpYf9yeMOvnX7e6c398WX/9eX44+nu/Pfz7cny9Ov78edphd9nXO5i8YRK4c/5SxRt/z58Ods/Hp4W9kWlzPYqPRL7Jlkn+yqWt+2rSqqTfR8LXLdvon0+f5Js2wDDBmUGFLqD2VjvAmgS6zagBWnzDilIKQSQx3oXQJKeCACX6naoEojTPYo5QJdAjtSzZBfmJIHcUq/SZh+0SGKA5p1WEyNOd5w4T4AcJHFADzNApRHuxRAkOESVTEKNLdrMjdyks0B0iXM6FNCVOWGeTKWML1uR0zlypUsiGd2DWJszFGxh/K4SHSCPJNxMiDlHq0kgR7IqOoe6ch8s+sDhSyHXihPHeQfLw6vrdcx8HcMhO+F3ATnnOBjIQgA5j0I6AC3RwqRd6nytrdA4ICPjfEsoJMwH5Hyd6Y1Cwo6EqtLnWwIdA6P3iNLFHisQ7lUfZ9hX5sGocgt7dp4wsvdi3ygtVgUD+ZoCs0/OXyQTCVmU6uzLaF/XSbTyF4WcrG++GXal9SuuUhkAVixilrICNLaDDQIsXFBypbjTWvwdBQZIouYBnQO626F+BFCXBsYBEAjO6SbGeLFqCyB2JkRFHHL1AHYkRNpJhkV73OBSXOWykSOBadnbM27HIaIWd8RcDiOzFkEopFbAu7n+Isqsh8QhiBY0YjJPfcsBsZngqav7RIsiUruv8kA5h3Qo/WVqMkroKnE4ACR1G6QhTrY4pzNJW6cNCicK8x01o0I4QlnMlwTxzUQkWOGkSIsjV68DUEtm2lmjNNLVxGOo8cSHk+x1UoRrSIhY19UgpyoRwhjynEqFYEt8ymsOkKVx/eUaYU10qMKJHTUgazPxwVZFGxIuMEDxE0zJdOSx6ucLaD5WUjFJ1rnCZIw8HODaQuZy6l2TLmYkI4GD0zYDMIUlJhiyr0qaR7PbkuaOfMo1JCJd5qqRGvWhVi/NE+/noFpazdtMJYFqrnRHLlMxo9XZh2jU6RJ9XXpv2Fs57QRAjLwIpNH8LoWM1jFtQ3Vd2M3ts28/SqkK++ieJMbL0qa9f6jqTF1kLxcivVAMR3kmduDrVz99hcHbrftMzdl/UOXdsBZoZ0N83fMIV2tZh3sLezZZlFHQF+dn46z5N6pA1VdGkpu/f8bn/3y4/NgeP95fSe8Pj4/nR9bl//2rKj6dX2T1818=);lineShape=1;strokeColor=#000000;" vertex="1" parent="1">
          <mxGeometry x="114.02085266583367" y="315.8123002971654" width="22.867872712729234" height="84.19935810517188" as="geometry" />
        </mxCell>
        <mxCell id="kLfVIcrVbCrJi5yO7FDx-38" value="" style="shape=stencil(lVbRbtswDPwavxKSKFHSc9f9R4Gmi7EsKdJsa/9+9AynIWPfsDfH5kXk8XjUwA9v+6fX3ZDC2+V8+r77PT5f9gN/GVIaj/vdebzo08CPAz+8nM67b+fTz+Pz/Pv1aYqcnn6cfk3/8D7jklBNEyqFj/mNUKp/X3yd4w/j8SaeI9Vq4mMhztuAnCjZA1IjSduAUqh0A8hxebMKkEzdnlAC9bINqJWyPUESMSi6N2oW0JgabwNiCBSCRVRYde+UmgH0SFkAQKhFC1AeQCN6olYsoFIN2wDN2J/QKQNem7baAm54WO+EkIg/ghEgerlqERnwKpX6HU0F8CqFJPtGBHRCoWgBSlwEahJZGnujpgyKln4HCBSB/Kqq06akkpcGAH35vytAiEHRLXsbUEAEJ3TNuPuUEphqbVOzE6RJFjRBzdegehQgV5VacwCBVqYAL76wKH4doBPkALwM4VbR7NSqYw5obcqJ7YPS0AGt2rhoadWqoFk2ytUDBMhbxZfEpwTnoS/zdQXoDAJadYCcz6i3JVDDOgCYQJHFGW+0hMw1q/ptDTVBLXGlYt1YmBjUkPqyoq5bLlNAO0jVajdKZmgCMfqJY16qWmfJs5ri4jur8YGqnbeoAwoquNuhMUCf1Hhnk9Alw921gToIT1Rs9gzDs2cfS/RODhEuTmVCrJ2qEyExZM8lXszxas6f8WgfTJ+byx/NvJIXqqOngHwmrVn2M6z3f6+1/47Xh8879Mt4OMxX8Nvv/s6tr+b7Oj/+AQ==);lineShape=1;strokeColor=#000000;" vertex="1" parent="1">
          <mxGeometry x="102.49305003600648" y="377.81725255623314" width="13.407430473387953" height="19.575621237130463" as="geometry" />
        </mxCell>
        <mxCell id="kLfVIcrVbCrJi5yO7FDx-41" style="edgeStyle=none;curved=1;rounded=0;orthogonalLoop=1;jettySize=auto;html=1;fontSize=12;startSize=8;endSize=8;" edge="1" parent="1" source="kLfVIcrVbCrJi5yO7FDx-39" target="kLfVIcrVbCrJi5yO7FDx-10">
          <mxGeometry relative="1" as="geometry" />
        </mxCell>
        <mxCell id="kLfVIcrVbCrJi5yO7FDx-39" value="A类火箭" style="rounded=1;whiteSpace=wrap;html=1;" vertex="1" parent="1">
          <mxGeometry x="-248" y="29" width="120" height="60" as="geometry" />
        </mxCell>
        <mxCell id="kLfVIcrVbCrJi5yO7FDx-42" style="edgeStyle=none;curved=1;rounded=0;orthogonalLoop=1;jettySize=auto;html=1;fontSize=12;startSize=8;endSize=8;" edge="1" parent="1" source="kLfVIcrVbCrJi5yO7FDx-40" target="kLfVIcrVbCrJi5yO7FDx-18">
          <mxGeometry relative="1" as="geometry" />
        </mxCell>
        <mxCell id="kLfVIcrVbCrJi5yO7FDx-40" value="B类飞船" style="rounded=1;whiteSpace=wrap;html=1;" vertex="1" parent="1">
          <mxGeometry x="608" y="98" width="120" height="60" as="geometry" />
        </mxCell>
      </root>
    </mxGraphModel>
  </diagram>
</mxfile>
